<?xml version="1.0" encoding="UTF-8"?>
<svg width="22px" height="32px" viewBox="0 0 22 32" version="1.1" xmlns="http://www.w3.org/2000/svg" xmlns:xlink="http://www.w3.org/1999/xlink">
    <!-- Generator: Sketch 48.2 (47327) - http://www.bohemiancoding.com/sketch -->
    <title>Group1</title>
    <desc>Created with Sketch.</desc>
    <defs></defs>
    <g id="Artboard" stroke="none" stroke-width="1" fill="none" fill-rule="evenodd" transform="translate(-563.000000, -474.000000)">
        <g id="Group1" transform="translate(563.000000, 474.000000)" fill="#000000" fill-rule="nonzero">
            <g id="Group">
                <path d="M8.93746563,6.21486123 C7.42589375,6.21486123 6.1875,7.43419938 6.1875,8.92255354 L6.1875,18.2408634 C5.76173125,17.3347308 4.9977125,16.3552874 4.03909688,16.1149188 C2.734875,15.7662831 1.13733125,16.793568 0.77350625,17.9870342 C0.588053125,18.6522498 0.70895,19.4092665 1.0742875,20.3351111 C2.86020625,24.5634671 5.0590375,28.6229849 7.73434063,31.7052865 C7.86225,31.8500702 8.05509375,31.9370954 8.24996563,31.9379788 L17.5311125,31.9379788 C17.6773781,31.9366249 17.82275,31.8875006 17.9392813,31.8004788 C18.9288344,31.0786825 19.7264031,29.8491702 20.3884656,28.3841326 C21.0505625,26.9190951 21.5573531,25.219612 21.8171594,23.5610557 C22.077,21.9024994 22.0759687,20.3494043 21.7097375,18.9706711 C21.3562938,17.6399994 20.4028688,16.5326074 18.9812562,16.368748 C18.6461688,16.3673942 18.2923469,16.3962311 17.9930094,16.4639234 C17.8166656,16.0487969 17.5695094,15.6947458 17.2625406,15.4802695 C16.7485312,15.1211111 16.2253438,15.008004 15.8016375,15.0148849 C15.3948438,15.0215865 15.0239031,15.1674397 14.6952094,15.3956542 C14.5472938,15.1734068 14.3951844,14.9421495 14.2010688,14.8033465 C13.691425,14.4389249 13.1492281,14.3379618 12.7186469,14.3379618 C12.3624875,14.3379618 12.0178094,14.4352188 11.6874313,14.5706542 L11.6874313,8.92253662 C11.6582125,7.11081292 10.2070719,6.21137508 8.93746563,6.21486123 Z M8.93746563,7.56870738 C9.71110938,7.56870738 10.3124313,8.16081538 10.3124313,8.92255354 L10.3124313,16.0302865 C10.3079625,16.3370951 10.5424,16.6313231 10.8461375,16.6999597 C11.149875,16.7685997 11.4911844,16.6044898 11.6229781,16.3264403 C11.7748469,16.01556 12.34695,15.6918249 12.7186469,15.6918249 C12.8855031,15.6918249 13.19505,15.7600926 13.3954219,15.9033634 C13.5957938,16.0466342 13.7498969,16.2143012 13.7498969,16.7072095 C13.7498969,17.0081391 13.9800031,17.2940477 14.2772094,17.3641837 C14.5744156,17.4343231 14.9106031,17.2819003 15.0496844,17.0139403 C15.3291875,16.4634225 15.4789594,16.3744206 15.8231219,16.368748 C15.9183406,16.3670557 16.2520531,16.4296474 16.4676188,16.5802865 C16.6832188,16.7309255 16.8436125,16.9040994 16.8436125,17.3841326 C16.840175,17.6477705 17.0112594,17.9050926 17.2567656,18.0102966 C17.5023063,18.1155006 17.809275,18.0624705 18.0037344,17.881248 C18.2644344,17.7547209 18.5201156,17.7163326 18.85235,17.7225942 C19.6720219,17.8252563 20.0975156,18.3310262 20.3884656,19.3408634 C20.6821313,20.3599914 20.6930625,21.8166825 20.4529188,23.3495172 C20.2128094,24.882352 19.7382281,26.4919668 19.1316469,27.8341326 C18.562775,29.0928982 17.8661656,30.0759292 17.2518156,30.5841326 L8.58299063,30.5841326 C6.16979688,27.7811465 3.86543438,23.4770022 2.36331563,19.8485557 C2.05060625,19.0560649 2.02245313,18.6010102 2.09477813,18.3466326 C2.34956563,17.6919092 3.06243438,17.3222822 3.6738625,17.4158803 C4.4048125,17.6869305 4.5859,18.1671634 4.8984375,18.7168249 L6.2627125,21.4139403 C6.40179375,21.6819003 6.73794688,21.8343231 7.0351875,21.7641837 C7.33239375,21.6940477 7.56184688,21.4081391 7.5625,21.1072095 L7.5625,8.92255354 C7.5625,8.16081538 8.16382188,7.56870738 8.93746563,7.56870738 Z" id="Shape"></path>
                <path d="M3.78125,0.122584 C3.6003,0.124276308 3.41539687,0.189538462 3.28710938,0.323504923 L0.193359375,3.36905969 C0.04324375,3.50465415 0.00721875,3.67462277 0,3.84492646 C0.00584375,4.030224 0.0504625,4.17790831 0.193359375,4.32079662 L3.28710938,7.36635138 C3.5396625,7.63955754 4.00547812,7.62923108 4.26463125,7.37691138 C4.52385313,7.12460523 4.52595,6.66472738 4.26463125,6.41460092 L2.34179688,4.521704 C6.73894375,4.521704 11.1360563,4.521704 15.5332031,4.521704 L13.6103688,6.41460092 C13.3490156,6.66472738 13.3511125,7.12460523 13.6103688,7.37691138 C13.8694875,7.62921754 14.3366781,7.62632708 14.5878906,7.36635138 L17.6816406,4.32079662 C17.8245375,4.17790831 17.869225,4.030224 17.875,3.84492646 C17.8677813,3.67462277 17.8317562,3.50465415 17.6816406,3.36905969 L14.5878906,0.323504923 C14.33135,0.0555753846 13.8694875,0.0606116923 13.6103688,0.312944923 C13.3512156,0.565251077 13.3490844,1.02512892 13.6103688,1.27525538 L15.5332031,3.16815231 C11.1360563,3.16815231 6.73894375,3.16815231 2.34179688,3.16815231 L4.26463125,1.27523846 C4.52591562,1.025112 4.52378437,0.565234154 4.26463125,0.312928 C4.13507187,0.186769846 3.9622,0.120834154 3.78125,0.122580615 L3.78125,0.122584 Z" id="Shape"></path>
            </g>
        </g>
    </g>
</svg>