<?xml version="1.0" encoding="UTF-8"?>
<svg width="25px" height="23px" viewBox="0 0 25 23" version="1.1" xmlns="http://www.w3.org/2000/svg" xmlns:xlink="http://www.w3.org/1999/xlink">
    <!-- Generator: Sketch 48.2 (47327) - http://www.bohemiancoding.com/sketch -->
    <title>Shape4</title>
    <desc>Created with Sketch.</desc>
    <defs></defs>
    <g id="Artboard" stroke="none" stroke-width="1" fill="none" fill-rule="evenodd" transform="translate(-43.000000, -362.000000)">
        <path d="M62.7152475,370.610114 L55.4985174,363.668932 C55.2792537,363.45804 54.931063,363.460721 54.7145864,363.668932 L47.4978562,370.610114 L47.4978562,383.613079 C47.4978562,383.771299 47.6219255,383.892021 47.7749728,383.892021 L62.438131,383.892021 C62.592756,383.892021 62.7152475,383.767135 62.7152475,383.613079 L62.7152475,370.610114 Z M63.8022041,371.655569 L63.8022041,384.436096 C63.8022041,384.747486 63.5606358,384.987259 63.2626462,384.987259 L46.9504575,384.987259 C46.6567487,384.987259 46.4108997,384.740495 46.4108997,384.436096 L46.4108997,371.655569 L43.9172542,374.054002 C43.6979905,374.264894 43.3572797,374.253651 43.1500301,374.034878 C42.9413356,373.81458 42.9522161,373.468086 43.1711051,373.257554 L54.7102184,362.159025 C54.932226,361.945494 55.2839965,361.948494 55.5028854,362.159025 L67.0419987,373.257554 C67.2640062,373.471085 67.2703232,373.816106 67.0630736,374.034878 C66.8543791,374.255176 66.5123261,374.262213 66.2958496,374.054002 L63.8022041,371.655569 Z" id="Shape4" fill="#FF931E" fill-rule="nonzero"></path>
    </g>
</svg>