<?xml version="1.0" encoding="UTF-8"?>
<svg width="35px" height="38px" viewBox="0 0 35 38" version="1.1" xmlns="http://www.w3.org/2000/svg" xmlns:xlink="http://www.w3.org/1999/xlink">
    <!-- Generator: Sketch 48.2 (47327) - http://www.bohemiancoding.com/sketch -->
    <title>Shape3</title>
    <desc>Created with Sketch.</desc>
    <defs></defs>
    <g id="Artboard" stroke="none" stroke-width="1" fill="none" fill-rule="evenodd" transform="translate(-585.000000, -552.000000)">
        <path d="M586.075167,552.001305 C585.453384,552.0685 584.98683,552.591715 585.000284,553.206729 L585.000284,588.81312 C585.00035,589.468589 585.540653,589.999935 586.20717,590 L612.758679,590 C613.425197,589.999935 613.9655,589.468589 613.965566,588.81312 L613.965566,586.439361 L618.793113,586.439361 C619.459631,586.439295 619.999933,585.90795 620,585.252481 L620,579.318083 C619.999933,578.662614 619.459631,578.131268 618.793113,578.131203 L613.965566,578.131203 L613.965566,575.164004 L618.793113,575.164004 C619.459631,575.163938 619.999933,574.632592 620,573.977124 L620,568.042726 C619.999933,567.387257 619.459631,566.855911 618.793113,566.855846 L613.965566,566.855846 L613.965566,563.888647 L618.793113,563.888647 C619.459631,563.888581 619.999933,563.357235 620,562.701767 L620,556.767368 C619.999933,556.1119 619.459631,555.580554 618.793113,555.580489 L613.965566,555.580489 L613.965566,553.206729 C613.9655,552.551261 613.425197,552.019915 612.758679,552.01985 L591.034718,552.01985 C590.599475,552.013802 590.194637,552.238688 589.975221,552.608396 C589.755805,552.978104 589.755805,553.435355 589.975221,553.805063 C590.194637,554.17477 590.599475,554.399656 591.034718,554.393609 L611.551793,554.393609 L611.551793,587.626241 L587.414057,587.626241 L587.414057,553.206729 C587.419168,552.885516 587.29167,552.575983 587.060681,552.348823 C586.829692,552.121663 586.514941,551.996278 586.188313,552.001305 C586.150618,551.999565 586.112862,551.999565 586.075167,552.001305 Z M613.965566,557.954248 L617.586226,557.954248 L617.586226,561.514887 L613.965566,561.514887 L613.965566,557.954248 Z M599.482925,560.921447 C596.831039,560.921447 594.655378,563.061042 594.655378,565.668966 C594.655378,568.27689 596.831039,570.416485 599.482925,570.416485 C602.134811,570.416485 604.310472,568.27689 604.310472,565.668966 C604.310472,563.061042 602.134811,560.921447 599.482925,560.921447 Z M599.482925,563.295207 C600.830311,563.295207 601.896698,564.343917 601.896698,565.668966 C601.896698,566.994016 600.830311,568.042726 599.482925,568.042726 C598.135538,568.042726 597.069151,566.994016 597.069151,565.668966 C597.069151,564.343917 598.135538,563.295207 599.482925,563.295207 Z M613.965566,569.229605 L617.586226,569.229605 L617.586226,572.790244 L613.965566,572.790244 L613.965566,569.229605 Z M599.482925,571.603365 C594.548297,571.603365 590.431274,575.28366 590.431274,579.911523 C590.431341,580.566991 590.971643,581.098337 591.638161,581.098402 L607.327689,581.098402 C607.994206,581.098337 608.534509,580.566991 608.534576,579.911523 C608.534576,575.283658 604.417543,571.603365 599.482925,571.603365 Z M599.482925,573.977124 C602.731937,573.977124 605.23343,576.057512 605.856796,578.724643 L593.109054,578.724643 C593.732419,576.057512 596.233901,573.977124 599.482925,573.977124 Z M613.965566,580.504962 L617.586226,580.504962 L617.586226,584.065601 L613.965566,584.065601 L613.965566,580.504962 Z" id="Shape3" fill="#FF931E" fill-rule="nonzero"></path>
    </g>
</svg>