<?xml version="1.0" encoding="UTF-8"?>
<svg width="18px" height="30px" viewBox="0 0 18 30" version="1.1" xmlns="http://www.w3.org/2000/svg" xmlns:xlink="http://www.w3.org/1999/xlink">
    <!-- Generator: Sketch 48.2 (47327) - http://www.bohemiancoding.com/sketch -->
    <title>Shape6</title>
    <desc>Created with Sketch.</desc>
    <defs></defs>
    <g id="Artboard" stroke="none" stroke-width="1" fill="none" fill-rule="evenodd" transform="translate(-46.000000, -267.000000)">
        <path d="M62.0273973,267 L47.9232877,267 C46.8383562,267 46,267.9 46,268.95 L46,295.05 C46,296.15 46.8876712,297 47.9232877,297 L62.0767123,297 C63.1616438,297 64,296.1 64,295.05 L64,268.95 C63.9506849,267.9 63.1123288,267 62.0273973,267 Z M62.9643836,295.05 C62.9643836,295.6 62.5205479,296 62.0273973,296 L47.9232877,296 C47.3808219,296 46.9863014,295.55 46.9863014,295.05 L46.9863014,268.95 C46.9863014,268.4 47.430137,268 47.9232877,268 L62.0767123,268 C62.6191781,268 63.0136986,268.45 63.0136986,268.95 L63.0136986,295.05 L62.9643836,295.05 Z M56.6027397,270.5 C56.6027397,270.8 56.5489415,271 56.4682441,271 L53.0386052,271 C52.9579078,271 52.9041096,270.8 52.9041096,270.5 C52.9041096,270.2 52.9579078,270 53.0386052,270 L56.4682441,270 C56.5354919,270 56.6027397,270.2 56.6027397,270.5 Z M54.9753425,291 C53.939726,291 53.0520548,291.85 53.0520548,292.95 C53.0520548,294.05 53.890411,294.9 54.9753425,294.9 C56.060274,294.9 56.8986301,294.05 56.8986301,292.95 C56.8986301,291.85 56.0109589,291 54.9753425,291 Z M54.9753425,293.9 C54.4821918,293.9 54.0383562,293.5 54.0383562,292.95 C54.0383562,292.4 54.4821918,292 54.9753425,292 C55.4684932,292 55.9123288,292.4 55.9123288,292.95 C55.9123288,293.5 55.4684932,293.9 54.9753425,293.9 Z" id="Shape6" fill="#1BC6B9" fill-rule="nonzero"></path>
    </g>
</svg>