<?xml version="1.0" encoding="UTF-8"?>
<svg width="18px" height="30px" viewBox="0 0 18 30" version="1.1" xmlns="http://www.w3.org/2000/svg" xmlns:xlink="http://www.w3.org/1999/xlink">
    <!-- Generator: Sketch 48.2 (47327) - http://www.bohemiancoding.com/sketch -->
    <title>Shape5</title>
    <desc>Created with Sketch.</desc>
    <defs></defs>
    <g id="Artboard" stroke="none" stroke-width="1" fill="none" fill-rule="evenodd" transform="translate(-46.000000, -178.000000)">
        <path d="M62.5343246,178 L47.5119884,178 C46.6828335,178 46,178.701169 46,179.552588 L46,206.447412 C46,207.298831 46.6828335,208 47.5119884,208 L62.4855508,208 C63.3147057,208 63.9975392,207.298831 63.9975392,206.447412 L63.9975392,179.552588 C64.046313,178.701169 63.3634795,178 62.5343246,178 Z M46.9754764,181.806344 L63.0708366,181.806344 L63.0708366,200.687813 L46.9754764,200.687813 L46.9754764,181.806344 Z M47.5119884,179.001669 L62.4855508,179.001669 C62.7781937,179.001669 63.0220628,179.252087 63.0220628,179.552588 L63.0220628,180.804674 L46.9267026,180.804674 L46.9267026,179.552588 C46.9754764,179.252087 47.2193455,179.001669 47.5119884,179.001669 Z M62.5343246,207.048414 L47.5119884,207.048414 C47.2193455,207.048414 46.9754764,206.797997 46.9754764,206.497496 L46.9754764,201.739566 L63.0708366,201.739566 L63.0708366,206.497496 C63.0708366,206.797997 62.8269675,207.048414 62.5343246,207.048414 Z M55.0231565,202.290484 C54.0476801,202.290484 53.267299,203.09182 53.267299,204.093489 C53.267299,205.095159 54.0476801,205.896494 55.0231565,205.896494 C55.9986329,205.896494 56.779014,205.095159 56.779014,204.093489 C56.779014,203.09182 55.9986329,202.290484 55.0231565,202.290484 Z M55.0231565,204.894825 C54.5841921,204.894825 54.2427754,204.54424 54.2427754,204.093489 C54.2427754,203.642738 54.5841921,203.292154 55.0231565,203.292154 C55.4621209,203.292154 55.8035376,203.642738 55.8035376,204.093489 C55.8035376,204.54424 55.4621209,204.894825 55.0231565,204.894825 Z" id="Shape5" fill="#A12284" fill-rule="nonzero"></path>
    </g>
</svg>