<?xml version="1.0" encoding="UTF-8"?>
<svg width="39px" height="38px" viewBox="0 0 39 38" version="1.1" xmlns="http://www.w3.org/2000/svg" xmlns:xlink="http://www.w3.org/1999/xlink">
    <!-- Generator: Sketch 48.2 (47327) - http://www.bohemiancoding.com/sketch -->
    <title>Shape8</title>
    <desc>Created with Sketch.</desc>
    <defs></defs>
    <g id="Artboard" stroke="none" stroke-width="1" fill="none" fill-rule="evenodd" transform="translate(-457.000000, -529.000000)">
        <path d="M490.769272,550.651846 C495.289352,546.1858 496.380597,544.891212 495.893137,543.359188 C495.405678,541.827164 493.77158,541.437092 487.545392,540.532576 C486.149484,540.32906 484.288275,540.057705 483.568164,539.865496 C483.163794,539.226682 482.338437,537.508102 481.718034,536.213513 C478.948377,530.469838 478.073165,529 476.5,529 C474.926835,529 474.051623,530.469838 471.281966,536.219167 C470.661563,537.513755 469.836206,539.226682 469.431836,539.871149 C468.711725,540.063359 466.850516,540.334713 465.454608,540.538229 C459.22842,541.442745 457.594322,541.838471 457.106863,543.364841 C456.619403,544.891212 457.710648,546.191453 462.230728,550.6575 C463.244422,551.65812 464.590476,552.986628 465.066856,553.574563 C465.022542,554.337748 464.701262,556.220272 464.457532,557.633578 C463.349669,563.948228 463.238883,565.655502 464.518464,566.59959 C465.798046,567.543679 467.337975,566.887905 472.899446,563.886043 C474.145792,563.213309 475.807586,562.314447 476.505539,562.037439 C477.203493,562.314447 478.859748,563.207656 480.106093,563.88039 C484.127635,566.051228 486.049777,566.995316 487.307201,566.995316 C487.740511,567.001975 488.163582,566.860705 488.509232,566.593937 C489.783274,565.649849 489.650331,563.942575 488.570165,557.627924 C488.326435,556.214618 488.016233,554.332095 487.96084,553.56891 C488.409524,552.980975 489.755578,551.652467 490.769272,550.651846 Z M484.687106,552.51741 C484.432297,553.325821 484.57078,554.388627 485.241037,558.244126 C485.479228,559.640472 485.828204,561.675632 485.977766,563.088938 C484.709263,562.523616 482.914525,561.539955 481.684798,560.872875 C478.283659,559.018617 477.330897,558.555053 476.5,558.555053 C475.669103,558.555053 474.716341,559.018617 471.326281,560.850262 C470.096553,561.511689 468.301816,562.484043 467.033313,563.066325 C467.182874,561.658673 467.531851,559.623512 467.770042,558.227166 C468.42922,554.371668 468.567703,553.303208 468.323973,552.494797 C468.080243,551.686386 467.337975,550.911895 464.579397,548.187041 C463.571242,547.197727 462.097784,545.733542 461.183798,544.710308 C462.546469,544.421994 464.5517,544.144986 465.930989,543.930164 C469.730959,543.364841 470.77235,543.183938 471.442607,542.686454 C472.112864,542.188971 472.62248,541.244882 474.284275,537.728577 C474.899138,536.456602 475.790968,534.596691 476.5,533.364289 C477.192414,534.596691 478.084244,536.456602 478.715725,537.728577 C480.405216,541.244882 480.931451,542.188971 481.579551,542.686454 C482.22765,543.183938 483.291199,543.376148 487.118864,543.930164 C488.498154,544.128026 490.503385,544.421994 491.866056,544.710308 C490.902216,545.733542 489.428758,547.197727 488.426142,548.187041 C485.673104,550.906241 484.941914,551.686386 484.687106,552.51741 Z" id="Shape8" fill="#FF931E" fill-rule="nonzero"></path>
    </g>
</svg>