<?xml version="1.0" encoding="UTF-8"?>
<svg width="27px" height="25px" viewBox="0 0 27 25" version="1.1" xmlns="http://www.w3.org/2000/svg" xmlns:xlink="http://www.w3.org/1999/xlink">
    <!-- Generator: Sketch 48.2 (47327) - http://www.bohemiancoding.com/sketch -->
    <title>Icn/Central_Telefonica</title>
    <desc>Created with Sketch.</desc>
    <defs></defs>
    <g id="Contactenos/01_contactenos" stroke="none" stroke-width="1" fill="none" fill-rule="evenodd" transform="translate(-30.000000, -184.000000)">
        <path d="M31.9428881,196.799352 C30.9743717,196.13985 30.340351,195.050519 30.340351,193.820937 L30.340351,193.762494 C30.340351,192.048122 31.5728858,190.606395 33.2261037,190.22221 C35.1305251,186.430016 39.1227209,184 43.5033008,184 C47.8868621,184 51.8776981,186.429622 53.7813756,190.223178 C55.4326521,190.608756 56.6626946,192.04918 56.6626946,193.762494 L56.6626946,193.820937 C56.6626946,195.828147 54.973639,197.461614 52.8969897,197.461614 L51.9423579,197.461614 C50.8680513,200.986334 47.4905492,203.566733 43.5012688,203.566733 C40.6316701,203.566733 38.078625,202.231552 36.471684,200.170144 L33.6935708,200.170144 C33.3689674,200.170144 33.079923,199.97124 32.9737538,199.674603 L31.9428881,196.799352 Z M33.7889047,197.448818 L34.2361006,198.696291 L35.5481133,198.696291 C35.3537671,198.300478 35.1901248,197.887954 35.0601797,197.461614 L34.106056,197.461614 C33.9992568,197.461614 33.8934806,197.457292 33.7889047,197.448818 Z M32.9241889,195.662113 C32.9524481,195.676117 32.9798175,195.691818 33.0061174,195.709132 C33.3312308,195.886798 33.70658,195.988252 34.106056,195.988252 L34.7553719,195.988252 C34.7210584,195.683657 34.7034483,195.374286 34.7034483,195.061017 C34.7034483,193.827389 34.9764735,192.654273 35.4671747,191.595179 L34.106056,191.595179 C32.8696165,191.595179 31.864311,192.567107 31.864311,193.762494 L31.864311,193.820937 C31.864311,194.597231 32.288279,195.279286 32.9241889,195.662113 Z M38.5079729,200.170144 C39.8116845,201.361748 41.5697168,202.093372 43.5012688,202.093372 C47.5123313,202.093372 50.7751295,198.938413 50.7751295,195.061017 C50.7751295,191.183129 47.5123313,188.028662 43.5012688,188.028662 C39.4902064,188.028662 36.2274082,191.183129 36.2274082,195.061017 C36.2274082,196.39037 36.6109301,197.634804 37.2766395,198.696291 L41.4347792,198.696291 C41.8559001,198.696291 42.1967592,199.026324 42.1967592,199.432972 C42.1967592,199.83962 41.8559001,200.170144 41.4347792,200.170144 L38.5079729,200.170144 Z M35.0134148,190.121818 L36.3424255,190.121818 C37.9397066,187.964065 40.5534665,186.5553 43.5012688,186.5553 C46.4490712,186.5553 49.0628311,187.964065 50.6601122,190.121818 L51.9933988,190.121818 C50.2205747,187.264487 47.0072146,185.473362 43.5033008,185.473362 C40.0019136,185.473362 36.7864615,187.264908 35.0134148,190.121818 Z M53.1455267,191.608406 C53.0639094,191.599667 52.9809829,191.595179 52.8969897,191.595179 L51.535363,191.595179 C52.0260642,192.654273 52.2990894,193.827389 52.2990894,195.061017 C52.2990894,195.374286 52.2814793,195.683657 52.2471658,195.988252 L52.8969897,195.988252 C54.1334291,195.988252 55.1387347,195.016325 55.1387347,193.820937 L55.1387347,193.762494 C55.1387347,192.662362 54.2865627,191.750819 53.186419,191.613154 C53.1727276,191.611926 53.159092,191.610342 53.1455267,191.608406 Z M56.2390338,209 C55.8184208,209 55.4770538,208.669967 55.4770538,208.263319 C55.4770538,206.162797 53.7097683,204.453697 51.5366015,204.453697 C51.5076462,204.453697 51.479707,204.452224 51.4507517,204.448786 C51.4162086,204.448786 50.2671429,204.373153 48.7055919,205.598499 C47.7272097,206.366121 46.2515085,207.248173 43.5007608,207.248173 C40.7505212,207.248173 39.27482,206.366121 38.2954218,205.598499 C36.7353948,204.374136 35.587345,204.447313 35.5380703,204.450259 C35.5177509,204.451733 35.4847317,204.453697 35.4644123,204.453697 C33.2917534,204.453697 31.5239599,206.162306 31.5239599,208.263319 C31.5239599,208.669967 31.1831009,209 30.76198,209 C30.340859,209 30,208.669967 30,208.263319 C30,205.361288 32.433256,202.998016 35.4303771,202.980336 C35.7676803,202.95578 37.3277072,202.941537 39.2555165,204.454188 C40.0875986,205.107379 41.2427602,205.774811 43.5002529,205.774811 C45.7582535,205.774811 46.9129071,205.107379 47.7444812,204.454679 C49.6712745,202.942519 51.2328254,202.956271 51.5696206,202.980336 C54.5672497,202.998016 56.9999977,205.361288 56.9999977,208.263319 C57.0010137,208.669967 56.6596467,209 56.2390338,209 Z" id="Icn/Central_Telefonica" fill="#1AC6BA" fill-rule="nonzero"></path>
    </g>
</svg>