<?xml version="1.0" encoding="UTF-8"?>
<svg width="20px" height="20px" viewBox="0 0 20 20" version="1.1" xmlns="http://www.w3.org/2000/svg" xmlns:xlink="http://www.w3.org/1999/xlink">
    <!-- Generator: Sketch 48.2 (47327) - http://www.bohemiancoding.com/sketch -->
    <title>Icn/Cerrar_header</title>
    <desc>Created with Sketch.</desc>
    <defs></defs>
    <g id="01_Inicio/Home" stroke="none" stroke-width="1" fill="none" fill-rule="evenodd" transform="translate(-184.000000, -519.000000)">
        <path d="M193.978564,523.475463 L197.314298,520.13973 C198.833937,518.62009 201.29776,518.62009 202.817399,520.13973 C204.337038,521.659369 204.337038,524.123191 202.817399,525.64283 L199.481665,528.978564 L202.817399,532.314298 C204.337038,533.833937 204.337038,536.29776 202.817399,537.817399 C201.29776,539.337038 198.833937,539.337038 197.314298,537.817399 L193.978564,534.481665 L190.64283,537.817399 C189.123191,539.337038 186.659369,539.337038 185.13973,537.817399 C183.62009,536.29776 183.62009,533.833937 185.13973,532.314298 L188.475463,528.978564 L185.13973,525.64283 C183.62009,524.123191 183.62009,521.659369 185.13973,520.13973 C186.659369,518.62009 189.123191,518.62009 190.64283,520.13973 L193.978564,523.475463 Z" id="Icn/Cerrar_header" fill="#05938D"></path>
    </g>
</svg>