<?xml version="1.0" encoding="UTF-8"?>
<svg width="36px" height="36px" viewBox="0 0 36 36" version="1.1" xmlns="http://www.w3.org/2000/svg" xmlns:xlink="http://www.w3.org/1999/xlink">
    <!-- Generator: Sketch 48.2 (47327) - http://www.bohemiancoding.com/sketch -->
    <title>Icn/Consulta_pago</title>
    <desc>Created with Sketch.</desc>
    <defs></defs>
    <g id="01_Inicio/Home" stroke="none" stroke-width="1" fill="none" fill-rule="evenodd" transform="translate(-35.000000, -172.000000)">
        <path d="M59.7154815,173.29427 C57.5785429,172.435384 55.3194529,172 53,172 C43.9308442,172 36.2519342,178.777449 35.1383116,187.764616 C35.0465792,188.502773 35,189.255189 35,190.000951 C35,199.925429 43.074833,208 53,208 C62.925167,208 71,199.925429 71,190.000951 C71,182.609401 66.5707005,176.051545 59.7154815,173.29427 Z M53,206.098759 C44.1228645,206.098759 36.9011909,198.87737 36.9011909,190.000951 C36.9011909,189.333615 36.9430171,188.6601 37.0247683,187.998944 C38.020517,179.961922 44.8885691,173.901241 53,173.901241 C55.0751499,173.901241 57.0961158,174.29052 59.0063373,175.058146 C65.1372026,177.524056 69.0988091,183.389385 69.0988091,190.000951 C69.0988091,198.876895 61.8771355,206.098759 53,206.098759 Z M57.8770299,183.6432 C57.395078,183.316187 56.8760529,183.041458 56.3323123,182.827093 C55.6949381,182.576129 55.0314225,182.416425 54.3526973,182.335622 L54.3526973,180.787061 C54.3526973,180.262318 53.9268306,179.83644 53.4021019,179.83644 C52.8773732,179.83644 52.4515064,180.262318 52.4515064,180.787061 L52.4515064,182.331819 C48.5436086,182.789068 45.503129,186.050647 45.503129,190 C45.503129,193.949353 48.5440839,197.211407 52.4515064,197.668181 L52.4515064,199.212939 C52.4515064,199.737682 52.8773732,200.16356 53.4021019,200.16356 C53.9268306,200.16356 54.3526973,199.737682 54.3526973,199.212939 L54.3526973,197.670557 C55.3023422,197.556483 56.2282221,197.273673 57.0728262,196.836863 C57.5386179,196.595405 57.7211323,196.022181 57.479681,195.555902 C57.2387051,195.090098 56.6650207,194.907579 56.1982784,195.149036 C55.3289588,195.599155 54.3854929,195.827304 53.3935465,195.827304 L53.39117,195.827304 C50.0902274,195.827304 47.4043199,193.213097 47.4043199,190 C47.4043199,186.786903 50.0897521,184.172696 53.39117,184.172696 C54.1678065,184.172696 54.9230546,184.314814 55.6350506,184.595722 C56.0480843,184.758754 56.443532,184.967415 56.8099865,185.216002 C57.2444087,185.51117 57.8352037,185.397571 58.1303636,184.963137 C58.4245729,184.529179 58.311452,183.937893 57.8770299,183.6432 Z" id="Icn/Consulta_pago" fill="#1AC6BA" fill-rule="nonzero"></path>
    </g>
</svg>