<?xml version="1.0" encoding="UTF-8"?>
<svg width="35px" height="35px" viewBox="0 0 35 35" version="1.1" xmlns="http://www.w3.org/2000/svg" xmlns:xlink="http://www.w3.org/1999/xlink">
    <!-- Generator: Sketch 48.2 (47327) - http://www.bohemiancoding.com/sketch -->
    <title>Icn/Contact</title>
    <desc>Created with Sketch.</desc>
    <defs></defs>
    <g id="01_Inicio/Home" stroke="none" stroke-width="1" fill="none" fill-rule="evenodd" transform="translate(-36.000000, -382.000000)">
        <path d="M36.7934126,413.136839 C36.5402615,414.005939 36.7807495,414.943929 37.420836,415.584016 C38.0609224,416.224102 38.9989123,416.46459 39.8680129,416.211439 L44.9145723,414.747523 C52.5361489,419.039129 62.155992,417.04405 67.4422909,410.075452 C72.7285898,403.106854 72.0575767,393.30525 65.8709144,387.122086 C59.6842521,380.938921 49.882269,380.27345 42.9166609,385.563688 C35.9510527,390.853926 33.961413,400.474895 38.2573288,408.094043 L36.7934126,413.136839 Z M42.4609133,388.453483 C48.205233,382.707552 57.3956222,382.325748 63.5967414,387.57542 C69.7978606,392.825092 70.93808,401.952464 66.2189897,408.566322 C61.4998994,415.18018 52.4980223,417.07101 45.5166972,412.914805 C45.2901291,412.779218 45.0170131,412.745079 44.7640411,412.820723 L39.3411536,414.405064 C39.1276252,414.473634 38.8936806,414.417044 38.7350991,414.258463 C38.5765176,414.099881 38.5199275,413.865937 38.5884975,413.652408 L40.1653121,408.221995 C40.2409567,407.969023 40.2068172,407.695907 40.07123,407.469339 C36.4193826,401.331347 37.4039023,393.497051 42.4609133,388.453483 Z M53.3055872,410.08 C56.0141163,411.095284 59.0660128,410.436368 61.1143946,408.394051 L61.9987656,407.50968 C62.5391099,406.969149 62.7841749,406.200377 62.6563442,405.446849 C62.5285134,404.69332 62.0436224,404.048381 61.3552446,403.716293 L56.6737234,401.458325 C56.307042,401.281347 55.8681281,401.360321 55.5861353,401.654016 L54.1297457,403.159328 L54.0921129,403.159328 C52.1329911,402.380707 50.5802662,400.830704 49.7982096,398.872951 L51.3035219,397.367639 C51.5852219,397.084678 51.6576348,396.654727 51.4841594,396.295104 L49.226191,391.613584 C48.8941037,390.925206 48.2491639,390.440315 47.4956354,390.312484 C46.7421068,390.184654 45.9733352,390.429718 45.432804,390.970063 L44.5559596,391.835617 C42.5157768,393.881843 41.8543216,396.928947 42.8624833,399.636897 C44.6674858,404.465647 48.476837,408.274998 53.3055872,410.08 Z M45.8919243,393.171582 L46.7762952,392.287211 C46.8859292,392.184461 47.037501,392.139251 47.1855087,392.165152 C47.3335164,392.191053 47.4607268,392.285051 47.5289514,392.418926 L49.508437,396.502085 L48.3982692,397.612253 C47.9176257,398.102196 47.7701913,398.829048 48.0219411,399.46755 C48.9792288,401.944242 50.9232049,403.911393 53.3883794,404.897963 L53.4975145,404.939359 C54.1648489,405.206327 54.9274535,405.040997 55.4243142,404.521635 L56.4592164,403.445337 L60.5273228,405.406006 C60.661198,405.474231 60.7551953,405.601441 60.7810967,405.749449 C60.806998,405.897456 60.7617876,406.049028 60.6590377,406.158662 L59.7746667,407.043033 C58.2535768,408.56726 55.9838789,409.065594 53.9641613,408.318785 C49.6498186,406.703986 46.2460248,403.300192 44.6312253,398.98585 C43.8789817,396.967936 44.3714491,394.696706 45.8919243,393.171582 Z M58.0357194,396.203808 C58.2815199,396.208697 58.5193959,396.11679 58.6980568,395.947905 L60.5006683,394.145294 C60.8685455,393.777417 60.8685455,393.18097 60.5006683,392.813093 C60.132791,392.445216 59.5363442,392.445216 59.1684669,392.813093 L57.3508023,394.600651 C57.0810187,394.869752 57.000196,395.275011 57.1461094,395.627017 C57.2920228,395.979022 57.6358541,396.208253 58.016903,396.207572 L58.0357194,396.203808 Z M58.5810552,398.69922 C58.553283,399.217681 58.9507591,399.660631 59.4691894,399.688963 L61.7685539,399.816915 L61.8212398,399.816915 C62.3408404,399.831463 62.7738541,399.422038 62.7884029,398.902438 C62.8029517,398.382837 62.3935264,397.949823 61.8739258,397.935274 L59.5745613,397.807323 C59.3243234,397.792969 59.0787024,397.879061 58.8921857,398.046502 C58.7056689,398.213943 58.5936776,398.448889 58.5810552,398.69922 Z M54.0050136,394.457934 L54.0576996,394.457934 C54.5761298,394.429602 54.973606,393.986652 54.9458338,393.468191 L54.8178823,391.168827 C54.7990594,390.832704 54.602347,390.532156 54.3018448,390.380396 C54.0013426,390.228635 53.642704,390.248719 53.3610246,390.433081 C53.0793453,390.617444 52.917419,390.938076 52.9362419,391.274199 L53.0641935,393.573563 C53.0940926,394.070997 53.5066826,394.458832 54.0050136,394.457934 Z" id="Icn/Contact" fill="#1AC6BA" fill-rule="nonzero"></path>
    </g>
</svg>