<?xml version="1.0" encoding="UTF-8"?>
<svg width="26px" height="24px" viewBox="0 0 26 24" version="1.1" xmlns="http://www.w3.org/2000/svg" xmlns:xlink="http://www.w3.org/1999/xlink">
    <!-- Generator: Sketch 48.2 (47327) - http://www.bohemiancoding.com/sketch -->
    <title>Icn/Correo_Electronico</title>
    <desc>Created with Sketch.</desc>
    <defs></defs>
    <g id="Contactenos/01_contactenos" stroke="none" stroke-width="1" fill="none" fill-rule="evenodd" transform="translate(-31.000000, -111.000000)">
        <path d="M44,112.000073 C43.592191,111.996608 43.1996754,112.117156 42.8562502,112.359935 L40.205,114.289941 L36.32,114.289941 C35.2653123,114.289941 34.3342126,115.118097 34.4,116.123269 L34.4,118.511607 L32.7621875,119.702196 C32.2849106,120.046867 32.0025324,120.586244 32,121.157757 L32,132.166673 C32,133.173836 32.8652957,134 33.92,134 L54.08,134 C55.134704,134 56,133.173836 56,132.166673 L56,121.165814 L55.9990626,121.165814 C55.9990626,121.162349 55.9990736,121.160327 55.9990626,121.156862 C55.9965229,120.5845 55.715445,120.045885 55.2368749,119.7013 L53.6,118.511607 L53.6,116.123269 C53.6000019,115.116296 52.7344539,114.289941 51.68,114.289941 L47.7996877,114.289941 L45.4118749,112.554189 C45.0725322,112.306265 44.4078094,112.002983 44,112.000073 Z M44.0084374,112.913156 C44.2121336,112.914888 44.4150838,112.97948 44.5859374,113.104724 L46.2153123,114.289941 L41.7856251,114.289941 L43.4271877,113.093982 C43.6002123,112.97151 43.8047403,112.911267 44.0084374,112.913156 Z M36.32,115.206605 L40.5068749,115.206605 L40.5143749,115.215557 L40.5265626,115.206605 L51.68,115.206605 C52.2157434,115.206605 52.671463,115.612524 52.64,116.123269 L52.64,123.313349 L47.5343749,126.893171 L45.1606251,125.204863 C44.4842437,124.725958 43.5346405,124.714026 42.8562502,125.193226 L40.4675,126.892276 L35.36,123.312454 L35.36,116.123269 C35.36,115.611554 35.7841293,115.206605 36.32,115.206605 Z M38.24,117.957491 C37.9740421,117.957491 37.76,118.161906 37.76,118.415823 C37.76,118.669775 37.9740421,118.874155 38.24,118.874155 L45.44,118.874155 C45.7059219,118.874155 45.92,118.669792 45.92,118.415823 C45.92,118.161906 45.7059219,117.957491 45.44,117.957491 L38.24,117.957491 Z M53.6,119.662808 L54.6593749,120.433557 C54.899145,120.606265 55.0368531,120.873699 55.0381251,121.160443 C55.0393731,121.447187 54.9116782,121.713662 54.6734374,121.888224 L53.6,122.641069 L53.6,119.662808 Z M34.4,119.664598 L34.4,122.639279 L33.335,121.892699 C33.0967738,121.718259 32.9587304,121.447187 32.96,121.160443 C32.9612707,120.873699 33.102729,120.606196 33.3425,120.433557 L34.4,119.664598 Z M38.24,119.790818 C37.9740421,119.790818 37.76,119.995233 37.76,120.24915 C37.76,120.503102 37.9740421,120.707482 38.24,120.707482 L42.08,120.707482 C42.3459214,120.707482 42.56,120.503085 42.56,120.24915 C42.56,119.995233 42.3459214,119.790818 42.08,119.790818 L38.24,119.790818 Z M44,119.790818 C43.7340786,119.790818 43.52,119.995233 43.52,120.24915 C43.52,120.503102 43.7340786,120.707482 44,120.707482 L49.76,120.707482 C50.0259214,120.707482 50.24,120.503085 50.24,120.24915 C50.24,119.995233 50.0259214,119.790818 49.76,119.790818 L44,119.790818 Z M38.24,121.624146 C37.9740786,121.624146 37.76,121.82856 37.76,122.082478 C37.76,122.33643 37.9740786,122.540809 38.24,122.540809 L44,122.540809 C44.2659214,122.540809 44.48,122.336412 44.48,122.082478 C44.48,121.82856 44.2659214,121.624146 44,121.624146 L38.24,121.624146 Z M45.92,121.624146 C45.6540786,121.624146 45.44,121.82856 45.44,122.082478 C45.44,122.336412 45.6540786,122.540809 45.92,122.540809 L48.32,122.540809 C48.5859214,122.540809 48.8,122.33643 48.8,122.082478 C48.8,121.82856 48.5859214,121.624146 48.32,121.624146 L45.92,121.624146 Z M55.04,122.766394 L55.04,132.166673 C55.04,132.187287 55.0347075,132.206382 55.0334374,132.22665 L48.3387498,127.464295 L55.04,122.766394 Z M32.96,122.76729 L39.6612502,127.465191 L32.9665625,132.225754 C32.9652462,132.205834 32.96,132.18694 32.96,132.166673 L32.96,122.76729 Z M44.0084374,125.747342 C44.2121336,125.749074 44.4150838,125.812633 44.5859374,125.938015 L54.5009374,132.989343 C54.3737638,133.047894 54.2324557,133.083336 54.08,133.083336 L33.92,133.083336 C33.7675429,133.083336 33.6262365,133.048067 33.4990625,132.989343 L43.4309374,125.928168 C43.6033726,125.807082 43.8058222,125.745471 44.0084374,125.747342 Z" id="Icn/Correo_Electronico" stroke="#1AC6BA" stroke-width="0.5" fill="#1AC6BA" fill-rule="nonzero"></path>
    </g>
</svg>