<?xml version="1.0" encoding="UTF-8"?>
<svg width="39px" height="39px" viewBox="0 0 39 39" version="1.1" xmlns="http://www.w3.org/2000/svg" xmlns:xlink="http://www.w3.org/1999/xlink">
    <!-- Generator: Sketch 48.2 (47327) - http://www.bohemiancoding.com/sketch -->
    <title>Icn/Facebook</title>
    <desc>Created with Sketch.</desc>
    <defs></defs>
    <g id="Contactenos/01_contactenos" stroke="none" stroke-width="1" fill="none" fill-rule="evenodd" transform="translate(-75.000000, -586.000000)">
        <g id="Icn/Facebook" transform="translate(75.000000, 586.000000)" fill-rule="nonzero">
            <path d="M39,34.125 C39,36.80625 36.80625,39 34.125,39 L4.875,39 C2.19375,39 0,36.80625 0,34.125 L0,4.875 C0,2.19375 2.19375,0 4.875,0 L34.125,0 C36.80625,0 39,2.19375 39,4.875 L39,34.125 Z" id="Shape" fill="#3C579E"></path>
            <path d="M20.9859609,39 L20.9859609,23.8229063 L15.5686172,23.8229063 L15.5686172,18.4107422 L20.9871797,18.4107422 L20.9871797,13.4150859 C20.9871797,8.37646875 23.9621484,5.40820312 28.4562891,5.40820312 C30.6098203,5.40820312 32.3666484,5.63854688 32.90625,5.71014844 L32.90625,11.3691094 L29.2883906,11.3675859 C26.8441875,11.3675859 26.3868516,12.5799375 26.3868516,14.2840547 L26.3868516,18.4107422 L32.6500078,18.4107422 L31.7651953,23.8229063 L26.3868516,23.8229063 L26.3868516,39 L20.9859609,39 Z" id="Shape" fill="#FFFFFF"></path>
        </g>
    </g>
</svg>