<?xml version="1.0" encoding="UTF-8"?>
<svg width="36px" height="48px" viewBox="0 0 36 48" version="1.1" xmlns="http://www.w3.org/2000/svg" xmlns:xlink="http://www.w3.org/1999/xlink">
    <!-- Generator: Sketch 48.2 (47327) - http://www.bohemiancoding.com/sketch -->
    <title>Icn/Icon_Map_kolbi</title>
    <desc>Created with Sketch.</desc>
    <defs>
        <polygon id="path-1" points="0 8.03601483 0 0.111587369 13.2839892 0.111587369 13.2839892 8.03601483"></polygon>
        <polygon id="path-3" points="8.65337839 2.04878049 0.0761304017 2.04878049 0.0761304017 0.307453659 8.65337839 0.307453659"></polygon>
    </defs>
    <g id="Pages" stroke="none" stroke-width="1" fill="none" fill-rule="evenodd">
        <g id="Icn/Icon_Map_kolbi">
            <path d="M18,0 C8.0800171,0 0,8.0700073 0,18 C0,30.2899781 16.6099854,46.0599976 17.3099976,46.7199707 L18,47.3699952 L18.6900024,46.7199708 C19.3900146,46.0599976 36,30.2899781 36,18 C36,8.0700074 27.9299927,0 18,0 Z" id="Shape" fill="#05938D" fill-rule="nonzero"></path>
            <g id="Page-1" transform="translate(4.000000, 7.000000)">
                <path d="M13.9419854,3.34514634 C13.4714488,3.34514634 13.0114976,3.39807317 12.5723756,3.49778049 C12.1554488,1.50056098 10.3863268,0.000170731707 8.26822927,0.000170731707 C5.84076585,0.000170731707 3.87359512,1.96768293 3.87359512,4.39446341 C3.87359512,6.63582927 5.5556439,8.48382927 7.72461951,8.75017073 C7.68535122,9.03597561 7.66281463,9.32690244 7.66281463,9.62329268 C7.66281463,11.3763659 8.38125366,12.9590488 9.53676585,14.0988537 L13.6534488,18.4525122 C13.7234488,18.5313902 13.828278,18.5836341 13.9419854,18.5836341 C14.0574,18.5836341 14.160522,18.5313902 14.2284732,18.4525122 L18.3478878,14.0988537 L18.3451561,14.0988537 C19.5027171,12.9590488 20.2204732,11.3763659 20.2204732,9.62329268 C20.2204732,9.32690244 20.198961,9.03597561 20.1579854,8.75017073 C22.3296927,8.48382927 24.0110585,6.63582927 24.0110585,4.39446341 C24.0110585,1.96768293 22.041839,0.000170731707 19.6164244,0.000170731707 C17.496278,0.000170731707 15.7298878,1.50056098 15.312278,3.49778049 C14.8724732,3.39807317 14.4132049,3.34514634 13.9419854,3.34514634" id="Fill-1" fill="#BAD645"></path>
                <path d="M22.4782634,4.39306341 C22.4782634,5.97369756 21.1994829,7.25520976 19.6168,7.25520976 C18.0327512,7.25520976 16.7549951,5.97369756 16.7549951,4.39306341 C16.7549951,2.81481951 18.0327512,1.53296585 19.6168,1.53296585 C21.1994829,1.53296585 22.4782634,2.81481951 22.4782634,4.39306341" id="Fill-3" fill="#FFFFFF"></path>
                <path d="M21.3368195,4.39306341 C21.3368195,5.34506341 20.5647707,6.11438049 19.6178927,6.11438049 C18.6652098,6.11438049 17.8941854,5.34506341 17.8941854,4.39306341 C17.8941854,3.44379512 18.6652098,2.6731122 19.6178927,2.6731122 C20.5647707,2.6731122 21.3368195,3.44379512 21.3368195,4.39306341" id="Fill-5" fill="#E9262A"></path>
                <path d="M20.7459171,3.83552195 C20.7459171,4.15069268 20.489478,4.40713171 20.1736244,4.40713171 C19.8591366,4.40713171 19.6033805,4.15069268 19.6033805,3.83552195 C19.6033805,3.51966829 19.8591366,3.26322927 20.1736244,3.26322927 C20.489478,3.26322927 20.7459171,3.51966829 20.7459171,3.83552195" id="Fill-7" fill="#FFFFFF"></path>
                <path d="M11.13,4.39306341 C11.13,5.97369756 9.84985366,7.25520976 8.26990244,7.25520976 C6.68687805,7.25520976 5.40536585,5.97369756 5.40536585,4.39306341 C5.40536585,2.81481951 6.68687805,1.53296585 8.26990244,1.53296585 C9.84985366,1.53296585 11.13,2.81481951 11.13,4.39306341" id="Fill-9" fill="#FFFFFF"></path>
                <path d="M9.9908439,4.39306341 C9.9908439,5.34506341 9.2181122,6.11438049 8.27020976,6.11438049 C7.31752683,6.11438049 6.54820976,5.34506341 6.54820976,4.39306341 C6.54820976,3.44379512 7.31752683,2.6731122 8.27020976,2.6731122 C9.2181122,2.6731122 9.9908439,3.44379512 9.9908439,4.39306341" id="Fill-11" fill="#E9262A"></path>
                <path d="M9.39884878,3.83552195 C9.39884878,4.15069268 9.14240976,4.40713171 8.82723902,4.40713171 C8.51206829,4.40713171 8.25562927,4.15069268 8.25562927,3.83552195 C8.25562927,3.51966829 8.51206829,3.26322927 8.82723902,3.26322927 C9.14240976,3.26322927 9.39884878,3.51966829 9.39884878,3.83552195" id="Fill-13" fill="#FFFFFF"></path>
                <path d="M14.6130976,19.2495561 C14.5844146,19.1628244 14.6086585,19.0716537 14.6690976,19.0108732 C14.9047073,18.8018976 15.1194878,18.5669707 15.3486098,18.3477512 C16.4109024,17.3141415 17.3902195,16.2323854 18.4747073,15.2230195 C19.6879268,14.0944829 20.8762195,12.6644341 22.4363659,11.9811659 C23.1756341,11.6560927 26.2112439,10.7792146 27.5364634,14.1071171 C28.8586098,17.4322878 26.0487073,18.8855561 25.2937317,19.1556537 C23.6885122,19.7323854 21.8411951,19.5111171 20.1857805,19.5230683 C18.7010976,19.535361 17.2481707,19.4219951 15.7662195,19.4015073 C15.4503659,19.3977512 15.1331463,19.376239 14.8166098,19.3854585 C14.7326098,19.3827268 14.6503171,19.3332146 14.6130976,19.2495561" id="Fill-15" fill="#BAD645"></path>
                <g id="Group-19" transform="translate(0.000000, 11.519029)">
                    <mask id="mask-2" fill="white">
                        <use xlink:href="#path-1"></use>
                    </mask>
                    <g id="Clip-18"></g>
                    <path d="M13.271078,7.73052683 C13.3011268,7.64379512 13.2768829,7.55262439 13.2174683,7.4918439 C12.9815171,7.28286829 12.7667366,7.04794146 12.5362488,6.82872195 C11.4715659,5.7951122 10.4983951,4.7133561 9.41185854,3.70399024 C8.19761463,2.57545366 7.00932195,1.14540488 5.45054146,0.462136585 C4.71263902,0.137063415 1.67429756,-0.739814634 0.349078049,2.5880878 C-0.974092683,5.91325854 1.83615122,7.36652683 2.59317561,7.63662439 C4.19702927,8.2133561 6.04298049,7.9920878 7.70180976,8.00403902 C9.18307805,8.01633171 10.6366878,7.90296585 12.118639,7.88247805 C12.4338098,7.87872195 12.7523951,7.85720976 13.0689317,7.86642927 C13.1529317,7.86369756 13.2345415,7.81418537 13.271078,7.73052683" id="Fill-17" fill="#BAD645" mask="url(#mask-2)"></path>
                </g>
                <path d="M5.23050244,20.059678 C5.23050244,20.059678 9.05762439,20.0709463 12.9349415,19.9070439 C12.9349415,19.9070439 13.4170878,20.0968976 13.0619659,20.7467024 C13.0619659,20.7467024 12.6935268,21.4579707 11.1671854,21.5709951 L5.23050244,21.6485073 C5.23050244,21.6485073 4.5448439,21.4204098 4.6223561,20.7586537 C4.6223561,20.7586537 4.60938049,20.4018244 5.23050244,20.059678" id="Fill-20" fill="#BAD645"></path>
                <g id="Group-24" transform="translate(14.682927, 19.714151)">
                    <mask id="mask-4" fill="white">
                        <use xlink:href="#path-3"></use>
                    </mask>
                    <g id="Clip-23"></g>
                    <path d="M8.03757073,0.460087805 C8.03757073,0.460087805 4.21079024,0.471356098 0.333131707,0.307453659 C0.333131707,0.307453659 -0.149014634,0.497307317 0.207473171,1.1460878 C0.207473171,1.1460878 0.576595122,1.8573561 2.10225366,1.97140488 L8.03757073,2.04891707 C8.03757073,2.04891707 8.72596098,1.81945366 8.64708293,1.15838049 C8.64708293,1.15838049 8.65835122,0.803258537 8.03757073,0.460087805" id="Fill-22" fill="#BAD645" mask="url(#mask-4)"></path>
                </g>
            </g>
        </g>
    </g>
</svg>