<?xml version="1.0" encoding="UTF-8"?>
<svg width="39px" height="39px" viewBox="0 0 39 39" version="1.1" xmlns="http://www.w3.org/2000/svg" xmlns:xlink="http://www.w3.org/1999/xlink">
    <!-- Generator: Sketch 48.2 (47327) - http://www.bohemiancoding.com/sketch -->
    <title>Icn/Instagram</title>
    <desc>Created with Sketch.</desc>
    <defs>
        <linearGradient x1="12.8810937%" y1="103.011328%" x2="87.1188281%" y2="-3.01125%" id="linearGradient-1">
            <stop stop-color="#FFB900" offset="0%"></stop>
            <stop stop-color="#9100EB" offset="100%"></stop>
        </linearGradient>
    </defs>
    <g id="Contactenos/01_contactenos" stroke="none" stroke-width="1" fill="none" fill-rule="evenodd" transform="translate(-223.000000, -586.000000)">
        <g id="Icn/Instagram" transform="translate(223.000000, 586.000000)" fill-rule="nonzero">
            <path d="M39,34.125 C39,36.80625 36.80625,39 34.125,39 L4.875,39 C2.19375,39 0,36.80625 0,34.125 L0,4.875 C0,2.19375 2.19375,0 4.875,0 L34.125,0 C36.80625,0 39,2.19375 39,4.875 L39,34.125 Z" id="Shape" fill="url(#linearGradient-1)"></path>
            <g id="Group" transform="translate(4.875000, 4.875000)" fill="#FFFFFF">
                <path d="M21.328125,29.25 L7.921875,29.25 C3.553875,29.25 0,25.6964297 0,21.328125 L0,7.921875 C0,3.553875 3.553875,0 7.921875,0 L21.328125,0 C25.6964297,0 29.25,3.553875 29.25,7.921875 L29.25,21.328125 C29.25,25.6964297 25.6964297,29.25 21.328125,29.25 Z M7.921875,2.4375 C4.89785156,2.4375 2.4375,4.89785156 2.4375,7.921875 L2.4375,21.328125 C2.4375,24.3521484 4.89785156,26.8125 7.921875,26.8125 L21.328125,26.8125 C24.3521484,26.8125 26.8125,24.3521484 26.8125,21.328125 L26.8125,7.921875 C26.8125,4.89785156 24.3521484,2.4375 21.328125,2.4375 L7.921875,2.4375 Z" id="Shape"></path>
                <path d="M14.625,21.9375 C10.5927656,21.9375 7.3125,18.6569297 7.3125,14.625 C7.3125,10.5927656 10.5927656,7.3125 14.625,7.3125 C18.6569297,7.3125 21.9375,10.5927656 21.9375,14.625 C21.9375,18.6569297 18.6569297,21.9375 14.625,21.9375 Z M14.625,9.75 C11.9370469,9.75 9.75,11.9370469 9.75,14.625 C9.75,17.3129531 11.9370469,19.5 14.625,19.5 C17.3129531,19.5 19.5,17.3129531 19.5,14.625 C19.5,11.9370469 17.3129531,9.75 14.625,9.75 Z" id="Shape"></path>
                <circle id="Oval" cx="22.3945312" cy="6.85546875" r="1.67578125"></circle>
            </g>
        </g>
    </g>
</svg>