<?xml version="1.0" encoding="UTF-8"?>
<svg width="43px" height="34px" viewBox="0 0 43 34" version="1.1" xmlns="http://www.w3.org/2000/svg" xmlns:xlink="http://www.w3.org/1999/xlink">
    <!-- Generator: Sketch 48.2 (47327) - http://www.bohemiancoding.com/sketch -->
    <title>Icn/kolbi_header_rana</title>
    <desc>Created with Sketch.</desc>
    <defs>
        <polygon id="path-1" points="0 12.3410228 0 0.171366317 20.400412 0.171366317 20.400412 12.3410228"></polygon>
        <polygon id="path-3" points="13.2891168 3.14634146 0.116914545 3.14634146 0.116914545 0.472160976 13.2891168 0.472160976"></polygon>
    </defs>
    <g id="Pages" stroke="none" stroke-width="1" fill="none" fill-rule="evenodd">
        <g id="Icn/kolbi_header_rana">
            <path d="M21.4109061,5.13718902 C20.6882963,5.13718902 19.9819427,5.21846951 19.3075768,5.37159146 C18.6672963,2.30443293 15.9504305,0.000262195122 12.6976378,0.000262195122 C8.96974756,0.000262195122 5.94873537,3.02179878 5.94873537,6.74864024 C5.94873537,10.1907378 8.53188171,13.0287378 11.8628085,13.4377622 C11.8025037,13.8766768 11.7678939,14.3234573 11.7678939,14.778628 C11.7678939,17.4708476 12.871211,19.9013963 14.6457476,21.651811 L20.9677963,28.3377866 C21.0752963,28.4589207 21.2362841,28.5391524 21.4109061,28.5391524 C21.58815,28.5391524 21.7465159,28.4589207 21.8508695,28.3377866 L28.1771134,21.651811 L28.1729183,21.651811 C29.9506012,19.9013963 31.0528695,17.4708476 31.0528695,14.778628 C31.0528695,14.3234573 31.0198329,13.8766768 30.9569061,13.4377622 C34.292028,13.0287378 36.8741256,10.1907378 36.8741256,6.74864024 C36.8741256,3.02179878 33.8499671,0.000262195122 30.1252232,0.000262195122 C26.8692841,0.000262195122 24.1566134,2.30443293 23.5152841,5.37159146 C22.8398695,5.21846951 22.1345646,5.13718902 21.4109061,5.13718902" id="Fill-1" fill="#BAD645"></path>
            <path d="M34.5201902,6.74649024 C34.5201902,9.17389268 32.5563488,11.1419293 30.1258,11.1419293 C27.6931537,11.1419293 25.7308854,9.17389268 25.7308854,6.74649024 C25.7308854,4.32275854 27.6931537,2.35419756 30.1258,2.35419756 C32.5563488,2.35419756 34.5201902,4.32275854 34.5201902,6.74649024" id="Fill-3" fill="#FFFFFF"></path>
            <path d="M32.7672585,6.74649024 C32.7672585,8.20849024 31.5816122,9.38994146 30.127478,9.38994146 C28.6644293,9.38994146 27.4803561,8.20849024 27.4803561,6.74649024 C27.4803561,5.28868537 28.6644293,4.10513659 30.127478,4.10513659 C31.5816122,4.10513659 32.7672585,5.28868537 32.7672585,6.74649024" id="Fill-5" fill="#E9262A"></path>
            <path d="M31.8598012,5.89026585 C31.8598012,6.37427805 31.4659841,6.76809512 30.9809232,6.76809512 C30.4979598,6.76809512 30.1051915,6.37427805 30.1051915,5.89026585 C30.1051915,5.40520488 30.4979598,5.0113878 30.9809232,5.0113878 C31.4659841,5.0113878 31.8598012,5.40520488 31.8598012,5.89026585" id="Fill-7" fill="#FFFFFF"></path>
            <path d="M17.0925,6.74649024 C17.0925,9.17389268 15.126561,11.1419293 12.7002073,11.1419293 C10.2691341,11.1419293 8.30109756,9.17389268 8.30109756,6.74649024 C8.30109756,4.32275854 10.2691341,2.35419756 12.7002073,2.35419756 C15.126561,2.35419756 17.0925,4.32275854 17.0925,6.74649024" id="Fill-9" fill="#FFFFFF"></path>
            <path d="M15.3430817,6.74649024 C15.3430817,8.20849024 14.1563866,9.38994146 12.7006793,9.38994146 C11.2376305,9.38994146 10.0561793,8.20849024 10.0561793,6.74649024 C10.0561793,5.28868537 11.2376305,4.10513659 12.7006793,4.10513659 C14.1563866,4.10513659 15.3430817,5.28868537 15.3430817,6.74649024" id="Fill-11" fill="#E9262A"></path>
            <path d="M14.4339463,5.89026585 C14.4339463,6.37427805 14.0401293,6.76809512 13.5561171,6.76809512 C13.0721049,6.76809512 12.6782878,6.37427805 12.6782878,5.89026585 C12.6782878,5.40520488 13.0721049,5.0113878 13.5561171,5.0113878 C14.0401293,5.0113878 14.4339463,5.40520488 14.4339463,5.89026585" id="Fill-13" fill="#FFFFFF"></path>
            <path d="M22.4415427,29.5618183 C22.3974939,29.4286232 22.4347256,29.288611 22.5275427,29.1952695 C22.889372,28.8743427 23.2192134,28.5135622 23.5710793,28.1769037 C25.2024573,26.5895744 26.7064085,24.9283061 28.371872,23.3782085 C30.2350305,21.6450988 32.0599085,19.4489524 34.4558476,18.3996476 C35.5911524,17.900428 40.2529817,16.5537939 42.2881402,21.6645012 C44.3185793,26.7710134 40.003372,29.0028183 38.8439451,29.417611 C36.3787866,30.3033061 33.5418354,29.9635012 30.9995915,29.9818549 C28.7195427,30.0007329 26.4882622,29.8266354 24.2124085,29.795172 C23.7273476,29.7894037 23.240189,29.7563671 22.7540793,29.7705256 C22.6250793,29.7663305 22.4987012,29.6902939 22.4415427,29.5618183" id="Fill-15" fill="#BAD645"></path>
            <g id="Group-19" transform="translate(0.000000, 17.689938)">
                <mask id="mask-2" fill="white">
                    <use xlink:href="#path-1"></use>
                </mask>
                <g id="Clip-18"></g>
                <path d="M20.3805841,11.8718805 C20.4267305,11.7386854 20.3894988,11.5986732 20.2982549,11.5053317 C19.9359012,11.1844049 19.6060598,10.8236244 19.2520963,10.4869659 C17.6170476,8.89963659 16.1225354,7.23836829 14.4539256,5.68827073 C12.5891939,3.95516098 10.7643159,1.75901463 8.37047439,0.709709756 C7.23726707,0.210490244 2.57124268,-1.1361439 0.536084146,3.97456341 C-1.49592805,9.08107561 2.81980366,11.3128805 3.98237683,11.7276732 C6.4454378,12.6133683 9.28029146,12.2735634 11.8277793,12.2919171 C14.1025841,12.3107951 16.3349134,12.1366976 18.6107671,12.1052341 C19.0947793,12.0994659 19.5840354,12.0664293 20.0701451,12.0805878 C20.1991451,12.0763927 20.3244744,12.0003561 20.3805841,11.8718805" id="Fill-17" fill="#BAD645" mask="url(#mask-2)"></path>
            </g>
            <path d="M8.03255732,30.8059341 C8.03255732,30.8059341 13.9099232,30.823239 19.8643744,30.5715317 C19.8643744,30.5715317 20.6048134,30.8630927 20.0594476,31.8610073 C20.0594476,31.8610073 19.4936305,32.9533122 17.1496061,33.1268854 L8.03255732,33.245922 C8.03255732,33.245922 6.97958171,32.8956293 7.09861829,31.879361 C7.09861829,31.879361 7.07869146,31.3313732 8.03255732,30.8059341" id="Fill-20" fill="#BAD645"></path>
            <g id="Group-24" transform="translate(22.548780, 30.275304)">
                <mask id="mask-4" fill="white">
                    <use xlink:href="#path-3"></use>
                </mask>
                <g id="Clip-23"></g>
                <path d="M12.3434122,0.706563415 C12.3434122,0.706563415 6.46657073,0.723868293 0.511595122,0.472160976 C0.511595122,0.472160976 -0.228843902,0.763721951 0.318619512,1.76006341 C0.318619512,1.76006341 0.885485366,2.85236829 3.22846098,3.02751463 L12.3434122,3.14655122 C12.3434122,3.14655122 13.4005829,2.79416098 13.2794488,1.77894146 C13.2794488,1.77894146 13.2967537,1.23357561 12.3434122,0.706563415" id="Fill-22" fill="#BAD645" mask="url(#mask-4)"></path>
            </g>
        </g>
    </g>
</svg>