<?xml version="1.0" encoding="UTF-8"?>
<svg width="34px" height="43px" viewBox="0 0 34 43" version="1.1" xmlns="http://www.w3.org/2000/svg" xmlns:xlink="http://www.w3.org/1999/xlink">
    <!-- Generator: Sketch 48.2 (47327) - http://www.bohemiancoding.com/sketch -->
    <title>Icn/Mapas Copy 2</title>
    <desc>Created with Sketch.</desc>
    <defs></defs>
    <g id="01_Inicio/Home" stroke="none" stroke-width="1" fill="none" fill-rule="evenodd" transform="translate(-36.000000, -310.000000)">
        <path d="M52.8294232,311 C46.8917916,311.000206 41.3936227,314.147965 38.3608962,319.283383 C35.3281697,324.4188 35.2096986,330.781887 38.0491375,336.027955 C42.046566,344.188182 51.6782803,352.641591 52.0862803,353.012955 C52.1638281,353.076476 52.2506607,353.12757 52.3437089,353.164432 L52.4699946,353.218182 C52.710745,353.319988 52.9821014,353.319988 53.2228518,353.218182 L53.3539946,353.164432 C53.4514102,353.123997 53.5416367,353.067885 53.6211375,352.998295 C54.0728518,352.6025 64.792566,343.186477 68.260566,334.669545 L68.3528518,334.444773 L68.4159946,334.288409 L68.4159946,334.229773 L68.4937089,334.009886 C70.4967168,328.810648 69.8218374,322.952106 66.6899318,318.351526 C63.5580262,313.750947 58.3721465,311.000389 52.8294232,311 Z M66.7014232,333.330682 L66.5557089,333.716705 L66.4731375,333.921932 C63.5588518,341.012045 55.034566,349.098977 52.8731375,351.087727 C50.8039946,349.211364 43.1151375,341.925795 39.7734232,335.128864 C36.4383621,329.042497 37.7003193,321.448009 42.821777,316.783799 C47.9432347,312.119589 55.5802531,311.609609 61.2695776,315.551903 C66.9589021,319.494197 69.2075769,326.854254 66.7014232,333.330682 Z M52.8294232,320.288977 C48.6372676,320.288978 45.2386041,323.70736 45.2377106,327.924736 C45.2368172,332.142112 48.634032,335.561951 52.8261872,335.563749 C57.0183423,335.565548 60.4184553,332.148625 60.4211375,327.93125 C60.418462,323.713562 57.0218865,320.294366 52.8294232,320.288977 Z M52.8294232,333.618977 C49.7102781,333.618976 47.1814616,331.075674 47.1805684,327.937764 C47.1796751,324.799854 49.7070433,322.255095 52.8261879,322.253296 C55.9453325,322.251498 58.4755983,324.793341 58.4782803,327.93125 C58.4756073,331.069473 55.9488764,333.613591 52.8294232,333.618977 Z" id="Icn/Mapas-Copy" fill="#1AC6BA" fill-rule="nonzero"></path>
    </g>
</svg>