<?xml version="1.0" encoding="UTF-8"?>
<svg width="18px" height="18px" viewBox="0 0 18 18" version="1.1" xmlns="http://www.w3.org/2000/svg" xmlns:xlink="http://www.w3.org/1999/xlink">
    <!-- Generator: Sketch 48.2 (47327) - http://www.bohemiancoding.com/sketch -->
    <title>Icn/photo_perfil</title>
    <desc>Created with Sketch.</desc>
    <defs></defs>
    <g id="Pages" stroke="none" stroke-width="1" fill="none" fill-rule="evenodd">
        <g id="Icn/photo_perfil">
            <circle id="Oval-9" fill="#FFFFFF" cx="9" cy="9" r="9"></circle>
            <path d="M9,1.71428571 C13.0291825,1.71428571 16.2857143,4.97081804 16.2857143,8.99999454 C16.2857143,13.0291767 13.0291825,16.2857088 9,16.2857088 C4.97081749,16.2857088 1.71428571,13.0291767 1.71428571,8.99999454 C1.71428571,4.97081786 4.97081749,1.71428571 9,1.71428571 Z M5.35714286,3.53570882 L5.35714286,4.44642311 L4.44642857,4.44642311 C3.94189286,4.44642311 3.53571429,4.85260168 3.53571429,5.35713739 L3.53571429,12.6428517 C3.53571429,13.1473874 3.94189286,13.553566 4.44642857,13.553566 L13.5535714,13.553566 C14.0581071,13.553566 14.4642857,13.1473874 14.4642857,12.6428517 L14.4642857,5.35713739 C14.4642857,4.85260168 14.0581071,4.44642311 13.5535714,4.44642311 L7.17857143,4.44642311 L7.17857143,3.53570882 L5.35714286,3.53570882 Z M9,6.26785168 C10.5089208,6.26785168 11.7321429,7.4910737 11.7321429,8.99999454 C11.7321429,10.5089154 10.5089208,11.7321374 9,11.7321374 C7.49107917,11.7321374 6.26785714,10.5089154 6.26785714,8.99999454 C6.26785714,7.4910737 7.49107917,6.26785168 9,6.26785168 Z" id="Combined-Shape" fill="#000000" fill-rule="nonzero"></path>
        </g>
    </g>
</svg>