<?xml version="1.0" encoding="UTF-8"?>
<svg width="40px" height="37px" viewBox="0 0 40 37" version="1.1" xmlns="http://www.w3.org/2000/svg" xmlns:xlink="http://www.w3.org/1999/xlink">
    <!-- Generator: Sketch 48.2 (47327) - http://www.bohemiancoding.com/sketch -->
    <title>Icn/Shopping</title>
    <desc>Created with Sketch.</desc>
    <defs></defs>
    <g id="01_Inicio/Home" stroke="none" stroke-width="1" fill="none" fill-rule="evenodd" transform="translate(-33.000000, -241.000000)">
        <path d="M33.9045466,242.00003 C33.4049655,242.00003 33,242.411482 33,242.919034 C33,243.426587 33.4049655,243.838039 33.9045466,243.838039 L38.5968819,243.838039 L43.3598625,266.727013 C43.3113019,267.250616 43.7898387,267.758596 44.3068323,267.732175 L66.920496,267.732175 C67.3983815,267.739067 67.8379324,267.298772 67.8379324,266.81317 C67.8379324,266.327614 67.3983815,265.887319 66.920496,265.894166 L45.0417764,265.894166 L44.2785652,262.218147 L68.7295892,262.218147 C69.1345818,262.213552 69.5172548,261.901688 69.6058687,261.500175 L72.7717818,247.715094 C72.8894136,247.18174 72.4334723,246.598963 71.8955023,246.595057 L41.0278509,246.595057 L40.2222617,242.718002 C40.1326166,242.311811 39.7415359,241.996478 39.331826,242.00003 L33.9045466,242.00003 Z M41.4094791,248.433066 L70.764819,248.433066 L68.008756,260.380138 L43.8969823,260.380138 L41.4094791,248.433066 Z M49.2818386,270.489142 C47.0445331,270.489142 45.2113789,272.351551 45.2113789,274.624663 C45.2113789,276.897774 47.0445331,278.760183 49.2818386,278.760183 C51.5191894,278.760183 53.3522983,276.897774 53.3522983,274.624663 C53.3522983,272.351551 51.5191894,270.489142 49.2818386,270.489142 Z M61.945491,270.489142 C59.7081855,270.489142 57.8750313,272.351551 57.8750313,274.624663 C57.8750313,276.897774 59.7081855,278.760183 61.945491,278.760183 C64.1828405,278.760183 66.0159494,276.897774 66.0159494,274.624663 C66.0159494,272.351551 64.1828405,270.489142 61.945491,270.489142 Z M49.2818386,272.327151 C50.541465,272.327151 51.5432051,273.344903 51.5432051,274.624663 C51.5432051,275.904422 50.541465,276.922174 49.2818386,276.922174 C48.0222575,276.922174 47.0204721,275.904422 47.0204721,274.624663 C47.0204721,273.344903 48.0222575,272.327151 49.2818386,272.327151 Z M61.945491,272.327151 C63.205116,272.327151 64.2068562,273.344903 64.2068562,274.624663 C64.2068562,275.904422 63.205116,276.922174 61.945491,276.922174 C60.6859099,276.922174 59.6841245,275.904422 59.6841245,274.624663 C59.6841245,273.344903 60.6859099,272.327151 61.945491,272.327151 Z" id="Icn/Shopping" fill="#1AC6BA" fill-rule="nonzero"></path>
    </g>
</svg>