<?xml version="1.0" encoding="UTF-8"?>
<svg width="25px" height="20px" viewBox="0 0 25 20" version="1.1" xmlns="http://www.w3.org/2000/svg" xmlns:xlink="http://www.w3.org/1999/xlink">
    <!-- Generator: Sketch 48.2 (47327) - http://www.bohemiancoding.com/sketch -->
    <title>Icn/Sitio_Web</title>
    <desc>Created with Sketch.</desc>
    <defs></defs>
    <g id="Contactenos/01_contactenos" stroke="none" stroke-width="1" fill="none" fill-rule="evenodd" transform="translate(-31.000000, -260.000000)">
        <path d="M54.4375,260 L32.5625,260 C31.703125,260 31,260.692308 31,261.538462 L31,278.461538 C31,279.307692 31.703125,280 32.5625,280 L54.4375,280 C55.296875,280 56,279.307692 56,278.461538 L56,261.538462 C56,260.692308 55.296875,260 54.4375,260 Z M32.5625,261.538462 L54.4375,261.538462 L54.4375,264.846154 L32.5625,264.846154 L32.5625,261.538462 Z M54.4375,278.461538 L32.5625,278.461538 L32.5625,266.307692 L54.4375,266.307692 L54.4375,278.461538 Z M34.59375,263.923077 C34.359375,263.923077 34.203125,263.846154 34.046875,263.692308 C33.890625,263.538462 33.8125,263.384615 33.8125,263.153846 C33.8125,262.923077 33.890625,262.769231 34.046875,262.615385 C34.359375,262.307692 34.828125,262.307692 35.140625,262.615385 C35.296875,262.769231 35.375,262.923077 35.375,263.153846 C35.375,263.384615 35.296875,263.538462 35.140625,263.692308 C35.0625,263.846154 34.828125,263.923077 34.59375,263.923077 Z M40.0625,263.923077 C39.828125,263.923077 39.671875,263.846154 39.515625,263.692308 C39.359375,263.538462 39.28125,263.384615 39.28125,263.153846 C39.28125,262.923077 39.359375,262.769231 39.515625,262.615385 C39.828125,262.307692 40.296875,262.307692 40.609375,262.615385 C40.765625,262.769231 40.84375,262.923077 40.84375,263.153846 C40.84375,263.384615 40.765625,263.538462 40.609375,263.692308 C40.53125,263.846154 40.296875,263.923077 40.0625,263.923077 Z M37.328125,263.923077 C37.09375,263.923077 36.859375,263.846154 36.703125,263.692308 C36.625,263.538462 36.546875,263.384615 36.546875,263.153846 C36.546875,262.923077 36.625,262.769231 36.78125,262.615385 C37.09375,262.307692 37.5625,262.307692 37.875,262.615385 C38.03125,262.769231 38.109375,262.923077 38.109375,263.153846 C38.109375,263.384615 38.03125,263.538462 37.875,263.692308 C37.71875,263.846154 37.484375,263.923077 37.328125,263.923077 Z M38.734375,270.769231 C39.125,270.769231 39.515625,270.461538 39.515625,270 C39.515625,269.538462 39.203125,269.230769 38.734375,269.230769 L35.609375,269.230769 C35.140625,269.230769 34.828125,269.538462 34.828125,270 C34.828125,270.461538 35.140625,270.769231 35.609375,270.769231 L38.734375,270.769231 Z M44.984375,270.769231 C45.375,270.769231 45.765625,270.461538 45.765625,270 C45.765625,269.538462 45.453125,269.230769 44.984375,269.230769 L41.859375,269.230769 C41.390625,269.230769 41.078125,269.538462 41.078125,270 C41.078125,270.461538 41.390625,270.769231 41.859375,270.769231 L44.984375,270.769231 Z M51.234375,270.769231 C51.625,270.769231 52.015625,270.461538 52.015625,270 C52.015625,269.538462 51.703125,269.230769 51.234375,269.230769 L48.109375,269.230769 C47.640625,269.230769 47.328125,269.538462 47.328125,270 C47.328125,270.461538 47.640625,270.769231 48.109375,270.769231 L51.234375,270.769231 Z" id="Icn/Sitio_Web" fill="#1AC6BA" fill-rule="nonzero"></path>
    </g>
</svg>