<?xml version="1.0" encoding="UTF-8"?>
<svg width="39px" height="39px" viewBox="0 0 39 39" version="1.1" xmlns="http://www.w3.org/2000/svg" xmlns:xlink="http://www.w3.org/1999/xlink">
    <!-- Generator: Sketch 48.2 (47327) - http://www.bohemiancoding.com/sketch -->
    <title>Icn/twitter</title>
    <desc>Created with Sketch.</desc>
    <defs></defs>
    <g id="Contactenos/01_contactenos" stroke="none" stroke-width="1" fill="none" fill-rule="evenodd" transform="translate(-124.000000, -586.000000)">
        <g id="Icn/twitter" transform="translate(124.000000, 586.000000)" fill-rule="nonzero">
            <path d="M39,34.125 C39,36.80625 36.80625,39 34.125,39 L4.875,39 C2.19375,39 0,36.80625 0,34.125 L0,4.875 C0,2.19375 2.19375,0 4.875,0 L34.125,0 C36.80625,0 39,2.19375 39,4.875 L39,34.125 Z" id="Shape" fill="#55ACEE"></path>
            <path d="M33.2112422,11.4900703 C32.2252734,11.9279062 31.1649609,12.2234531 30.0516328,12.3559922 C31.1878125,11.6753203 32.0592187,10.5976406 32.4702422,9.31277344 C31.4074922,9.94317188 30.2295703,10.4011172 28.977,10.6476094 C27.9736641,9.57846094 26.5440703,8.91028125 24.9621328,8.91028125 C21.9234844,8.91028125 19.4606953,11.3730703 19.4606953,14.4108047 C19.4606953,14.8422422 19.5094453,15.2614922 19.6032891,15.6645937 C15.0308437,15.4351641 10.9778906,13.2450703 8.26495312,9.91727344 C7.79146875,10.7292656 7.51999219,11.6747109 7.51999219,12.6826172 C7.51999219,14.590875 8.49133594,16.2748828 9.96724219,17.2611562 C9.06567187,17.2325156 8.2168125,16.9848047 7.47550781,16.5725625 C7.47489844,16.5957188 7.47489844,16.618875 7.47489844,16.6420313 C7.47489844,19.3080469 9.37096875,21.5298281 11.8873828,22.0359141 C11.4254766,22.1614453 10.9398047,22.2287813 10.4382891,22.2287813 C10.0836328,22.2287813 9.73903125,22.1940469 9.40326562,22.1297578 C10.1034375,24.3152813 12.1350937,25.9066641 14.5418203,25.9502344 C12.6594609,27.4249219 10.2874687,28.30425 7.71011719,28.30425 C7.26588281,28.30425 6.82804687,28.2792656 6.39782812,28.2274687 C8.83197656,29.7883828 11.7240703,30.6990937 14.8303594,30.6990937 C24.9481172,30.6990937 30.4812422,22.3168359 30.4812422,15.0479063 C30.4812422,14.8096406 30.4748437,14.5719844 30.4644844,14.3364609 C31.5415547,13.5619453 32.4735937,12.5930391 33.2112422,11.4900703" id="Shape" fill="#FFFFFF"></path>
        </g>
    </g>
</svg>