<?xml version="1.0" encoding="UTF-8"?>
<svg width="39px" height="39px" viewBox="0 0 39 39" version="1.1" xmlns="http://www.w3.org/2000/svg" xmlns:xlink="http://www.w3.org/1999/xlink">
    <!-- Generator: Sketch 48.2 (47327) - http://www.bohemiancoding.com/sketch -->
    <title>Icn/Youtube</title>
    <desc>Created with Sketch.</desc>
    <defs></defs>
    <g id="Contactenos/01_contactenos" stroke="none" stroke-width="1" fill="none" fill-rule="evenodd" transform="translate(-174.000000, -586.000000)">
        <g id="Icn/Youtube" transform="translate(174.000000, 586.000000)" fill-rule="nonzero">
            <path d="M39,34.125 C39,36.80625 36.80625,39 34.125,39 L4.875,39 C2.19375,39 0,36.80625 0,34.125 L0,4.875 C0,2.19375 2.19375,0 4.875,0 L34.125,0 C36.80625,0 39,2.19375 39,4.875 L39,34.125 Z" id="Shape" fill="#CC191E"></path>
            <path d="M32.6387344,14.1387187 C32.6387344,14.1387187 32.3767031,12.2910937 31.5726328,11.4778828 C30.5525391,10.4096484 29.4099609,10.4044687 28.8865078,10.3420078 C25.1351953,10.0705313 19.5060938,10.0705313 19.5060938,10.0705313 L19.4939063,10.0705313 C19.4939063,10.0705313 13.8651094,10.0705313 10.1134922,10.3420078 C9.589125,10.4041641 8.44715625,10.4093437 7.42736719,11.4778828 C6.62329688,12.2910937 6.36157031,14.1387187 6.36157031,14.1387187 C6.36157031,14.1387187 6.09375,16.3083984 6.09375,18.4783828 L6.09375,20.5127812 C6.09375,22.6818516 6.36157031,24.8521406 6.36157031,24.8521406 C6.36157031,24.8521406 6.62329687,26.6991562 7.42736719,27.5126719 C8.44746094,28.5815156 9.78717188,28.5473906 10.3834453,28.6595156 C12.52875,28.8654844 19.5003047,28.9291641 19.5003047,28.9291641 C19.5003047,28.9291641 25.1339766,28.9206328 28.8865078,28.6494609 C29.410875,28.5866953 30.5534531,28.5815156 31.5729375,27.5132812 C32.3773125,26.6991562 32.6390391,24.8524453 32.6390391,24.8524453 C32.6390391,24.8524453 32.90625,22.6824609 32.90625,20.5127812 L32.90625,18.4783828 C32.90625,16.3083984 32.6387344,14.1387187 32.6387344,14.1387187 Z M16.3927969,23.3296172 L16.3918828,15.0914766 L24.3137578,19.2245625 L16.3927969,23.3296172 Z" id="Shape" fill="#FFFFFF"></path>
        </g>
    </g>
</svg>