<?xml version="1.0" encoding="UTF-8"?>
<svg width="20px" height="20px" viewBox="0 0 20 20" version="1.1" xmlns="http://www.w3.org/2000/svg" xmlns:xlink="http://www.w3.org/1999/xlink">
    <!-- Generator: Sketch 48.2 (47327) - http://www.bohemiancoding.com/sketch -->
    <title>Close</title>
    <desc>Created with Sketch.</desc>
    <defs></defs>
    <g id="Artboard" stroke="none" stroke-width="1" fill="none" fill-rule="evenodd" transform="translate(-743.000000, -326.000000)">
        <path d="M753,330.485077 L756.3429,327.142178 C757.865803,325.619274 760.334918,325.619274 761.857822,327.142178 C763.380726,328.665082 763.380726,331.134197 761.857822,332.6571 L758.514923,336 L761.857822,339.3429 C763.380726,340.865803 763.380726,343.334918 761.857822,344.857822 C760.334918,346.380726 757.865803,346.380726 756.3429,344.857822 L753,341.514923 L749.6571,344.857822 C748.134197,346.380726 745.665082,346.380726 744.142178,344.857822 C742.619274,343.334918 742.619274,340.865803 744.142178,339.3429 L747.485077,336 L744.142178,332.6571 C742.619274,331.134197 742.619274,328.665082 744.142178,327.142178 C745.665082,325.619274 748.134197,325.619274 749.6571,327.142178 L753,330.485077 Z" id="Close" fill="#1AC6BA"></path>
    </g>
</svg>