<?xml version="1.0" encoding="UTF-8"?>
<svg width="93px" height="803px" viewBox="0 0 93 803" version="1.1" xmlns="http://www.w3.org/2000/svg" xmlns:xlink="http://www.w3.org/1999/xlink">
    <!-- Generator: Sketch 48.2 (47327) - http://www.bohemiancoding.com/sketch -->
    <title>Artboard</title>
    <desc>Created with Sketch.</desc>
    <defs></defs>
    <g id="Page-1" stroke="none" stroke-width="1" fill="none" fill-rule="evenodd">
        <g id="Artboard">
            <path d="M36.0273973,5 L21.9232877,5 C20.8383562,5 20,5.9 20,6.95 L20,33.05 C20,34.15 20.8876712,35 21.9232877,35 L36.0767123,35 C37.1616438,35 38,34.1 38,33.05 L38,6.95 C37.9506849,5.9 37.1123288,5 36.0273973,5 Z M36.9643836,33.05 C36.9643836,33.6 36.5205479,34 36.0273973,34 L21.9232877,34 C21.3808219,34 20.9863014,33.55 20.9863014,33.05 L20.9863014,6.95 C20.9863014,6.4 21.430137,6 21.9232877,6 L36.0767123,6 C36.6191781,6 37.0136986,6.45 37.0136986,6.95 L37.0136986,33.05 L36.9643836,33.05 Z M30.6027397,8.5 C30.6027397,8.8 30.5489415,9 30.4682441,9 L27.0386052,9 C26.9579078,9 26.9041096,8.8 26.9041096,8.5 C26.9041096,8.2 26.9579078,8 27.0386052,8 L30.4682441,8 C30.5354919,8 30.6027397,8.2 30.6027397,8.5 Z M28.9753425,29 C27.939726,29 27.0520548,29.85 27.0520548,30.95 C27.0520548,32.05 27.890411,32.9 28.9753425,32.9 C30.060274,32.9 30.8986301,32.05 30.8986301,30.95 C30.8986301,29.85 30.0109589,29 28.9753425,29 Z M28.9753425,31.9 C28.4821918,31.9 28.0383562,31.5 28.0383562,30.95 C28.0383562,30.4 28.4821918,30 28.9753425,30 C29.4684932,30 29.9123288,30.4 29.9123288,30.95 C29.9123288,31.5 29.4684932,31.9 28.9753425,31.9 Z" id="Shape6" fill="#1BC6B9" fill-rule="nonzero"></path>
            <path d="M36.5343246,45 L21.5119884,45 C20.6828335,45 20,45.7011686 20,46.5525876 L20,73.4474124 C20,74.2988314 20.6828335,75 21.5119884,75 L36.4855508,75 C37.3147057,75 37.9975392,74.2988314 37.9975392,73.4474124 L37.9975392,46.5525876 C38.046313,45.7011686 37.3634795,45 36.5343246,45 Z M20.9754764,48.8063439 L37.0708366,48.8063439 L37.0708366,67.687813 L20.9754764,67.687813 L20.9754764,48.8063439 Z M21.5119884,46.0016694 L36.4855508,46.0016694 C36.7781937,46.0016694 37.0220628,46.2520868 37.0220628,46.5525876 L37.0220628,47.8046745 L20.9267026,47.8046745 L20.9267026,46.5525876 C20.9754764,46.2520868 21.2193455,46.0016694 21.5119884,46.0016694 Z M36.5343246,74.048414 L21.5119884,74.048414 C21.2193455,74.048414 20.9754764,73.7979967 20.9754764,73.4974958 L20.9754764,68.7395659 L37.0708366,68.7395659 L37.0708366,73.4974958 C37.0708366,73.7979967 36.8269675,74.048414 36.5343246,74.048414 Z M29.0231565,69.2904841 C28.0476801,69.2904841 27.267299,70.0918197 27.267299,71.0934891 C27.267299,72.0951586 28.0476801,72.8964942 29.0231565,72.8964942 C29.9986329,72.8964942 30.779014,72.0951586 30.779014,71.0934891 C30.779014,70.0918197 29.9986329,69.2904841 29.0231565,69.2904841 Z M29.0231565,71.8948247 C28.5841921,71.8948247 28.2427754,71.5442404 28.2427754,71.0934891 C28.2427754,70.6427379 28.5841921,70.2921536 29.0231565,70.2921536 C29.4621209,70.2921536 29.8035376,70.6427379 29.8035376,71.0934891 C29.8035376,71.5442404 29.4621209,71.8948247 29.0231565,71.8948247 Z" id="Shape5" fill="#A12284" fill-rule="nonzero"></path>
            <path d="M39.541272,93.6148861 L32.3882253,86.6698567 C32.1708965,86.458848 31.8257783,86.4615302 31.611212,86.6698567 L24.4581653,93.6148861 L24.4581653,106.625058 C24.4581653,106.783366 24.5811397,106.904155 24.7328364,106.904155 L39.2666009,106.904155 C39.4198614,106.904155 39.541272,106.779199 39.541272,106.625058 L39.541272,93.6148861 Z M40.6186368,94.6609201 L40.6186368,107.448531 C40.6186368,107.760094 40.3792002,108 40.0838403,108 L23.9155971,108 C23.62448,108 23.3808005,107.753099 23.3808005,107.448531 L23.3808005,94.6609201 L20.90916,97.060683 C20.6918312,97.2716917 20.3541269,97.2604428 20.1487062,97.0415487 C19.9418533,96.8211285 19.9526378,96.4744419 20.1695952,96.2637938 L31.6068825,85.1591135 C31.8269311,84.9454642 32.1755974,84.9484654 32.3925548,85.1591135 L43.8298421,96.2637938 C44.0498906,96.4774431 44.0561518,96.8226546 43.8507311,97.0415487 C43.6438782,97.2619689 43.3048436,97.2690095 43.0902773,97.060683 L40.6186368,94.6609201 Z" id="Shape4" fill="#FF931E" fill-rule="nonzero"></path>
            <path d="M30,121.485077 L33.3428996,118.142178 C34.8658034,116.619274 37.3349183,116.619274 38.8578221,118.142178 C40.380726,119.665082 40.380726,122.134197 38.8578221,123.6571 L35.5149226,127 L38.8578221,130.3429 C40.380726,131.865803 40.380726,134.334918 38.8578221,135.857822 C37.3349183,137.380726 34.8658034,137.380726 33.3428996,135.857822 L30,132.514923 L26.6571004,135.857822 C25.1341966,137.380726 22.6650817,137.380726 21.1421779,135.857822 C19.619274,134.334918 19.619274,131.865803 21.1421779,130.3429 L24.4850774,127 L21.1421779,123.6571 C19.619274,122.134197 19.619274,119.665082 21.1421779,118.142178 C22.6650817,116.619274 25.1341966,116.619274 26.6571004,118.142178 L30,121.485077 Z" id="Close" fill="#1AC6BA"></path>
            <g id="ic/delete_forever/black" transform="translate(20.000000, 147.000000)">
                <g id="ic_delete_forever_24px">
                    <polygon id="Shape" points="0 0 24 0 24 24 0 24"></polygon>
                    <path d="M6,19 C6,20.1 6.9,21 8,21 L16,21 C17.1,21 18,20.1 18,19 L18,7 L6,7 L6,19 Z M8.46,11.88 L9.87,10.47 L12,12.59 L14.12,10.47 L15.53,11.88 L13.41,14 L15.53,16.12 L14.12,17.53 L12,15.41 L9.88,17.53 L8.47,16.12 L10.59,14 L8.46,11.88 Z M15.5,4 L14.5,3 L9.5,3 L8.5,4 L5,4 L5,6 L19,6 L19,4 L15.5,4 Z" id="Shape" fill="#000000" fill-rule="nonzero"></path>
                    <polygon id="Shape" points="0 0 24 0 24 24 0 24"></polygon>
                </g>
            </g>
            <g id="add3" transform="translate(20.000000, 181.000000)">
                <circle id="Oval" fill="#FF931E" cx="30" cy="30" r="30"></circle>
                <g id="ic/close/white" transform="translate(29.970563, 29.970563) rotate(-315.000000) translate(-29.970563, -29.970563) translate(17.970563, 17.970563)">
                    <g id="ic_close_24px">
                        <polygon id="Shape" fill="#FFFFFF" fill-rule="nonzero" points="19 6.41 17.59 5 12 10.59 6.41 5 5 6.41 10.59 12 5 17.59 6.41 19 12 13.41 17.59 19 19 17.59 13.41 12"></polygon>
                        <polygon id="Shape" points="0 0 24 0 24 24 0 24"></polygon>
                    </g>
                </g>
            </g>
            <g id="add2" transform="translate(20.000000, 251.000000)">
                <circle id="Oval" fill="#1AC6BA" cx="30" cy="30" r="30"></circle>
                <g id="ic/close/white" transform="translate(29.970563, 29.970563) rotate(-315.000000) translate(-29.970563, -29.970563) translate(17.970563, 17.970563)">
                    <g id="ic_close_24px">
                        <polygon id="Shape" fill="#FFFFFF" fill-rule="nonzero" points="19 6.41 17.59 5 12 10.59 6.41 5 5 6.41 10.59 12 5 17.59 6.41 19 12 13.41 17.59 19 19 17.59 13.41 12"></polygon>
                        <polygon id="Shape" points="0 0 24 0 24 24 0 24"></polygon>
                    </g>
                </g>
            </g>
            <g id="add1" transform="translate(20.000000, 321.000000)">
                <circle id="Oval" fill="#AF4396" cx="30" cy="30" r="30"></circle>
                <g id="ic/close/white" transform="translate(29.970563, 29.970563) rotate(-315.000000) translate(-29.970563, -29.970563) translate(17.970563, 17.970563)">
                    <g id="ic_close_24px">
                        <polygon id="Shape" fill="#FFFFFF" fill-rule="nonzero" points="19 6.41 17.59 5 12 10.59 6.41 5 5 6.41 10.59 12 5 17.59 6.41 19 12 13.41 17.59 19 19 17.59 13.41 12"></polygon>
                        <polygon id="Shape" points="0 0 24 0 24 24 0 24"></polygon>
                    </g>
                </g>
            </g>
            <g id="ic/event/grey600" transform="translate(20.000000, 391.000000)">
                <g id="ic_event_24px">
                    <path d="M17,12 L12,12 L12,17 L17,17 L17,12 Z M16,1 L16,3 L8,3 L8,1 L6,1 L6,3 L5,3 C3.89,3 3.01,3.9 3.01,5 L3,19 C3,20.1 3.89,21 5,21 L19,21 C20.1,21 21,20.1 21,19 L21,5 C21,3.9 20.1,3 19,3 L18,3 L18,1 L16,1 Z M19,19 L5,19 L5,8 L19,8 L19,19 Z" id="Shape" fill="#757575" fill-rule="nonzero"></path>
                    <polygon id="Shape" points="0 0 24 0 24 24 0 24"></polygon>
                </g>
            </g>
            <path d="M22,425 C20.9024,425 20,425.9024 20,427 L20,447 C20,448.0976 20.9024,449 22,449 L33,449 C34.0976,449 35,448.0976 35,447 L35,427 C35,425.9024 34.0976,425 33,425 L22,425 Z M22,426 L33,426 C33.5513,426 34,426.44865 34,427 L34,429 L21,429 L21,427 C21,426.44865 21.4487,426 22,426 Z M26.5,427 C26.223,427 26,427.223 26,427.5 C26,427.777 26.223,428 26.5,428 L28.5,428 C28.777,428 29,427.777 29,427.5 C29,427.223 28.777,427 28.5,427 L26.5,427 Z M21,430 L34,430 L34,444 L21,444 L21,430 Z M39.5,430.000976 C39.22385,430.000976 39,430.224827 39,430.500976 L39,432.000976 L38.5,432.000976 C38.223,432.000976 38,432.223976 38,432.500976 L38,436.500976 C38,437.571977 38.5725,438.564109 39.5,439.099609 C39.8138,439.280759 40.1533,439.394625 40.5,439.453125 C40.5,441.769125 38.761525,443.737917 36.515625,443.995117 L36.515625,443.507812 C36.515625,443.226513 36.2891625,443 36.0078125,443 C35.7265125,443 35.5,443.226513 35.5,443.507812 L35.5,445.492188 C35.5,445.773487 35.7265125,446 36.0078125,446 C36.2891625,446 36.515625,445.773487 36.515625,445.492188 L36.515625,444.999024 C39.305525,444.735924 41.5,442.310125 41.5,439.453125 C41.8467,439.394675 42.1862,439.280759 42.5,439.099609 C43.4275,438.564109 44,437.571977 44,436.500976 L44,432.500976 C44,432.223976 43.777,432.000976 43.5,432.000976 L43,432.000976 L43,430.500976 C43,430.223976 42.777,430.000976 42.5,430.000976 L39.5,430.000976 Z M40,431.000976 L42,431.000976 L42,432.000976 L41.5,432.000976 C41.223,432.000976 41,432.223976 41,432.500976 C41,432.777977 41.223,433.000976 41.5,433.000976 L43,433.000976 L43,436.500976 C43,437.216326 42.6195,437.875748 42,438.233399 C41.3805,438.591098 40.6195,438.591098 40,438.233399 C39.3805,437.875748 39,437.216326 39,436.500976 L39,433.000976 L39.5,433.000976 C39.777,433.000976 40,432.777977 40,432.500976 L40,431.000976 Z M27.5,434 C27.223,434 27,434.223 27,434.5 L27,436.5 L25,436.5 C24.723,436.5 24.5,436.723 24.5,437 C24.5,437.277 24.723,437.5 25,437.5 L27,437.5 L27,439.5 C27,439.777 27.223,440 27.5,440 C27.777,440 28,439.777 28,439.5 L28,437.5 L30,437.5 C30.277,437.5 30.5,437.277 30.5,437 C30.5,436.723 30.277,436.5 30,436.5 L28,436.5 L28,434.5 C28,434.223 27.777,434 27.5,434 Z M21,445 L34,445 L34,447 C34,447.55135 33.5513,448 33,448 L22,448 C21.4487,448 21,447.55135 21,447 L21,445 Z M27.5,446 C27.22385,446 27,446.22385 27,446.5 C27,446.77615 27.22385,447 27.5,447 C27.77615,447 28,446.77615 28,446.5 C28,446.22385 27.77615,446 27.5,446 Z" id="Shape2" fill="#A12384"></path>
            <path d="M22.9932998,459 C22.3882626,459 21.8395284,459.36602 21.6075525,459.924805 L20.1788363,464.137696 C19.8194749,465.184436 19.9961937,466.293951 20.7589165,467.110351 C21.0921123,467.466998 21.5227778,467.731475 22.0001321,467.875976 L22.0001321,479 C22.0001321,480.09935 22.9007854,481 24.0001395,481 L40.007035,481 C41.1063891,481 42.0070425,480.09935 42.0070425,479 C42.006901,478.821508 41.9116201,478.656629 41.7570415,478.567383 C41.6023405,478.478067 41.4117408,478.478067 41.2570397,478.567383 C41.1024611,478.656629 41.0071803,478.821508 41.0070388,479 C41.0070388,479.56265 40.5696871,480 40.007035,480 L24.0001395,480 C23.4374874,480 23.0001358,479.56265 23.0001358,479 L23.0001358,467.991211 C23.1430506,467.981911 23.28657,467.964641 23.4308015,467.932617 C24.0632038,467.792207 24.6248731,467.417586 25.0352994,466.819336 C25.1447698,466.962141 25.2691797,467.094221 25.4034652,467.212891 C25.9384522,467.685655 26.6543014,468.007225 27.4044492,468 C28.3454827,467.99095 29.1713427,467.477021 29.6808246,466.741211 C30.1854265,467.490291 31.0399707,467.99864 32.0001693,468 C32.9407728,468.0015 33.7970864,467.507041 34.3097483,466.775391 C34.8421503,467.539025 35.7324301,468.041015 36.7169838,468 C37.4498615,467.9695 38.1344186,467.635307 38.6417955,467.166992 C38.7501859,467.066952 38.8471212,466.954677 38.9386716,466.838867 C39.331853,467.396512 39.9139647,467.813004 40.6164123,467.940429 C40.7465113,467.964029 40.8770583,467.978925 41.0070388,467.985349 L41.0070388,468.999998 C41.0071803,469.17849 41.1024611,469.343369 41.2570397,469.432615 C41.4117408,469.521931 41.6023405,469.521931 41.7570415,469.432615 C41.9116201,469.343369 42.006901,469.17849 42.0070425,468.999998 L42.0070425,467.85742 C42.5146109,467.702076 42.9776886,467.410857 43.3341959,466.985349 C44.0018834,466.188429 44.1925701,465.079758 43.7912286,464.109373 L42.3966924,459.94043 C42.1649066,459.381735 41.6081695,459 41.0031322,459 L22.9932998,459 Z M22.9932731,460 L41.0029451,460 C41.205964,460 41.3843491,460.120374 41.4629037,460.305664 L42.8671934,464.491211 C43.1226271,465.108826 43.0028882,465.822973 42.5673904,466.342774 C42.1314027,466.863149 41.4872051,467.081635 40.7949386,466.956054 C40.1635019,466.84151 39.4551016,466.06153 39.4551016,465.5 C39.4549616,465.32151 39.3596821,465.156628 39.2051029,465.067383 C39.0504037,464.978068 38.8598047,464.978068 38.7051055,465.067383 C38.5505263,465.156628 38.4552468,465.32151 38.4551068,465.5 C38.4551068,465.779585 38.2906302,466.130147 37.9629219,466.432617 C37.6264786,466.743162 37.1332967,466.981937 36.675819,467.000976 C35.7685938,467.038776 34.8008288,466.231665 34.8008288,465.5 C34.8006888,465.32151 34.7054093,465.156628 34.5508301,465.067383 C34.3961309,464.978068 34.2055324,464.978068 34.0508327,465.067383 C33.896254,465.156628 33.8009745,465.32151 33.800834,465.5 C33.800834,466.216775 32.8570259,467.00105 32.0020153,467 C31.1174549,466.9985 30.1953842,466.133625 30.1953842,465.5 C30.1952442,465.32151 30.0999647,465.156628 29.9453855,465.067383 C29.7906863,464.978068 29.6000973,464.978068 29.4453881,465.067383 C29.2908189,465.156628 29.1955444,465.32151 29.1953894,465.5 C29.1953894,466.08786 28.214668,466.99212 27.3946172,467 C26.9406701,467.0045 26.4213058,466.777295 26.0655226,466.462891 C25.800454,466.228646 25.6194055,465.976341 25.5782207,465.738281 C25.5643707,465.658146 25.5607908,465.600081 25.5606408,465.503906 C25.5591408,465.326812 25.4640163,465.159834 25.3106421,465.071289 C25.1559429,464.981974 24.9653438,464.981974 24.8106446,465.071289 C24.6560653,465.160534 24.5607859,465.325416 24.5606459,465.503906 C24.5606459,466.107201 23.8347715,466.818435 23.2149497,466.956054 C22.5559131,467.102374 21.8957606,466.86273 21.4893727,466.427734 C20.9625224,465.863794 20.8589602,465.238151 21.1251188,464.462891 L22.532338,460.306641 C22.6104476,460.119791 22.7894492,460 22.9932731,460 Z M28.0000831,470.5 C27.7243265,470.5043 27.4963092,470.724234 27.5000857,471 L27.5000857,471.5 C26.677575,471.5 26.0000935,472.1775 26.0000935,473 C26.0000935,473.8225 26.677575,474.5 27.5000857,474.5 C27.9128285,474.50015 28.2645327,474.5 28.5069165,474.5 C28.78887,474.5 29.0000779,474.71785 29.0000779,475 C29.0000779,475.28215 28.782034,475.5 28.5000805,475.5 C28.405206,475.4995 26.5452307,475.4995 26.5000909,475.5 C26.3216018,475.50015 26.1567207,475.5954 26.0674761,475.75 C26.0231554,475.826767 26.0004275,475.914326 26.0000935,476 C25.9997545,476.086975 26.0224834,476.172067 26.0674761,476.25 C26.1567207,476.4046 26.3216018,476.49985 26.5000909,476.5 C26.5226408,476.50025 27.0154282,476.50006 27.5000857,476.5 L27.5000857,477 C27.5000857,477.343075 27.7479934,477.499599 28.0000831,477.5 C28.2527713,477.500402 28.5000805,477.34118 28.5000805,477 L28.5000805,476.5 C29.3225612,476.5 30.0000727,475.8225 30.0000727,475 C30.0000727,474.1775 29.3225612,473.5 28.5000805,473.5 L27.5000857,473.5 C27.2180372,473.5 27.0000883,473.2821 27.0000883,473 C27.0000883,472.7179 27.2180372,472.5 27.5000857,472.5 C27.5157356,472.5001 29.4574255,472.5 29.5000753,472.5 C29.6785644,472.49985 29.8434455,472.4046 29.9326901,472.25 C29.9770108,472.173233 29.9997387,472.085674 30.0000727,472 C30.0004117,471.913025 29.9776838,471.827933 29.9326901,471.75 C29.8434455,471.5954 29.6785644,471.50015 29.5000753,471.5 L28.5000805,471.5 L28.5000805,471 C28.5039305,470.718115 28.2819586,470.495597 28.0000831,470.5 Z M36.0000415,470.5 C34.750418,470.5 33.593619,471.16779 32.9688073,472.25 C32.3439955,473.33221 32.3439955,474.66779 32.9688073,475.75 C33.593619,476.83221 34.750418,477.5 36.0000415,477.5 L42.0068464,477.5 C43.1015357,477.5 44,476.601526 44,475.506836 L44,472.493164 C44,471.395614 43.0947397,470.5 42.0000104,470.5 L36.0000415,470.5 Z M36.0000415,471.5 L42.0000104,471.5 C42.5542725,471.5 43.0000052,471.941784 43.0000052,472.493164 L43.0000052,475.506836 C43.0000052,476.061081 42.5611085,476.5 42.0068464,476.5 L36.0000415,476.5 C35.1060812,476.5 34.2819965,476.024195 33.8350138,475.25 C33.3880361,474.475805 33.3880361,473.524195 33.8350138,472.75 C34.2819965,471.975805 35.1060812,471.5 36.0000415,471.5 Z M36.0000415,472.5 C35.1775408,472.5 34.5000493,473.177495 34.5000493,474 C34.5000493,474.822505 35.1775408,475.5 36.0000415,475.5 C36.8225423,475.5 37.5000338,474.822505 37.5000338,474 C37.5000338,473.177495 36.8225423,472.5 36.0000415,472.5 Z M36.0000415,473.5 C36.2821046,473.5 36.500039,473.717936 36.500039,474 C36.500039,474.282064 36.2821046,474.5 36.0000415,474.5 C35.7179785,474.5 35.5000441,474.282064 35.5000441,474 C35.5000441,473.717936 35.7179785,473.5 36.0000415,473.5 Z" id="Shape1" fill="#A12384"></path>
            <g id="Group2" transform="translate(23.000000, 491.000000)" fill="#000000" fill-rule="nonzero">
                <path d="M19.7926464,0.154775806 C18.8090705,0.154775806 17.8263505,0.407651976 16.9455133,0.916088983 C15.1851747,1.9326898 14.0933038,3.81849694 14.0917024,5.85126786 L11.816667,5.85126786 C9.31264803,5.85126786 7.25769257,7.90635315 7.25769257,10.4102423 L7.25769257,13.8294732 L4.97820533,13.8294732 C2.47418689,13.8294732 0.419230855,15.8845586 0.419230855,18.3884477 L0.419230855,51.4410126 C0.419230855,53.9449017 2.47418689,55.9999871 4.97820533,55.9999871 L36.8910266,55.9999871 C39.3950571,55.9999871 41.4500011,53.9449017 41.4500011,51.4410126 L41.4500011,48.9967971 C42.2296017,48.7944322 42.9546211,48.405008 43.5335949,47.8258883 L49.232313,42.1271702 C50.0870022,41.2724377 50.5680367,40.1125286 50.5679501,38.9038328 L50.5679501,34.3448583 L50.5679501,10.4102423 C50.5679501,7.90635315 48.5129946,5.85126786 46.0089756,5.85126786 L25.4935905,5.85126786 C25.491988,3.81849694 24.4001159,1.9326898 22.6397796,0.916088983 C21.7589857,0.407436678 20.7762213,0.154775806 19.7926464,0.154775806 Z M19.7970983,2.43648908 C20.3859275,2.43648908 20.9747498,2.58912559 21.5044878,2.89505785 C22.5626281,3.50613265 23.2102976,4.62905924 23.2118773,5.85126786 L16.3756415,5.85126786 L16.3734156,5.85126786 C16.3750158,4.62905821 17.0315241,3.5061331 18.0897088,2.89505785 C18.6194479,2.58912559 19.2082691,2.43648908 19.7970983,2.43648908 Z M11.816667,8.1307551 L14.0961543,8.1307551 L14.0961543,15.5346368 L14.0917024,15.5346368 C14.0917024,16.9581139 14.8624689,18.2820902 16.0951574,18.9939365 C17.3278472,19.7057394 18.8493445,19.7057394 20.0820342,18.9939365 C21.3146795,18.2820902 22.0765855,16.9581139 22.0765855,15.5346368 L22.0743596,15.5346368 L22.0743596,11.549986 C22.0743596,10.92046 21.5640554,10.4101131 20.934616,10.4102423 C20.3052188,10.4101131 19.7948724,10.92046 19.7948724,11.549986 L19.7948724,15.5390886 L19.7970983,15.5390886 C19.7955026,16.1502636 19.4666946,16.7116489 18.9378387,17.0171936 C18.407304,17.3234701 17.7609418,17.3234701 17.2304492,17.0171936 C16.7012059,16.7117788 16.375009,16.1502214 16.3734156,15.5390886 L16.3756415,15.5390886 L16.3756415,8.1307551 L46.0089756,8.1307551 C47.2812098,8.1307551 48.2884628,9.13805162 48.2884628,10.4102423 L48.2884628,34.3448583 L48.2884628,37.7640892 L43.7294884,37.7640892 C42.5207925,37.7640892 41.3608401,38.2429399 40.5061509,39.0975003 C39.651578,39.9522328 39.168288,41.1144978 39.168288,42.3230637 L39.168288,46.8820381 L35.751283,46.8820381 L35.7535089,49.1615254 L39.1705139,49.1615254 L39.1705139,51.4410126 C39.1705139,52.7132035 38.1632734,53.7204998 36.8910266,53.7204998 L4.97820533,53.7204998 C3.70597153,53.7204998 2.69871809,52.7132035 2.69871809,51.4410126 L2.69871809,18.3884477 C2.69871809,17.1162567 3.70597153,16.1089604 4.97820533,16.1089604 L7.25769257,16.1089604 L7.25769257,44.6025509 C7.25769257,47.10644 9.31264803,49.1615254 11.816667,49.1615254 L35.751283,49.1615254 L35.751283,46.8820381 L11.816667,46.8820381 C10.5444328,46.8820381 9.5371798,45.8747418 9.5371798,44.6025509 L9.5371798,10.4102423 C9.5371798,9.13805162 10.5444328,8.1307551 11.816667,8.1307551 Z M17.5153851,22.9474221 C16.8838771,22.9474221 16.3756415,23.4557444 16.3756415,24.0871658 C16.3756415,24.7185871 16.8838771,25.2269094 17.5153851,25.2269094 L23.2141032,25.2269094 C23.8455246,25.2269094 24.3538468,24.7185871 24.3538468,24.0871658 C24.3538468,23.4557444 23.8455246,22.9474221 23.2141032,22.9474221 L17.5153851,22.9474221 Z M27.7730777,22.9474221 C27.1416563,22.9474221 26.6333341,23.4557444 26.6333341,24.0871658 C26.6333341,24.7185871 27.1416563,25.2269094 27.7730777,25.2269094 L40.3102575,25.2269094 C40.9416789,25.2269094 41.4500011,24.7185871 41.4500011,24.0871658 C41.4500011,23.4557444 40.9416789,22.9474221 40.3102575,22.9474221 L27.7730777,22.9474221 Z M17.5153851,27.5063966 C16.8838771,27.5063966 16.3756415,28.0147188 16.3756415,28.6461402 C16.3756415,29.2775616 16.8838771,29.7858839 17.5153851,29.7858839 L30.0525649,29.7858839 C30.6839863,29.7858839 31.1923086,29.2775616 31.1923086,28.6461402 C31.1923086,28.0147188 30.6839863,27.5063966 30.0525649,27.5063966 L27.9155457,27.5063966 L17.5153851,27.5063966 Z M34.6115394,27.5063966 C33.9801169,27.5063966 33.4717958,28.0147188 33.4717958,28.6461402 C33.4717958,29.2775616 33.9801169,29.7858839 34.6115394,29.7858839 L40.3102575,29.7858839 C40.9416789,29.7858839 41.4500011,29.2775616 41.4500011,28.6461402 C41.4500011,28.0147188 40.9416789,27.5063966 40.3102575,27.5063966 L34.6115394,27.5063966 Z M17.5153851,32.0653711 C16.8838771,32.0653711 16.3756415,32.5736933 16.3756415,33.2051147 C16.3756415,33.8365361 16.8838771,34.3448583 17.5153851,34.3448583 L26.6333341,34.3448583 C27.2647555,34.3448583 27.7730777,33.8365361 27.7730777,33.2051147 C27.7730777,32.5736933 27.2647555,32.0653711 26.6333341,32.0653711 L17.5153851,32.0653711 Z M43.7294884,40.0435764 L47.9723618,40.0435764 C47.8741466,40.2128682 47.7619366,40.3721987 47.6206437,40.513275 L41.9219256,46.214219 C41.7810647,46.3555119 41.6195083,46.465496 41.4500011,46.5637112 L41.4500011,42.3208377 C41.4500011,41.7164442 41.6906637,41.1390285 42.1178202,40.7113955 C42.545574,40.2836406 43.1245113,40.0435764 43.7294884,40.0435764 Z" id="Shape"></path>
            </g>
            <g id="Group1" transform="translate(20.000000, 557.000000)" fill="#000000" fill-rule="nonzero">
                <g id="Group">
                    <path d="M8.93746563,6.18512505 C7.42589375,6.18512505 6.1875,7.39862905 6.1875,8.87986189 L6.1875,18.1535865 C5.76173125,17.2517895 4.9977125,16.2770324 4.03909688,16.0378139 C2.734875,15.6908463 1.13733125,16.713216 0.77350625,17.9009718 C0.588053125,18.5630046 0.70895,19.3163992 1.0742875,20.2378139 C2.86020625,24.4459385 5.0590375,28.4860328 7.73434063,31.5535865 C7.86225,31.6976775 8.05509375,31.7842863 8.24996563,31.7851655 L17.5311125,31.7851655 C17.6773781,31.7838181 17.82275,31.7349288 17.9392813,31.6483234 C18.9288344,30.9299806 19.7264031,29.7063512 20.3884656,28.2483234 C21.0505625,26.7902956 21.5573531,25.098944 21.8171594,23.4483234 C22.077,21.7977027 22.0759687,20.2520387 21.7097375,18.8799023 C21.3562938,17.5555975 20.4028688,16.453504 18.9812562,16.2904286 C18.6461688,16.2890813 18.2923469,16.3177802 17.9930094,16.3851486 C17.8166656,15.9720084 17.5695094,15.6196514 17.2625406,15.4062013 C16.7485312,15.0487613 16.2253438,14.9361954 15.8016375,14.9430434 C15.3948438,14.9497128 15.0239031,15.0948682 14.6952094,15.3219907 C14.5472938,15.1008067 14.3951844,14.870656 14.2010688,14.7325171 C13.691425,14.3698392 13.1492281,14.2693592 12.7186469,14.2693592 C12.3624875,14.2693592 12.0178094,14.3661507 11.6874313,14.5009381 L11.6874313,8.87984505 C11.6582125,7.07678989 10.2070719,6.18165558 8.93746563,6.18512505 Z M8.93746563,7.53249347 C9.71110938,7.53249347 10.3124313,8.12176842 10.3124313,8.87986189 L10.3124313,15.9535865 C10.3079625,16.2589272 10.5424,16.5517474 10.8461375,16.6200556 C11.149875,16.6883672 11.4911844,16.5250425 11.6229781,16.2483234 C11.7748469,15.9389305 12.34695,15.6167444 12.7186469,15.6167444 C12.8855031,15.6167444 13.19505,15.6846855 13.3954219,15.8272707 C13.5957938,15.969856 13.7498969,16.1367208 13.7498969,16.6272707 C13.7498969,16.9267604 13.9800031,17.2113011 14.2772094,17.2811015 C14.5744156,17.3509053 14.9106031,17.1992118 15.0496844,16.9325339 C15.3291875,16.3846501 15.4789594,16.2960741 15.8231219,16.2904286 C15.9183406,16.2887444 16.2520531,16.3510366 16.4676188,16.5009549 C16.6832188,16.6508733 16.8436125,16.8232185 16.8436125,17.3009549 C16.840175,17.5633314 17.0112594,17.8194223 17.2567656,17.9241229 C17.5023063,18.0288236 17.809275,17.9760472 18.0037344,17.7956918 C18.2644344,17.6697701 18.5201156,17.6315655 18.85235,17.6377971 C19.6720219,17.739968 20.0975156,18.2433179 20.3884656,19.2483234 C20.6821313,20.2625752 20.6930625,21.7122964 20.4529188,23.2377971 C20.2128094,24.7632977 19.7382281,26.3652109 19.1316469,27.7009549 C18.562775,28.9536977 17.8661656,29.9320253 17.2518156,30.4377971 L8.58299063,30.4377971 C6.16979688,27.6482223 3.86543438,23.364672 2.36331563,19.7535865 C2.05060625,18.9648876 2.02245313,18.5120101 2.09477813,18.2588497 C2.34956563,17.6072589 3.06243438,17.2394004 3.6738625,17.3325507 C4.4048125,17.602304 4.5859,18.0802392 4.8984375,18.6272707 L6.2627125,21.3114813 C6.40179375,21.5781592 6.73794688,21.7298526 7.0351875,21.6600488 C7.33239375,21.5902484 7.56184688,21.3057078 7.5625,21.0062181 L7.5625,8.87986189 C7.5625,8.12176842 8.16382188,7.53249347 8.93746563,7.53249347 Z" id="Shape"></path>
                    <path d="M3.78125,0.121997474 C3.6003,0.123681684 3.41539687,0.188631579 3.28710938,0.321957053 L0.193359375,3.35293979 C0.04324375,3.48788547 0.00721875,3.65704084 0,3.82652968 C0.00584375,4.01094063 0.0504625,4.15791832 0.193359375,4.30012295 L3.28710938,7.33110568 C3.5396625,7.60300463 4.00547812,7.59272758 4.26463125,7.34161516 C4.52385313,7.09051621 4.52595,6.63283874 4.26463125,6.38390905 L2.34179688,4.50006905 C6.73894375,4.50006905 11.1360563,4.50006905 15.5332031,4.50006905 L13.6103688,6.38390905 C13.3490156,6.63283874 13.3511125,7.09051621 13.6103688,7.34161516 C13.8694875,7.59271411 14.3366781,7.58983747 14.5878906,7.33110568 L17.6816406,4.30012295 C17.8245375,4.15791832 17.869225,4.01094063 17.875,3.82652968 C17.8677813,3.65704084 17.8317562,3.48788547 17.6816406,3.35293979 L14.5878906,0.321957053 C14.33135,0.0553094737 13.8694875,0.0603216842 13.6103688,0.311447579 C13.3512156,0.562546526 13.3490844,1.020224 13.6103688,1.26915368 L15.5332031,3.15299368 C11.1360563,3.15299368 6.73894375,3.15299368 2.34179688,3.15299368 L4.26463125,1.26913684 C4.52591562,1.02020716 4.52378437,0.562529684 4.26463125,0.311430737 C4.13507187,0.185876211 3.9622,0.120256 3.78125,0.121994105 L3.78125,0.121997474 Z" id="Shape"></path>
                </g>
            </g>
            <path d="M21.0751672,599.001305 C20.4533838,599.0685 19.9868302,599.591715 20.0002837,600.206729 L20.0002837,635.81312 C20.0003502,636.468589 20.5406529,636.999935 21.2071705,637 L47.7586794,637 C48.425197,636.999935 48.9654996,636.468589 48.9655662,635.81312 L48.9655662,633.439361 L53.7931132,633.439361 C54.4596308,633.439295 54.9999335,632.90795 55,632.252481 L55,626.318083 C54.9999335,625.662614 54.4596308,625.131268 53.7931132,625.131203 L48.9655662,625.131203 L48.9655662,622.164004 L53.7931132,622.164004 C54.4596308,622.163938 54.9999335,621.632592 55,620.977124 L55,615.042726 C54.9999335,614.387257 54.4596308,613.855911 53.7931132,613.855846 L48.9655662,613.855846 L48.9655662,610.888647 L53.7931132,610.888647 C54.4596308,610.888581 54.9999335,610.357235 55,609.701767 L55,603.767368 C54.9999335,603.1119 54.4596308,602.580554 53.7931132,602.580489 L48.9655662,602.580489 L48.9655662,600.206729 C48.9654996,599.551261 48.425197,599.019915 47.7586794,599.01985 L26.0347175,599.01985 C25.5994749,599.013802 25.1946367,599.238688 24.9752209,599.608396 C24.7558051,599.978104 24.7558051,600.435355 24.9752209,600.805063 C25.1946367,601.17477 25.5994749,601.399656 26.0347175,601.393609 L46.5517926,601.393609 L46.5517926,634.626241 L22.4140572,634.626241 L22.4140572,600.206729 C22.4191683,599.885516 22.2916697,599.575983 22.0606808,599.348823 C21.8296918,599.121663 21.5149405,598.996278 21.1883129,599.001305 C21.1506184,598.999565 21.1128617,598.999565 21.0751672,599.001305 Z M48.9655662,604.954248 L52.5862265,604.954248 L52.5862265,608.514887 L48.9655662,608.514887 L48.9655662,604.954248 Z M34.4829249,607.921447 C31.8310393,607.921447 29.6553779,610.061042 29.6553779,612.668966 C29.6553779,615.27689 31.8310393,617.416485 34.4829249,617.416485 C37.1348106,617.416485 39.310472,615.27689 39.310472,612.668966 C39.310472,610.061042 37.1348106,607.921447 34.4829249,607.921447 Z M34.4829249,610.295207 C35.8303114,610.295207 36.8966985,611.343917 36.8966985,612.668966 C36.8966985,613.994016 35.8303114,615.042726 34.4829249,615.042726 C33.1355384,615.042726 32.0691514,613.994016 32.0691514,612.668966 C32.0691514,611.343917 33.1355384,610.295207 34.4829249,610.295207 Z M48.9655662,616.229605 L52.5862265,616.229605 L52.5862265,619.790244 L48.9655662,619.790244 L48.9655662,616.229605 Z M34.4829249,618.603365 C29.5482974,618.603365 25.4312742,622.28366 25.4312742,626.911523 C25.4313408,627.566991 25.9716434,628.098337 26.6381609,628.098402 L42.3276889,628.098402 C42.9942065,628.098337 43.5345091,627.566991 43.5345757,626.911523 C43.5345757,622.283658 39.4175428,618.603365 34.4829249,618.603365 Z M34.4829249,620.977124 C37.7319371,620.977124 40.2334296,623.057512 40.8567957,625.724643 L28.1090542,625.724643 C28.732419,623.057512 31.2339013,620.977124 34.4829249,620.977124 Z M48.9655662,627.504962 L52.5862265,627.504962 L52.5862265,631.065601 L48.9655662,631.065601 L48.9655662,627.504962 Z" id="Shape3" fill="#FF931E" fill-rule="nonzero"></path>
            <path d="M33.9994027,666.480732 C35.2758768,666.480732 36.31402,665.434229 36.31402,664.147476 C36.31402,662.860723 35.2758768,661.81422 33.9994027,661.81422 C32.7235259,661.81422 31.6853827,662.860723 31.6853827,664.147476 C31.6853827,665.434229 32.7235259,666.480732 33.9994027,666.480732 Z M24.2176807,650.748865 L24.2176807,650.236452 L43.7823193,650.236452 L43.7823193,650.788004 L43.7823193,651.440713 L43.7823193,671.83849 C43.7823193,672.479157 43.2650397,673 42.6300879,673 L25.3693148,673 C24.734363,673 24.2176807,672.478555 24.2176807,671.83849 L24.2176807,651.440713 L24.2176807,650.748865 Z M42.5876781,671.795739 L42.5876781,669.272209 C41.3392781,669.521491 40.3644509,670.524039 40.1571806,671.795739 L42.5876781,671.795739 Z M29.5374179,651.440713 C29.2417442,652.076563 29.0721051,652.78226 29.0715078,653.529504 C29.0715078,656.268597 31.2821913,658.497082 33.9988054,658.497082 C36.7160167,658.497082 38.9267002,656.268597 38.9267002,653.529504 C38.9267002,652.78226 38.7564639,652.076563 38.4613875,651.440713 L29.5374179,651.440713 Z M33.9994027,663.018481 C34.6170322,663.018481 35.1193788,663.524873 35.1193788,664.147476 C35.1193788,664.770079 34.6170322,665.276471 33.9994027,665.276471 C33.3817732,665.276471 32.8800239,664.770079 32.8800239,664.147476 C32.8800239,663.524873 33.3817732,663.018481 33.9994027,663.018481 Z M25.4123219,651.440713 L25.4123219,668.039046 C27.3237478,668.310005 28.8307876,669.855674 29.0547828,671.795739 L38.9446198,671.795739 C39.1686151,669.856276 40.6762522,668.307596 42.5876781,668.037239 L42.5876781,651.440713 L39.748016,651.440713 C39.9839577,652.094627 40.1219387,652.794303 40.1219387,653.529504 C40.1219387,656.932747 37.3754587,659.701343 33.9994027,659.701343 C30.623944,659.701343 27.8774639,656.932747 27.8774639,653.529504 C27.8774639,652.794303 28.017237,652.094627 28.2531786,651.440713 L25.4123219,651.440713 Z M25.4123219,669.261371 L25.4123219,671.795739 L27.8410274,671.795739 C27.6349518,670.522233 26.6619165,669.511255 25.4123219,669.261371 Z M43.6317945,647 C46.0401911,647 48,648.974988 48,651.403381 C48,653.54817 46.470262,655.337101 44.4531103,655.726077 L44.4531103,654.480269 C45.8036522,654.112969 46.8053588,652.879805 46.8053588,651.403983 C46.8053588,649.639741 45.3819439,648.204863 43.6317945,648.204863 L24.3682055,648.204863 C22.6180561,648.204863 21.1946412,649.640343 21.1946412,651.403983 C21.1946412,652.879203 22.1963478,654.112969 23.5468897,654.480269 L23.5468897,655.726077 C21.529738,655.337101 20,653.54817 20,651.403381 C20,648.974988 21.9598089,647 24.3682055,647 L43.6317945,647 Z" id="Shape7" fill="#FF931E" fill-rule="nonzero"></path>
            <path d="M53.7692721,703.651846 C58.2893521,699.1858 59.3805969,697.891212 58.8931373,696.359188 C58.4056777,694.827164 56.7715802,694.437092 50.5453916,693.532576 C49.1494845,693.32906 47.2882751,693.057705 46.5681643,692.865496 C46.1637944,692.226682 45.3384367,690.508102 44.7180335,689.213513 C41.9483767,683.469838 41.0731651,682 39.5,682 C37.9268349,682 37.0516233,683.469838 34.2819665,689.219167 C33.6615633,690.513755 32.8362056,692.226682 32.4318357,692.871149 C31.7117249,693.063359 29.8505155,693.334713 28.4546084,693.538229 C22.2284198,694.442745 20.5943223,694.838471 20.1068627,696.364841 C19.6194031,697.891212 20.7106479,699.191453 25.2307279,703.6575 C26.2444223,704.65812 27.5904755,705.986628 28.0668565,706.574563 C28.022542,707.337748 27.7012618,709.220272 27.457532,710.633578 C26.3496692,716.948228 26.238883,718.655502 27.5184644,719.59959 C28.7980459,720.543679 30.3379751,719.887905 35.8994461,716.886043 C37.1457917,716.213309 38.8075858,715.314447 39.5055393,715.037439 C40.2034928,715.314447 41.8597476,716.207656 43.1060932,716.88039 C47.127635,719.051228 49.0497769,719.995316 50.3072011,719.995316 C50.7405113,720.001975 51.1635815,719.860705 51.5092321,719.593937 C52.7832743,718.649849 52.6503308,716.942575 51.5701646,710.627924 C51.3264348,709.214618 51.0162332,707.332095 50.9608401,706.56891 C51.4095245,705.980975 52.7555777,704.652467 53.7692721,703.651846 Z M47.6871057,705.51741 C47.4322972,706.325821 47.5707801,707.388627 48.241037,711.244126 C48.4792275,712.640472 48.8282043,714.675632 48.9777658,716.088938 C47.7092629,715.523616 45.9145253,714.539955 44.6847976,713.872875 C41.283659,712.018617 40.3308971,711.555053 39.5,711.555053 C38.6691029,711.555053 37.716341,712.018617 34.326281,713.850262 C33.0965533,714.511689 31.3018157,715.484043 30.0333129,716.066325 C30.1828743,714.658673 30.5318511,712.623512 30.7700416,711.227166 C31.4292199,707.371668 31.5677028,706.303208 31.323973,705.494797 C31.0802431,704.686386 30.3379751,703.911895 27.5793969,701.187041 C26.5712418,700.197727 25.0977843,698.733542 24.1837976,697.710308 C25.5464687,697.421994 27.5517003,697.144986 28.9309894,696.930164 C32.7309586,696.364841 33.7723496,696.183938 34.4426066,695.686454 C35.1128635,695.188971 35.6224804,694.244882 37.2842745,690.728577 C37.8991383,689.456602 38.7909678,687.596691 39.5,686.364289 C40.1924142,687.596691 41.0842437,689.456602 41.7157255,690.728577 C43.4052162,694.244882 43.931451,695.188971 44.5795507,695.686454 C45.2276504,696.183938 46.2911986,696.376148 50.1188644,696.930164 C51.4981535,697.128026 53.5033851,697.421994 54.8660563,697.710308 C53.9022157,698.733542 52.4287582,700.197727 51.4261424,701.187041 C48.6731035,703.906241 47.9419141,704.686386 47.6871057,705.51741 Z" id="Shape8" fill="#FF931E" fill-rule="nonzero"></path>
            <g id="ic/remove_circle_outline/grey600" opacity="0.4" transform="translate(20.000000, 730.000000)">
                <g id="ic_remove_circle_outline_24px">
                    <polygon id="Shape" points="0 0 20 0 20 20 0 20"></polygon>
                    <path d="M5.83333333,9.16666667 L5.83333333,10.8333333 L14.1666667,10.8333333 L14.1666667,9.16666667 L5.83333333,9.16666667 Z M10,1.66666667 C5.4,1.66666667 1.66666667,5.4 1.66666667,10 C1.66666667,14.6 5.4,18.3333333 10,18.3333333 C14.6,18.3333333 18.3333333,14.6 18.3333333,10 C18.3333333,5.4 14.6,1.66666667 10,1.66666667 Z M10,16.6666667 C6.325,16.6666667 3.33333333,13.675 3.33333333,10 C3.33333333,6.325 6.325,3.33333333 10,3.33333333 C13.675,3.33333333 16.6666667,6.325 16.6666667,10 C16.6666667,13.675 13.675,16.6666667 10,16.6666667 Z" id="Shape" fill="#757575" fill-rule="nonzero"></path>
                </g>
            </g>
            <g id="ic/circles_add/grey600" opacity="0.4" transform="translate(20.000000, 760.000000)">
                <g id="ic_circles_add_24px">
                    <path d="M10,1.66666667 C5.4,1.66666667 1.66666667,5.4 1.66666667,10 C1.66666667,14.6 5.4,18.3333333 10,18.3333333 C14.6,18.3333333 18.3333333,14.6 18.3333333,10 C18.3333333,5.4 14.6,1.66666667 10,1.66666667 Z M10,16.6666667 C6.31666667,16.6666667 3.33333333,13.6833333 3.33333333,10 C3.33333333,6.31666667 6.31666667,3.33333333 10,3.33333333 C13.6833333,3.33333333 16.6666667,6.31666667 16.6666667,10 C16.6666667,13.6833333 13.6833333,16.6666667 10,16.6666667 Z" id="Shape" fill="#757575" fill-rule="nonzero"></path>
                    <polygon id="Shape" points="0 0 20 0 20 20 0 20"></polygon>
                    <polygon id="Shape" fill="#757575" fill-rule="nonzero" points="10.8333333 9.16666667 10.8333333 6.66666667 9.16666667 6.66666667 9.16666667 9.16666667 6.66666667 9.16666667 6.66666667 10.8333333 9.16666667 10.8333333 9.16666667 13.3333333 10.8333333 13.3333333 10.8333333 10.8333333 13.3333333 10.8333333 13.3333333 9.16666667"></polygon>
                </g>
            </g>
        </g>
    </g>
</svg>