<?xml version="1.0" encoding="UTF-8"?>
<svg width="51px" height="56px" viewBox="0 0 51 56" version="1.1" xmlns="http://www.w3.org/2000/svg" xmlns:xlink="http://www.w3.org/1999/xlink">
    <!-- Generator: Sketch 48.2 (47327) - http://www.bohemiancoding.com/sketch -->
    <title>Group2</title>
    <desc>Created with Sketch.</desc>
    <defs></defs>
    <g id="Artboard" stroke="none" stroke-width="1" fill="none" fill-rule="evenodd" transform="translate(-405.000000, -191.000000)">
        <g id="Group2" transform="translate(402.000000, 191.000000)" fill="#000000" fill-rule="nonzero">
            <path d="M22.7926464,0.154775806 C21.8090705,0.154775806 20.8263505,0.407651976 19.9455133,0.916088983 C18.1851747,1.9326898 17.0933038,3.81849694 17.0917024,5.85126786 L14.816667,5.85126786 C12.312648,5.85126786 10.2576926,7.90635315 10.2576926,10.4102423 L10.2576926,13.8294732 L7.97820533,13.8294732 C5.47418689,13.8294732 3.41923086,15.8845586 3.41923086,18.3884477 L3.41923086,51.4410126 C3.41923086,53.9449017 5.47418689,55.9999871 7.97820533,55.9999871 L39.8910266,55.9999871 C42.3950571,55.9999871 44.4500011,53.9449017 44.4500011,51.4410126 L44.4500011,48.9967971 C45.2296017,48.7944322 45.9546211,48.405008 46.5335949,47.8258883 L52.232313,42.1271702 C53.0870022,41.2724377 53.5680367,40.1125286 53.5679501,38.9038328 L53.5679501,34.3448583 L53.5679501,10.4102423 C53.5679501,7.90635315 51.5129946,5.85126786 49.0089756,5.85126786 L28.4935905,5.85126786 C28.491988,3.81849694 27.4001159,1.9326898 25.6397796,0.916088983 C24.7589857,0.407436678 23.7762213,0.154775806 22.7926464,0.154775806 Z M22.7970983,2.43648908 C23.3859275,2.43648908 23.9747498,2.58912559 24.5044878,2.89505785 C25.5626281,3.50613265 26.2102976,4.62905924 26.2118773,5.85126786 L19.3756415,5.85126786 L19.3734156,5.85126786 C19.3750158,4.62905821 20.0315241,3.5061331 21.0897088,2.89505785 C21.6194479,2.58912559 22.2082691,2.43648908 22.7970983,2.43648908 Z M14.816667,8.1307551 L17.0961543,8.1307551 L17.0961543,15.5346368 L17.0917024,15.5346368 C17.0917024,16.9581139 17.8624689,18.2820902 19.0951574,18.9939365 C20.3278472,19.7057394 21.8493445,19.7057394 23.0820342,18.9939365 C24.3146795,18.2820902 25.0765855,16.9581139 25.0765855,15.5346368 L25.0743596,15.5346368 L25.0743596,11.549986 C25.0743596,10.92046 24.5640554,10.4101131 23.934616,10.4102423 C23.3052188,10.4101131 22.7948724,10.92046 22.7948724,11.549986 L22.7948724,15.5390886 L22.7970983,15.5390886 C22.7955026,16.1502636 22.4666946,16.7116489 21.9378387,17.0171936 C21.407304,17.3234701 20.7609418,17.3234701 20.2304492,17.0171936 C19.7012059,16.7117788 19.375009,16.1502214 19.3734156,15.5390886 L19.3756415,15.5390886 L19.3756415,8.1307551 L49.0089756,8.1307551 C50.2812098,8.1307551 51.2884628,9.13805162 51.2884628,10.4102423 L51.2884628,34.3448583 L51.2884628,37.7640892 L46.7294884,37.7640892 C45.5207925,37.7640892 44.3608401,38.2429399 43.5061509,39.0975003 C42.651578,39.9522328 42.168288,41.1144978 42.168288,42.3230637 L42.168288,46.8820381 L38.751283,46.8820381 L38.7535089,49.1615254 L42.1705139,49.1615254 L42.1705139,51.4410126 C42.1705139,52.7132035 41.1632734,53.7204998 39.8910266,53.7204998 L7.97820533,53.7204998 C6.70597153,53.7204998 5.69871809,52.7132035 5.69871809,51.4410126 L5.69871809,18.3884477 C5.69871809,17.1162567 6.70597153,16.1089604 7.97820533,16.1089604 L10.2576926,16.1089604 L10.2576926,44.6025509 C10.2576926,47.10644 12.312648,49.1615254 14.816667,49.1615254 L38.751283,49.1615254 L38.751283,46.8820381 L14.816667,46.8820381 C13.5444328,46.8820381 12.5371798,45.8747418 12.5371798,44.6025509 L12.5371798,10.4102423 C12.5371798,9.13805162 13.5444328,8.1307551 14.816667,8.1307551 Z M20.5153851,22.9474221 C19.8838771,22.9474221 19.3756415,23.4557444 19.3756415,24.0871658 C19.3756415,24.7185871 19.8838771,25.2269094 20.5153851,25.2269094 L26.2141032,25.2269094 C26.8455246,25.2269094 27.3538468,24.7185871 27.3538468,24.0871658 C27.3538468,23.4557444 26.8455246,22.9474221 26.2141032,22.9474221 L20.5153851,22.9474221 Z M30.7730777,22.9474221 C30.1416563,22.9474221 29.6333341,23.4557444 29.6333341,24.0871658 C29.6333341,24.7185871 30.1416563,25.2269094 30.7730777,25.2269094 L43.3102575,25.2269094 C43.9416789,25.2269094 44.4500011,24.7185871 44.4500011,24.0871658 C44.4500011,23.4557444 43.9416789,22.9474221 43.3102575,22.9474221 L30.7730777,22.9474221 Z M20.5153851,27.5063966 C19.8838771,27.5063966 19.3756415,28.0147188 19.3756415,28.6461402 C19.3756415,29.2775616 19.8838771,29.7858839 20.5153851,29.7858839 L33.0525649,29.7858839 C33.6839863,29.7858839 34.1923086,29.2775616 34.1923086,28.6461402 C34.1923086,28.0147188 33.6839863,27.5063966 33.0525649,27.5063966 L30.9155457,27.5063966 L20.5153851,27.5063966 Z M37.6115394,27.5063966 C36.9801169,27.5063966 36.4717958,28.0147188 36.4717958,28.6461402 C36.4717958,29.2775616 36.9801169,29.7858839 37.6115394,29.7858839 L43.3102575,29.7858839 C43.9416789,29.7858839 44.4500011,29.2775616 44.4500011,28.6461402 C44.4500011,28.0147188 43.9416789,27.5063966 43.3102575,27.5063966 L37.6115394,27.5063966 Z M20.5153851,32.0653711 C19.8838771,32.0653711 19.3756415,32.5736933 19.3756415,33.2051147 C19.3756415,33.8365361 19.8838771,34.3448583 20.5153851,34.3448583 L29.6333341,34.3448583 C30.2647555,34.3448583 30.7730777,33.8365361 30.7730777,33.2051147 C30.7730777,32.5736933 30.2647555,32.0653711 29.6333341,32.0653711 L20.5153851,32.0653711 Z M46.7294884,40.0435764 L50.9723618,40.0435764 C50.8741466,40.2128682 50.7619366,40.3721987 50.6206437,40.513275 L44.9219256,46.214219 C44.7810647,46.3555119 44.6195083,46.465496 44.4500011,46.5637112 L44.4500011,42.3208377 C44.4500011,41.7164442 44.6906637,41.1390285 45.1178202,40.7113955 C45.545574,40.2836406 46.1245113,40.0435764 46.7294884,40.0435764 Z" id="Shape"></path>
        </g>
    </g>
</svg>