<?xml version="1.0" encoding="UTF-8"?>
<svg width="24px" height="24px" viewBox="0 0 24 24" version="1.1" xmlns="http://www.w3.org/2000/svg" xmlns:xlink="http://www.w3.org/1999/xlink">
    <!-- Generator: Sketch 48.2 (47327) - http://www.bohemiancoding.com/sketch -->
    <title>Shape2</title>
    <desc>Created with Sketch.</desc>
    <defs></defs>
    <g id="Artboard" stroke="none" stroke-width="1" fill="none" fill-rule="evenodd" transform="translate(-93.000000, -170.000000)">
        <path d="M95,170 C93.9024,170 93,170.9024 93,172 L93,192 C93,193.0976 93.9024,194 95,194 L106,194 C107.0976,194 108,193.0976 108,192 L108,172 C108,170.9024 107.0976,170 106,170 L95,170 Z M95,171 L106,171 C106.5513,171 107,171.44865 107,172 L107,174 L94,174 L94,172 C94,171.44865 94.4487,171 95,171 Z M99.5,172 C99.223,172 99,172.223 99,172.5 C99,172.777 99.223,173 99.5,173 L101.5,173 C101.777,173 102,172.777 102,172.5 C102,172.223 101.777,172 101.5,172 L99.5,172 Z M94,175 L107,175 L107,189 L94,189 L94,175 Z M112.5,175.000977 C112.22385,175.000977 112,175.224827 112,175.500977 L112,177.000977 L111.5,177.000977 C111.223,177.000977 111,177.223976 111,177.500977 L111,181.500977 C111,182.571977 111.5725,183.56411 112.5,184.099609 C112.8138,184.280759 113.1533,184.394625 113.5,184.453125 C113.5,186.769125 111.761525,188.737917 109.515625,188.995117 L109.515625,188.507812 C109.515625,188.226513 109.289163,188 109.007812,188 C108.726512,188 108.5,188.226513 108.5,188.507812 L108.5,190.492188 C108.5,190.773487 108.726512,191 109.007812,191 C109.289163,191 109.515625,190.773487 109.515625,190.492188 L109.515625,189.999023 C112.305525,189.735924 114.5,187.310125 114.5,184.453125 C114.8467,184.394675 115.1862,184.280759 115.5,184.099609 C116.4275,183.56411 117,182.571977 117,181.500977 L117,177.500977 C117,177.223976 116.777,177.000977 116.5,177.000977 L116,177.000977 L116,175.500977 C116,175.223976 115.777,175.000977 115.5,175.000977 L112.5,175.000977 Z M113,176.000977 L115,176.000977 L115,177.000977 L114.5,177.000977 C114.223,177.000977 114,177.223976 114,177.500977 C114,177.777976 114.223,178.000977 114.5,178.000977 L116,178.000977 L116,181.500977 C116,182.216327 115.6195,182.875748 115,183.233398 C114.3805,183.591098 113.6195,183.591098 113,183.233398 C112.3805,182.875748 112,182.216327 112,181.500977 L112,178.000977 L112.5,178.000977 C112.777,178.000977 113,177.777976 113,177.500977 L113,176.000977 Z M100.5,179 C100.223,179 100,179.223 100,179.5 L100,181.5 L98,181.5 C97.723,181.5 97.5,181.723 97.5,182 C97.5,182.277 97.723,182.5 98,182.5 L100,182.5 L100,184.5 C100,184.777 100.223,185 100.5,185 C100.777,185 101,184.777 101,184.5 L101,182.5 L103,182.5 C103.277,182.5 103.5,182.277 103.5,182 C103.5,181.723 103.277,181.5 103,181.5 L101,181.5 L101,179.5 C101,179.223 100.777,179 100.5,179 Z M94,190 L107,190 L107,192 C107,192.55135 106.5513,193 106,193 L95,193 C94.4487,193 94,192.55135 94,192 L94,190 Z M100.5,191 C100.22385,191 100,191.22385 100,191.5 C100,191.77615 100.22385,192 100.5,192 C100.77615,192 101,191.77615 101,191.5 C101,191.22385 100.77615,191 100.5,191 Z" id="Shape2" fill="#A12384"></path>
    </g>
</svg>