<?xml version="1.0" encoding="UTF-8"?>
<svg width="24px" height="22px" viewBox="0 0 24 22" version="1.1" xmlns="http://www.w3.org/2000/svg" xmlns:xlink="http://www.w3.org/1999/xlink">
    <!-- Generator: Sketch 48.2 (47327) - http://www.bohemiancoding.com/sketch -->
    <title>Shape1</title>
    <desc>Created with Sketch.</desc>
    <defs></defs>
    <g id="Artboard" stroke="none" stroke-width="1" fill="none" fill-rule="evenodd" transform="translate(-93.000000, -236.000000)">
        <path d="M95.9932998,236 C95.3882626,236 94.8395284,236.36602 94.6075525,236.924805 L93.1788363,241.137696 C92.8194749,242.184436 92.9961937,243.293951 93.7589165,244.110352 C94.0921123,244.466998 94.5227778,244.731475 95.0001321,244.875977 L95.0001321,256 C95.0001321,257.09935 95.9007854,258 97.0001395,258 L113.007035,258 C114.106389,258 115.007042,257.09935 115.007042,256 C115.006901,255.821508 114.91162,255.656629 114.757042,255.567383 C114.60234,255.478067 114.411741,255.478067 114.25704,255.567383 C114.102461,255.656629 114.00718,255.821508 114.007039,256 C114.007039,256.56265 113.569687,257 113.007035,257 L97.0001395,257 C96.4374874,257 96.0001358,256.56265 96.0001358,256 L96.0001358,244.991211 C96.1430506,244.981911 96.28657,244.964641 96.4308015,244.932617 C97.0632038,244.792207 97.6248731,244.417586 98.0352994,243.819336 C98.1447698,243.962141 98.2691797,244.094221 98.4034652,244.212891 C98.9384522,244.685655 99.6543014,245.007225 100.404449,245 C101.345483,244.99095 102.171343,244.477021 102.680825,243.741211 C103.185427,244.490291 104.039971,244.99864 105.000169,245 C105.940773,245.0015 106.797086,244.50704 107.309748,243.775391 C107.84215,244.539026 108.73243,245.041015 109.716984,245 C110.449862,244.9695 111.134419,244.635307 111.641795,244.166992 C111.750186,244.066952 111.847121,243.954677 111.938672,243.838867 C112.331853,244.396512 112.913965,244.813005 113.616412,244.940429 C113.746511,244.96403 113.877058,244.978925 114.007039,244.98535 L114.007039,245.999998 C114.00718,246.17849 114.102461,246.343369 114.25704,246.432615 C114.411741,246.521931 114.60234,246.521931 114.757042,246.432615 C114.91162,246.343369 115.006901,246.17849 115.007042,245.999998 L115.007042,244.85742 C115.514611,244.702077 115.977689,244.410856 116.334196,243.98535 C117.001883,243.18843 117.19257,242.079758 116.791229,241.109373 L115.396692,236.94043 C115.164907,236.381735 114.608169,236 114.003132,236 L95.9932998,236 Z M95.9932731,237 L114.002945,237 C114.205964,237 114.384349,237.120374 114.462904,237.305664 L115.867193,241.491211 C116.122627,242.108826 116.002888,242.822973 115.56739,243.342773 C115.131403,243.863148 114.487205,244.081635 113.794939,243.956054 C113.163502,243.84151 112.455102,243.06153 112.455102,242.5 C112.454962,242.32151 112.359682,242.156628 112.205103,242.067383 C112.050404,241.978068 111.859805,241.978068 111.705105,242.067383 C111.550526,242.156628 111.455247,242.32151 111.455107,242.5 C111.455107,242.779585 111.29063,243.130147 110.962922,243.432617 C110.626479,243.743162 110.133297,243.981936 109.675819,244.000977 C108.768594,244.038777 107.800829,243.231665 107.800829,242.5 C107.800689,242.32151 107.705409,242.156628 107.55083,242.067383 C107.396131,241.978068 107.205532,241.978068 107.050833,242.067383 C106.896254,242.156628 106.800974,242.32151 106.800834,242.5 C106.800834,243.216775 105.857026,244.00105 105.002015,244 C104.117455,243.9985 103.195384,243.133625 103.195384,242.5 C103.195244,242.32151 103.099965,242.156628 102.945385,242.067383 C102.790686,241.978068 102.600097,241.978068 102.445388,242.067383 C102.290819,242.156628 102.195544,242.32151 102.195389,242.5 C102.195389,243.08786 101.214668,243.99212 100.394617,244 C99.9406701,244.0045 99.4213058,243.777296 99.0655226,243.462891 C98.800454,243.228645 98.6194055,242.976341 98.5782207,242.738281 C98.5643707,242.658146 98.5607908,242.600081 98.5606408,242.503906 C98.5591408,242.326811 98.4640163,242.159834 98.3106421,242.071289 C98.1559429,241.981974 97.9653438,241.981974 97.8106446,242.071289 C97.6560653,242.160534 97.5607859,242.325416 97.5606459,242.503906 C97.5606459,243.107201 96.8347715,243.818434 96.2149497,243.956054 C95.5559131,244.102374 94.8957606,243.86273 94.4893727,243.427734 C93.9625224,242.863795 93.8589602,242.23815 94.1251188,241.462891 L95.532338,237.306641 C95.6104476,237.119791 95.7894492,237 95.9932731,237 Z M101.000083,247.5 C100.724327,247.5043 100.496309,247.724234 100.500086,248 L100.500086,248.5 C99.677575,248.5 99.0000935,249.1775 99.0000935,250 C99.0000935,250.8225 99.677575,251.5 100.500086,251.5 C100.912829,251.50015 101.264533,251.5 101.506916,251.5 C101.78887,251.5 102.000078,251.71785 102.000078,252 C102.000078,252.28215 101.782034,252.5 101.50008,252.5 C101.405206,252.4995 99.5452307,252.4995 99.5000909,252.5 C99.3216018,252.50015 99.1567207,252.5954 99.0674761,252.75 C99.0231554,252.826767 99.0004275,252.914326 99.0000935,253 C98.9997545,253.086975 99.0224834,253.172067 99.0674761,253.25 C99.1567207,253.4046 99.3216018,253.49985 99.5000909,253.5 C99.5226408,253.50025 100.015428,253.50006 100.500086,253.5 L100.500086,254 C100.500086,254.343075 100.747993,254.499599 101.000083,254.5 C101.252771,254.500402 101.50008,254.34118 101.50008,254 L101.50008,253.5 C102.322561,253.5 103.000073,252.8225 103.000073,252 C103.000073,251.1775 102.322561,250.5 101.50008,250.5 L100.500086,250.5 C100.218037,250.5 100.000088,250.2821 100.000088,250 C100.000088,249.7179 100.218037,249.5 100.500086,249.5 C100.515736,249.5001 102.457426,249.5 102.500075,249.5 C102.678564,249.49985 102.843446,249.4046 102.93269,249.25 C102.977011,249.173233 102.999739,249.085674 103.000073,249 C103.000412,248.913025 102.977684,248.827933 102.93269,248.75 C102.843446,248.5954 102.678564,248.50015 102.500075,248.5 L101.50008,248.5 L101.50008,248 C101.50393,247.718115 101.281959,247.495598 101.000083,247.5 Z M109.000042,247.5 C107.750418,247.5 106.593619,248.16779 105.968807,249.25 C105.343996,250.33221 105.343996,251.66779 105.968807,252.75 C106.593619,253.83221 107.750418,254.5 109.000042,254.5 L115.006846,254.5 C116.101536,254.5 117,253.601526 117,252.506836 L117,249.493164 C117,248.395614 116.09474,247.5 115.00001,247.5 L109.000042,247.5 Z M109.000042,248.5 L115.00001,248.5 C115.554273,248.5 116.000005,248.941784 116.000005,249.493164 L116.000005,252.506836 C116.000005,253.061081 115.561108,253.5 115.006846,253.5 L109.000042,253.5 C108.106081,253.5 107.281996,253.024195 106.835014,252.25 C106.388036,251.475805 106.388036,250.524195 106.835014,249.75 C107.281996,248.975805 108.106081,248.5 109.000042,248.5 Z M109.000042,249.5 C108.177541,249.5 107.500049,250.177495 107.500049,251 C107.500049,251.822505 108.177541,252.5 109.000042,252.5 C109.822542,252.5 110.500034,251.822505 110.500034,251 C110.500034,250.177495 109.822542,249.5 109.000042,249.5 Z M109.000042,250.5 C109.282105,250.5 109.500039,250.717936 109.500039,251 C109.500039,251.282064 109.282105,251.5 109.000042,251.5 C108.717979,251.5 108.500044,251.282064 108.500044,251 C108.500044,250.717936 108.717979,250.5 109.000042,250.5 Z" id="Shape1" fill="#A12384"></path>
    </g>
</svg>