<?xml version="1.0" encoding="UTF-8"?>
<svg width="29px" height="26px" viewBox="0 0 29 26" version="1.1" xmlns="http://www.w3.org/2000/svg" xmlns:xlink="http://www.w3.org/1999/xlink">
    <!-- Generator: Sketch 48.2 (47327) - http://www.bohemiancoding.com/sketch -->
    <title>Shape7</title>
    <desc>Created with Sketch.</desc>
    <defs></defs>
    <g id="Artboard" stroke="none" stroke-width="1" fill="none" fill-rule="evenodd" transform="translate(-423.000000, -526.000000)">
        <path d="M437.159854,545.117682 C438.450958,545.117682 439.501,544.090682 439.501,542.827909 C439.501,541.565136 438.450958,540.538136 437.159854,540.538136 C435.869354,540.538136 434.819313,541.565136 434.819313,542.827909 C434.819313,544.090682 435.869354,545.117682 437.159854,545.117682 Z M427.266021,529.679 L427.266021,529.176136 L447.054896,529.176136 L447.054896,529.717409 L447.054896,530.357955 L447.054896,550.375591 C447.054896,551.004318 446.531687,551.515455 445.889458,551.515455 L428.430854,551.515455 C427.788625,551.515455 427.266021,551.003727 427.266021,550.375591 L427.266021,530.357955 L427.266021,529.679 Z M445.846562,550.333636 L445.846562,547.857136 C444.583854,548.101773 443.597854,549.085636 443.388208,550.333636 L445.846562,550.333636 Z M432.646729,530.357955 C432.347667,530.981955 432.176083,531.6745 432.175479,532.407818 C432.175479,535.095864 434.4115,537.282818 437.15925,537.282818 C439.907604,537.282818 442.143625,535.095864 442.143625,532.407818 C442.143625,531.6745 441.971438,530.981955 441.672979,530.357955 L432.646729,530.357955 Z M437.159854,541.719955 C437.784562,541.719955 438.292667,542.216909 438.292667,542.827909 C438.292667,543.438909 437.784562,543.935864 437.159854,543.935864 C436.535146,543.935864 436.027646,543.438909 436.027646,542.827909 C436.027646,542.216909 436.535146,541.719955 437.159854,541.719955 Z M428.474354,530.357955 L428.474354,546.646955 C430.407688,546.912864 431.932,548.429727 432.158563,550.333636 L442.16175,550.333636 C442.388312,548.430318 443.913229,546.9105 445.846563,546.645182 L445.846563,530.357955 L442.974354,530.357955 C443.213,530.999682 443.352562,531.686318 443.352562,532.407818 C443.352562,535.747636 440.574604,538.464636 437.159854,538.464636 C433.745708,538.464636 430.96775,535.747636 430.96775,532.407818 C430.96775,531.686318 431.109125,530.999682 431.347771,530.357955 L428.474354,530.357955 Z M428.474354,547.8465 L428.474354,550.333636 L430.930896,550.333636 C430.722458,549.083864 429.738271,548.091727 428.474354,547.8465 Z M446.902646,526 C449.338646,526 451.320917,527.938182 451.320917,530.321318 C451.320917,532.426136 449.773646,534.181727 447.733375,534.563455 L447.733375,533.340864 C449.099396,532.980409 450.112583,531.770227 450.112583,530.321909 C450.112583,528.590545 448.672854,527.182409 446.902646,527.182409 L427.418271,527.182409 C425.648062,527.182409 424.208333,528.591136 424.208333,530.321909 C424.208333,531.769636 425.221521,532.980409 426.587542,533.340864 L426.587542,534.563455 C424.547271,534.181727 423,532.426136 423,530.321318 C423,527.938182 424.982271,526 427.418271,526 L446.902646,526 Z" id="Shape7" fill="#FF931E" fill-rule="nonzero"></path>
    </g>
</svg>