<?xml version="1.0" encoding="UTF-8"?>
<svg width="93px" height="949px" viewBox="0 0 93 949" version="1.1" xmlns="http://www.w3.org/2000/svg" xmlns:xlink="http://www.w3.org/1999/xlink">
    <!-- Generator: Sketch 48.2 (47327) - http://www.bohemiancoding.com/sketch -->
    <title>Artboard</title>
    <desc>Created with Sketch.</desc>
    <defs></defs>
    <g id="Page-1" stroke="none" stroke-width="1" fill="none" fill-rule="evenodd">
        <g id="Artboard">
            <path d="M24,12 C21.8047999,12 20,13.8048 20,16 L20,28 C20,28.552285 20.4477153,29 21,29 C21.5522847,29 22,28.552285 22,28 L22,22 L48,22 L48,23 C48,23.55228 48.4477,24 49,24 C49.5523,24 50,23.55228 50,23 L50,16 C50,13.8048 48.1952,12 46,12 L24,12 Z M24,14 L46,14 C47.1026,14 48,14.8973 48,16 L48,20 L22,20 L22,16 C22,14.8973 22.8974,14 24,14 Z M33,16 C32.446,16 32,16.446 32,17 C32,17.554 32.446,18 33,18 L37,18 C37.554,18 38,17.554 38,17 C38,16.446 37.554,16 37,16 L33,16 Z M49,26 C48.136404,26 47.272807,26.223758 46.5,26.669922 C44.954386,27.562249 44,29.215316 44,31 L44,34 C42.9093,34 42,34.9093 42,36 L42,44 C42,45.0907 42.9093,46 44,46 L54,46 C55.0907,46 56,45.0907 56,44 L56,36 C56,34.9093 55.0907,34 54,34 L54,31 C54,29.215316 53.045614,27.562249 51.5,26.669922 C50.727193,26.223758 49.863596,26 49,26 Z M49,28 C49.517601,28 50.035202,28.134003 50.5,28.402344 C51.429594,28.939025 52,29.926667 52,31 L52,34 L46,34 L46,31 C46,29.926667 46.570406,28.939025 47.5,28.402344 C47.964798,28.134003 48.482399,28 49,28 Z M21,31 C20.4477,31 20,31.44772 20,32 L20,33.632812 L18.5644531,32.673828 C18.4001531,32.564308 18.1973999,32.50001 18,32.5 C17.4477,32.5 17,32.94772 17,33.5 C17,33.83435 17.1671125,34.146571 17.4453125,34.332031 L19.1972656,35.5 L17.4492188,36.666016 L17.4492188,36.668016 C17.1671188,36.853329 17,37.16565 17,37.5 C17,38.05228 17.4477,38.5 18,38.5 C18.1973999,38.49999 18.3903875,38.4416 18.5546875,38.332031 L20,37.367188 L20,39 C20,39.55228 20.4477,40 21,40 C21.5523,40 22,39.55228 22,39 L22,37.367188 L23.427734,38.320312 C23.592034,38.429832 23.8026,38.49999 24,38.5 C24.5523,38.5 25,38.05228 25,37.5 C25,37.16565 24.832888,36.853429 24.554688,36.667969 L22.8027344,35.5 L24.541016,34.341797 C24.827316,34.157617 25.0003,33.84044 25,33.5 C25,32.94772 24.5523,32.5 24,32.5 C23.8026,32.50001 23.609613,32.5584 23.445312,32.667969 L22,33.632812 L22,32 C22,31.44772 21.5523,31 21,31 Z M33,31 C32.4477,31 32,31.44772 32,32 L32,33.632812 L30.564453,32.673828 C30.400153,32.564308 30.1974,32.50001 30,32.5 C29.4477,32.5 29,32.94772 29,33.5 C29,33.83435 29.167113,34.146571 29.445312,34.332031 L31.197266,35.5 L29.449219,36.666016 L29.449219,36.668016 C29.167119,36.853329 29,37.16565 29,37.5 C29,38.05228 29.4477,38.5 30,38.5 C30.1974,38.49999 30.390387,38.4416 30.554688,38.332031 L32,37.367188 L32,39 C32,39.55228 32.4477,40 33,40 C33.5523,40 34,39.55228 34,39 L34,37.367188 L35.427734,38.320312 C35.592034,38.429832 35.8026,38.49999 36,38.5 C36.5523,38.5 37,38.05228 37,37.5 C37,37.16565 36.832887,36.853429 36.554688,36.667969 L34.802734,35.5 L36.541016,34.341797 C36.827316,34.157617 37.0003,33.84044 37,33.5 C37,32.94772 36.5523,32.5 36,32.5 C35.8026,32.50001 35.609613,32.5584 35.445312,32.667969 L34,33.632812 L34,32 C34,31.44772 33.5523,31 33,31 Z M44,36 L54,36 L54,44 L44,44 L44,36 Z M49,38 C48.446,38 48,38.446 48,39 L48,41 C48,41.554 48.446,42 49,42 C49.554,42 50,41.554 50,41 L50,39 C50,38.446 49.554,38 49,38 Z M21,42 C20.4477153,42 20,42.447715 20,43 L20,56 C20,58.1952 21.8047999,60 24,60 L46,60 C48.1952,60 50,58.1952 50,56 L50,49 C50,48.44772 49.5523,48 49,48 C48.4477,48 48,48.44772 48,49 L48,50 L22,50 L22,43 C22,42.447715 21.5522847,42 21,42 Z M22,52 L48,52 L48,56 C48,57.1027 47.1026,58 46,58 L24,58 C22.8974,58 22,57.1027 22,56 L22,52 Z M35,54 C34.4477,54 34,54.4477 34,55 C34,55.5523 34.4477,56 35,56 C35.5523,56 36,55.5523 36,55 C36,54.4477 35.5523,54 35,54 Z" id="Shape9" fill="#000000" fill-rule="nonzero"></path>
            <path d="M50.7692721,91.6518464 C55.2893521,87.1857998 56.3805969,85.8912116 55.8931373,84.359188 C55.4056777,82.8271644 53.7715802,82.4370919 47.5453916,81.5325762 C46.1494845,81.3290601 44.2882751,81.0577054 43.5681643,80.8654958 C43.1637944,80.2266815 42.3384367,78.5081015 41.7180335,77.2135133 C38.9483767,71.4698381 38.0731651,70 36.5,70 C34.9268349,70 34.0516233,71.4698381 31.2819665,77.2191665 C30.6615633,78.5137548 29.8362056,80.2266815 29.4318357,80.871149 C28.7117249,81.0633586 26.8505155,81.3347133 25.4546084,81.5382294 C19.2284198,82.4427452 17.5943223,82.8384708 17.1068627,84.3648412 C16.6194031,85.8912116 17.7106479,87.191453 22.2307279,91.6574996 C23.2444223,92.6581202 24.5904755,93.9866278 25.0668565,94.574563 C25.022542,95.3377482 24.7012618,97.2202717 24.457532,98.6335776 C23.3496692,104.948228 23.238883,106.655502 24.5184644,107.59959 C25.7980459,108.543679 27.3379751,107.887905 32.8994461,104.886043 C34.1457917,104.213309 35.8075858,103.314447 36.5055393,103.037439 C37.2034928,103.314447 38.8597476,104.207656 40.1060932,104.88039 C44.127635,107.051228 46.0497769,107.995316 47.3072011,107.995316 C47.7405113,108.001975 48.1635815,107.860705 48.5092321,107.593937 C49.7832743,106.649849 49.6503308,104.942575 48.5701646,98.6279243 C48.3264348,97.2146184 48.0162332,95.332095 47.9608401,94.5689098 C48.4095245,93.9809745 49.7555777,92.652467 50.7692721,91.6518464 Z M44.6871057,93.5174102 C44.4322972,94.3258212 44.5707801,95.3886272 45.241037,99.2441257 C45.4792275,100.640472 45.8282043,102.675632 45.9777658,104.088938 C44.7092629,103.523616 42.9145253,102.539955 41.6847976,101.872875 C38.283659,100.018617 37.3308971,99.555053 36.5,99.555053 C35.6691029,99.555053 34.716341,100.018617 31.326281,101.850262 C30.0965533,102.511689 28.3018157,103.484043 27.0333129,104.066325 C27.1828743,102.658673 27.5318511,100.623512 27.7700416,99.227166 C28.4292199,95.3716675 28.5677028,94.3032083 28.323973,93.4947973 C28.0802431,92.6863863 27.3379751,91.9118947 24.5793969,89.1870409 C23.5712418,88.1977268 22.0977843,86.7335419 21.1837976,85.7103084 C22.5464687,85.421994 24.5517003,85.144986 25.9309894,84.9301635 C29.7309586,84.3648412 30.7723496,84.183938 31.4426066,83.6864544 C32.1128635,83.1889707 32.6224804,82.2448823 34.2842745,78.7285772 C34.8991383,77.4566019 35.7909678,75.5966914 36.5,74.3642886 C37.1924142,75.5966914 38.0842437,77.4566019 38.7157255,78.7285772 C40.4052162,82.2448823 40.931451,83.1889707 41.5795507,83.6864544 C42.2276504,84.183938 43.2911986,84.3761476 47.1188644,84.9301635 C48.4981535,85.1280264 50.5033851,85.421994 51.8660563,85.7103084 C50.9022157,86.7335419 49.4287582,88.1977268 48.4261424,89.1870409 C45.6731035,91.9062415 44.9419141,92.6863863 44.6871057,93.5174102 Z" id="Shape8" fill="#FF931E" fill-rule="nonzero"></path>
            <path d="M30.9994027,137.480732 C32.2758768,137.480732 33.31402,136.434229 33.31402,135.147476 C33.31402,133.860723 32.2758768,132.81422 30.9994027,132.81422 C29.7235259,132.81422 28.6853827,133.860723 28.6853827,135.147476 C28.6853827,136.434229 29.7235259,137.480732 30.9994027,137.480732 Z M21.2176807,121.748865 L21.2176807,121.236452 L40.7823193,121.236452 L40.7823193,121.788004 L40.7823193,122.440713 L40.7823193,142.83849 C40.7823193,143.479157 40.2650397,144 39.6300879,144 L22.3693148,144 C21.734363,144 21.2176807,143.478555 21.2176807,142.83849 L21.2176807,122.440713 L21.2176807,121.748865 Z M39.5876781,142.795739 L39.5876781,140.272209 C38.3392781,140.521491 37.3644509,141.524039 37.1571806,142.795739 L39.5876781,142.795739 Z M26.5374179,122.440713 C26.2417442,123.076563 26.0721051,123.78226 26.0715078,124.529504 C26.0715078,127.268597 28.2821913,129.497082 30.9988054,129.497082 C33.7160167,129.497082 35.9267002,127.268597 35.9267002,124.529504 C35.9267002,123.78226 35.7564639,123.076563 35.4613875,122.440713 L26.5374179,122.440713 Z M30.9994027,134.018481 C31.6170322,134.018481 32.1193788,134.524873 32.1193788,135.147476 C32.1193788,135.770079 31.6170322,136.276471 30.9994027,136.276471 C30.3817732,136.276471 29.8800239,135.770079 29.8800239,135.147476 C29.8800239,134.524873 30.3817732,134.018481 30.9994027,134.018481 Z M22.4123219,122.440713 L22.4123219,139.039046 C24.3237478,139.310005 25.8307876,140.855674 26.0547828,142.795739 L35.9446198,142.795739 C36.1686151,140.856276 37.6762522,139.307596 39.5876781,139.037239 L39.5876781,122.440713 L36.748016,122.440713 C36.9839577,123.094627 37.1219387,123.794303 37.1219387,124.529504 C37.1219387,127.932747 34.3754587,130.701343 30.9994027,130.701343 C27.623944,130.701343 24.8774639,127.932747 24.8774639,124.529504 C24.8774639,123.794303 25.017237,123.094627 25.2531786,122.440713 L22.4123219,122.440713 Z M22.4123219,140.261371 L22.4123219,142.795739 L24.8410274,142.795739 C24.6349518,141.522233 23.6619165,140.511255 22.4123219,140.261371 Z M40.6317945,118 C43.0401911,118 45,119.974988 45,122.403381 C45,124.54817 43.470262,126.337101 41.4531103,126.726077 L41.4531103,125.480269 C42.8036522,125.112969 43.8053588,123.879805 43.8053588,122.403983 C43.8053588,120.639741 42.3819439,119.204863 40.6317945,119.204863 L21.3682055,119.204863 C19.6180561,119.204863 18.1946412,120.640343 18.1946412,122.403983 C18.1946412,123.879203 19.1963478,125.112969 20.5468897,125.480269 L20.5468897,126.726077 C18.529738,126.337101 17,124.54817 17,122.403381 C17,119.974988 18.9598089,118 21.3682055,118 L40.6317945,118 Z" id="Shape7" fill="#FF931E" fill-rule="nonzero"></path>
            <path d="M33.0273973,154 L18.9232877,154 C17.8383562,154 17,154.9 17,155.95 L17,182.05 C17,183.15 17.8876712,184 18.9232877,184 L33.0767123,184 C34.1616438,184 35,183.1 35,182.05 L35,155.95 C34.9506849,154.9 34.1123288,154 33.0273973,154 Z M33.9643836,182.05 C33.9643836,182.6 33.5205479,183 33.0273973,183 L18.9232877,183 C18.3808219,183 17.9863014,182.55 17.9863014,182.05 L17.9863014,155.95 C17.9863014,155.4 18.430137,155 18.9232877,155 L33.0767123,155 C33.6191781,155 34.0136986,155.45 34.0136986,155.95 L34.0136986,182.05 L33.9643836,182.05 Z M27.6027397,157.5 C27.6027397,157.8 27.5489415,158 27.4682441,158 L24.0386052,158 C23.9579078,158 23.9041096,157.8 23.9041096,157.5 C23.9041096,157.2 23.9579078,157 24.0386052,157 L27.4682441,157 C27.5354919,157 27.6027397,157.2 27.6027397,157.5 Z M25.9753425,178 C24.939726,178 24.0520548,178.85 24.0520548,179.95 C24.0520548,181.05 24.890411,181.9 25.9753425,181.9 C27.060274,181.9 27.8986301,181.05 27.8986301,179.95 C27.8986301,178.85 27.0109589,178 25.9753425,178 Z M25.9753425,180.9 C25.4821918,180.9 25.0383562,180.5 25.0383562,179.95 C25.0383562,179.4 25.4821918,179 25.9753425,179 C26.4684932,179 26.9123288,179.4 26.9123288,179.95 C26.9123288,180.5 26.4684932,180.9 25.9753425,180.9 Z" id="Shape6" fill="#1BC6B9" fill-rule="nonzero"></path>
            <path d="M33.5343246,194 L18.5119884,194 C17.6828335,194 17,194.701169 17,195.552588 L17,222.447412 C17,223.298831 17.6828335,224 18.5119884,224 L33.4855508,224 C34.3147057,224 34.9975392,223.298831 34.9975392,222.447412 L34.9975392,195.552588 C35.046313,194.701169 34.3634795,194 33.5343246,194 Z M17.9754764,197.806344 L34.0708366,197.806344 L34.0708366,216.687813 L17.9754764,216.687813 L17.9754764,197.806344 Z M18.5119884,195.001669 L33.4855508,195.001669 C33.7781937,195.001669 34.0220628,195.252087 34.0220628,195.552588 L34.0220628,196.804674 L17.9267026,196.804674 L17.9267026,195.552588 C17.9754764,195.252087 18.2193455,195.001669 18.5119884,195.001669 Z M33.5343246,223.048414 L18.5119884,223.048414 C18.2193455,223.048414 17.9754764,222.797997 17.9754764,222.497496 L17.9754764,217.739566 L34.0708366,217.739566 L34.0708366,222.497496 C34.0708366,222.797997 33.8269675,223.048414 33.5343246,223.048414 Z M26.0231565,218.290484 C25.0476801,218.290484 24.267299,219.09182 24.267299,220.093489 C24.267299,221.095159 25.0476801,221.896494 26.0231565,221.896494 C26.9986329,221.896494 27.779014,221.095159 27.779014,220.093489 C27.779014,219.09182 26.9986329,218.290484 26.0231565,218.290484 Z M26.0231565,220.894825 C25.5841921,220.894825 25.2427754,220.54424 25.2427754,220.093489 C25.2427754,219.642738 25.5841921,219.292154 26.0231565,219.292154 C26.4621209,219.292154 26.8035376,219.642738 26.8035376,220.093489 C26.8035376,220.54424 26.4621209,220.894825 26.0231565,220.894825 Z" id="Shape5" fill="#A12284" fill-rule="nonzero"></path>
            <path d="M36.541272,242.614886 L29.3882253,235.669857 C29.1708965,235.458848 28.8257783,235.46153 28.611212,235.669857 L21.4581653,242.614886 L21.4581653,255.625058 C21.4581653,255.783366 21.5811397,255.904155 21.7328364,255.904155 L36.2666009,255.904155 C36.4198614,255.904155 36.541272,255.779199 36.541272,255.625058 L36.541272,242.614886 Z M37.6186368,243.66092 L37.6186368,256.448531 C37.6186368,256.760094 37.3792002,257 37.0838403,257 L20.9155971,257 C20.62448,257 20.3808005,256.753099 20.3808005,256.448531 L20.3808005,243.66092 L17.90916,246.060683 C17.6918312,246.271692 17.3541269,246.260443 17.1487062,246.041549 C16.9418533,245.821128 16.9526378,245.474442 17.1695952,245.263794 L28.6068825,234.159113 C28.8269311,233.945464 29.1755974,233.948465 29.3925548,234.159113 L40.8298421,245.263794 C41.0498906,245.477443 41.0561518,245.822655 40.8507311,246.041549 C40.6438782,246.261969 40.3048436,246.26901 40.0902773,246.060683 L37.6186368,243.66092 Z" id="Shape4" fill="#FF931E" fill-rule="nonzero"></path>
            <path d="M18.0751672,267.001305 C17.4533838,267.0685 16.9868302,267.591715 17.0002837,268.206729 L17.0002837,303.81312 C17.0003502,304.468589 17.5406529,304.999935 18.2071705,305 L44.7586794,305 C45.425197,304.999935 45.9654996,304.468589 45.9655662,303.81312 L45.9655662,301.439361 L50.7931132,301.439361 C51.4596308,301.439295 51.9999335,300.90795 52,300.252481 L52,294.318083 C51.9999335,293.662614 51.4596308,293.131268 50.7931132,293.131203 L45.9655662,293.131203 L45.9655662,290.164004 L50.7931132,290.164004 C51.4596308,290.163938 51.9999335,289.632592 52,288.977124 L52,283.042726 C51.9999335,282.387257 51.4596308,281.855911 50.7931132,281.855846 L45.9655662,281.855846 L45.9655662,278.888647 L50.7931132,278.888647 C51.4596308,278.888581 51.9999335,278.357235 52,277.701767 L52,271.767368 C51.9999335,271.1119 51.4596308,270.580554 50.7931132,270.580489 L45.9655662,270.580489 L45.9655662,268.206729 C45.9654996,267.551261 45.425197,267.019915 44.7586794,267.01985 L23.0347175,267.01985 C22.5994749,267.013802 22.1946367,267.238688 21.9752209,267.608396 C21.7558051,267.978104 21.7558051,268.435355 21.9752209,268.805063 C22.1946367,269.17477 22.5994749,269.399656 23.0347175,269.393609 L43.5517926,269.393609 L43.5517926,302.626241 L19.4140572,302.626241 L19.4140572,268.206729 C19.4191683,267.885516 19.2916697,267.575983 19.0606808,267.348823 C18.8296918,267.121663 18.5149405,266.996278 18.1883129,267.001305 C18.1506184,266.999565 18.1128617,266.999565 18.0751672,267.001305 Z M45.9655662,272.954248 L49.5862265,272.954248 L49.5862265,276.514887 L45.9655662,276.514887 L45.9655662,272.954248 Z M31.4829249,275.921447 C28.8310393,275.921447 26.6553779,278.061042 26.6553779,280.668966 C26.6553779,283.27689 28.8310393,285.416485 31.4829249,285.416485 C34.1348106,285.416485 36.310472,283.27689 36.310472,280.668966 C36.310472,278.061042 34.1348106,275.921447 31.4829249,275.921447 Z M31.4829249,278.295207 C32.8303114,278.295207 33.8966985,279.343917 33.8966985,280.668966 C33.8966985,281.994016 32.8303114,283.042726 31.4829249,283.042726 C30.1355384,283.042726 29.0691514,281.994016 29.0691514,280.668966 C29.0691514,279.343917 30.1355384,278.295207 31.4829249,278.295207 Z M45.9655662,284.229605 L49.5862265,284.229605 L49.5862265,287.790244 L45.9655662,287.790244 L45.9655662,284.229605 Z M31.4829249,286.603365 C26.5482974,286.603365 22.4312742,290.28366 22.4312742,294.911523 C22.4313408,295.566991 22.9716434,296.098337 23.6381609,296.098402 L39.3276889,296.098402 C39.9942065,296.098337 40.5345091,295.566991 40.5345757,294.911523 C40.5345757,290.283658 36.4175428,286.603365 31.4829249,286.603365 Z M31.4829249,288.977124 C34.7319371,288.977124 37.2334296,291.057512 37.8567957,293.724643 L25.1090542,293.724643 C25.732419,291.057512 28.2339013,288.977124 31.4829249,288.977124 Z M45.9655662,295.504962 L49.5862265,295.504962 L49.5862265,299.065601 L45.9655662,299.065601 L45.9655662,295.504962 Z" id="Shape3" fill="#FF931E" fill-rule="nonzero"></path>
            <path d="M19,315 C17.9024,315 17,315.9024 17,317 L17,337 C17,338.0976 17.9024,339 19,339 L30,339 C31.0976,339 32,338.0976 32,337 L32,317 C32,315.9024 31.0976,315 30,315 L19,315 Z M19,316 L30,316 C30.5513,316 31,316.44865 31,317 L31,319 L18,319 L18,317 C18,316.44865 18.4487,316 19,316 Z M23.5,317 C23.223,317 23,317.223 23,317.5 C23,317.777 23.223,318 23.5,318 L25.5,318 C25.777,318 26,317.777 26,317.5 C26,317.223 25.777,317 25.5,317 L23.5,317 Z M18,320 L31,320 L31,334 L18,334 L18,320 Z M36.5,320.000976 C36.22385,320.000976 36,320.224827 36,320.500976 L36,322.000976 L35.5,322.000976 C35.223,322.000976 35,322.223976 35,322.500976 L35,326.500976 C35,327.571977 35.5725,328.564109 36.5,329.099609 C36.8138,329.280759 37.1533,329.394625 37.5,329.453125 C37.5,331.769125 35.761525,333.737917 33.515625,333.995117 L33.515625,333.507812 C33.515625,333.226513 33.2891625,333 33.0078125,333 C32.7265125,333 32.5,333.226513 32.5,333.507812 L32.5,335.492188 C32.5,335.773487 32.7265125,336 33.0078125,336 C33.2891625,336 33.515625,335.773487 33.515625,335.492188 L33.515625,334.999024 C36.305525,334.735924 38.5,332.310125 38.5,329.453125 C38.8467,329.394675 39.1862,329.280759 39.5,329.099609 C40.4275,328.564109 41,327.571977 41,326.500976 L41,322.500976 C41,322.223976 40.777,322.000976 40.5,322.000976 L40,322.000976 L40,320.500976 C40,320.223976 39.777,320.000976 39.5,320.000976 L36.5,320.000976 Z M37,321.000976 L39,321.000976 L39,322.000976 L38.5,322.000976 C38.223,322.000976 38,322.223976 38,322.500976 C38,322.777977 38.223,323.000976 38.5,323.000976 L40,323.000976 L40,326.500976 C40,327.216326 39.6195,327.875748 39,328.233399 C38.3805,328.591098 37.6195,328.591098 37,328.233399 C36.3805,327.875748 36,327.216326 36,326.500976 L36,323.000976 L36.5,323.000976 C36.777,323.000976 37,322.777977 37,322.500976 L37,321.000976 Z M24.5,324 C24.223,324 24,324.223 24,324.5 L24,326.5 L22,326.5 C21.723,326.5 21.5,326.723 21.5,327 C21.5,327.277 21.723,327.5 22,327.5 L24,327.5 L24,329.5 C24,329.777 24.223,330 24.5,330 C24.777,330 25,329.777 25,329.5 L25,327.5 L27,327.5 C27.277,327.5 27.5,327.277 27.5,327 C27.5,326.723 27.277,326.5 27,326.5 L25,326.5 L25,324.5 C25,324.223 24.777,324 24.5,324 Z M18,335 L31,335 L31,337 C31,337.55135 30.5513,338 30,338 L19,338 C18.4487,338 18,337.55135 18,337 L18,335 Z M24.5,336 C24.22385,336 24,336.22385 24,336.5 C24,336.77615 24.22385,337 24.5,337 C24.77615,337 25,336.77615 25,336.5 C25,336.22385 24.77615,336 24.5,336 Z" id="Shape2" fill="#A12384"></path>
            <path d="M19.9932998,349 C19.3882626,349 18.8395284,349.36602 18.6075525,349.924805 L17.1788363,354.137696 C16.8194749,355.184436 16.9961937,356.293951 17.7589165,357.110351 C18.0921123,357.466998 18.5227778,357.731475 19.0001321,357.875976 L19.0001321,369 C19.0001321,370.09935 19.9007854,371 21.0001395,371 L37.007035,371 C38.1063891,371 39.0070425,370.09935 39.0070425,369 C39.006901,368.821508 38.9116201,368.656629 38.7570415,368.567383 C38.6023405,368.478067 38.4117408,368.478067 38.2570397,368.567383 C38.1024611,368.656629 38.0071803,368.821508 38.0070388,369 C38.0070388,369.56265 37.5696871,370 37.007035,370 L21.0001395,370 C20.4374874,370 20.0001358,369.56265 20.0001358,369 L20.0001358,357.991211 C20.1430506,357.981911 20.28657,357.964641 20.4308015,357.932617 C21.0632038,357.792207 21.6248731,357.417586 22.0352994,356.819336 C22.1447698,356.962141 22.2691797,357.094221 22.4034652,357.212891 C22.9384522,357.685655 23.6543014,358.007225 24.4044492,358 C25.3454827,357.99095 26.1713427,357.477021 26.6808246,356.741211 C27.1854265,357.490291 28.0399707,357.99864 29.0001693,358 C29.9407728,358.0015 30.7970864,357.507041 31.3097483,356.775391 C31.8421503,357.539025 32.7324301,358.041015 33.7169838,358 C34.4498615,357.9695 35.1344186,357.635307 35.6417955,357.166992 C35.7501859,357.066952 35.8471212,356.954677 35.9386716,356.838867 C36.331853,357.396512 36.9139647,357.813004 37.6164123,357.940429 C37.7465113,357.964029 37.8770583,357.978925 38.0070388,357.985349 L38.0070388,358.999998 C38.0071803,359.17849 38.1024611,359.343369 38.2570397,359.432615 C38.4117408,359.521931 38.6023405,359.521931 38.7570415,359.432615 C38.9116201,359.343369 39.006901,359.17849 39.0070425,358.999998 L39.0070425,357.85742 C39.5146109,357.702076 39.9776886,357.410857 40.3341959,356.985349 C41.0018834,356.188429 41.1925701,355.079758 40.7912286,354.109373 L39.3966924,349.94043 C39.1649066,349.381735 38.6081695,349 38.0031322,349 L19.9932998,349 Z M19.9932731,350 L38.0029451,350 C38.205964,350 38.3843491,350.120374 38.4629037,350.305664 L39.8671934,354.491211 C40.1226271,355.108826 40.0028882,355.822973 39.5673904,356.342774 C39.1314027,356.863149 38.4872051,357.081635 37.7949386,356.956054 C37.1635019,356.84151 36.4551016,356.06153 36.4551016,355.5 C36.4549616,355.32151 36.3596821,355.156628 36.2051029,355.067383 C36.0504037,354.978068 35.8598047,354.978068 35.7051055,355.067383 C35.5505263,355.156628 35.4552468,355.32151 35.4551068,355.5 C35.4551068,355.779585 35.2906302,356.130147 34.9629219,356.432617 C34.6264786,356.743162 34.1332967,356.981937 33.675819,357.000976 C32.7685938,357.038776 31.8008288,356.231665 31.8008288,355.5 C31.8006888,355.32151 31.7054093,355.156628 31.5508301,355.067383 C31.3961309,354.978068 31.2055324,354.978068 31.0508327,355.067383 C30.896254,355.156628 30.8009745,355.32151 30.800834,355.5 C30.800834,356.216775 29.8570259,357.00105 29.0020153,357 C28.1174549,356.9985 27.1953842,356.133625 27.1953842,355.5 C27.1952442,355.32151 27.0999647,355.156628 26.9453855,355.067383 C26.7906863,354.978068 26.6000973,354.978068 26.4453881,355.067383 C26.2908189,355.156628 26.1955444,355.32151 26.1953894,355.5 C26.1953894,356.08786 25.214668,356.99212 24.3946172,357 C23.9406701,357.0045 23.4213058,356.777295 23.0655226,356.462891 C22.800454,356.228646 22.6194055,355.976341 22.5782207,355.738281 C22.5643707,355.658146 22.5607908,355.600081 22.5606408,355.503906 C22.5591408,355.326812 22.4640163,355.159834 22.3106421,355.071289 C22.1559429,354.981974 21.9653438,354.981974 21.8106446,355.071289 C21.6560653,355.160534 21.5607859,355.325416 21.5606459,355.503906 C21.5606459,356.107201 20.8347715,356.818435 20.2149497,356.956054 C19.5559131,357.102374 18.8957606,356.86273 18.4893727,356.427734 C17.9625224,355.863794 17.8589602,355.238151 18.1251188,354.462891 L19.532338,350.306641 C19.6104476,350.119791 19.7894492,350 19.9932731,350 Z M25.0000831,360.5 C24.7243265,360.5043 24.4963092,360.724234 24.5000857,361 L24.5000857,361.5 C23.677575,361.5 23.0000935,362.1775 23.0000935,363 C23.0000935,363.8225 23.677575,364.5 24.5000857,364.5 C24.9128285,364.50015 25.2645327,364.5 25.5069165,364.5 C25.78887,364.5 26.0000779,364.71785 26.0000779,365 C26.0000779,365.28215 25.782034,365.5 25.5000805,365.5 C25.405206,365.4995 23.5452307,365.4995 23.5000909,365.5 C23.3216018,365.50015 23.1567207,365.5954 23.0674761,365.75 C23.0231554,365.826767 23.0004275,365.914326 23.0000935,366 C22.9997545,366.086975 23.0224834,366.172067 23.0674761,366.25 C23.1567207,366.4046 23.3216018,366.49985 23.5000909,366.5 C23.5226408,366.50025 24.0154282,366.50006 24.5000857,366.5 L24.5000857,367 C24.5000857,367.343075 24.7479934,367.499599 25.0000831,367.5 C25.2527713,367.500402 25.5000805,367.34118 25.5000805,367 L25.5000805,366.5 C26.3225612,366.5 27.0000727,365.8225 27.0000727,365 C27.0000727,364.1775 26.3225612,363.5 25.5000805,363.5 L24.5000857,363.5 C24.2180372,363.5 24.0000883,363.2821 24.0000883,363 C24.0000883,362.7179 24.2180372,362.5 24.5000857,362.5 C24.5157356,362.5001 26.4574255,362.5 26.5000753,362.5 C26.6785644,362.49985 26.8434455,362.4046 26.9326901,362.25 C26.9770108,362.173233 26.9997387,362.085674 27.0000727,362 C27.0004117,361.913025 26.9776838,361.827933 26.9326901,361.75 C26.8434455,361.5954 26.6785644,361.50015 26.5000753,361.5 L25.5000805,361.5 L25.5000805,361 C25.5039305,360.718115 25.2819586,360.495597 25.0000831,360.5 Z M33.0000415,360.5 C31.750418,360.5 30.593619,361.16779 29.9688073,362.25 C29.3439955,363.33221 29.3439955,364.66779 29.9688073,365.75 C30.593619,366.83221 31.750418,367.5 33.0000415,367.5 L39.0068464,367.5 C40.1015357,367.5 41,366.601526 41,365.506836 L41,362.493164 C41,361.395614 40.0947397,360.5 39.0000104,360.5 L33.0000415,360.5 Z M33.0000415,361.5 L39.0000104,361.5 C39.5542725,361.5 40.0000052,361.941784 40.0000052,362.493164 L40.0000052,365.506836 C40.0000052,366.061081 39.5611085,366.5 39.0068464,366.5 L33.0000415,366.5 C32.1060812,366.5 31.2819965,366.024195 30.8350138,365.25 C30.3880361,364.475805 30.3880361,363.524195 30.8350138,362.75 C31.2819965,361.975805 32.1060812,361.5 33.0000415,361.5 Z M33.0000415,362.5 C32.1775408,362.5 31.5000493,363.177495 31.5000493,364 C31.5000493,364.822505 32.1775408,365.5 33.0000415,365.5 C33.8225423,365.5 34.5000338,364.822505 34.5000338,364 C34.5000338,363.177495 33.8225423,362.5 33.0000415,362.5 Z M33.0000415,363.5 C33.2821046,363.5 33.500039,363.717936 33.500039,364 C33.500039,364.282064 33.2821046,364.5 33.0000415,364.5 C32.7179785,364.5 32.5000441,364.282064 32.5000441,364 C32.5000441,363.717936 32.7179785,363.5 33.0000415,363.5 Z" id="Shape1" fill="#A12384"></path>
            <path d="M27,385.485077 L30.3428996,382.142178 C31.8658034,380.619274 34.3349183,380.619274 35.8578221,382.142178 C37.380726,383.665082 37.380726,386.134197 35.8578221,387.6571 L32.5149226,391 L35.8578221,394.3429 C37.380726,395.865803 37.380726,398.334918 35.8578221,399.857822 C34.3349183,401.380726 31.8658034,401.380726 30.3428996,399.857822 L27,396.514923 L23.6571004,399.857822 C22.1341966,401.380726 19.6650817,401.380726 18.1421779,399.857822 C16.619274,398.334918 16.619274,395.865803 18.1421779,394.3429 L21.4850774,391 L18.1421779,387.6571 C16.619274,386.134197 16.619274,383.665082 18.1421779,382.142178 C19.6650817,380.619274 22.1341966,380.619274 23.6571004,382.142178 L27,385.485077 Z" id="Close" fill="#1AC6BA"></path>
            <g id="ic/subject/grey600" transform="translate(17.000000, 411.000000)">
                <g id="ic_subject_24px">
                    <path d="M14,17 L4,17 L4,19 L14,19 L14,17 Z M20,9 L4,9 L4,11 L20,11 L20,9 Z M4,15 L20,15 L20,13 L4,13 L4,15 Z M4,5 L4,7 L20,7 L20,5 L4,5 Z" id="Shape" fill="#757575" fill-rule="nonzero"></path>
                    <polygon id="Shape" points="0 0 24 0 24 24 0 24"></polygon>
                </g>
            </g>
            <g id="ic/event/grey600" transform="translate(17.000000, 445.000000)">
                <g id="ic_event_24px">
                    <path d="M17,12 L12,12 L12,17 L17,17 L17,12 Z M16,1 L16,3 L8,3 L8,1 L6,1 L6,3 L5,3 C3.89,3 3.01,3.9 3.01,5 L3,19 C3,20.1 3.89,21 5,21 L19,21 C20.1,21 21,20.1 21,19 L21,5 C21,3.9 20.1,3 19,3 L18,3 L18,1 L16,1 Z M19,19 L5,19 L5,8 L19,8 L19,19 Z" id="Shape" fill="#757575" fill-rule="nonzero"></path>
                    <polygon id="Shape" points="0 0 24 0 24 24 0 24"></polygon>
                </g>
            </g>
            <g id="ic/delete_forever/black" transform="translate(17.000000, 479.000000)">
                <g id="ic_delete_forever_24px">
                    <polygon id="Shape" points="0 0 24 0 24 24 0 24"></polygon>
                    <path d="M6,19 C6,20.1 6.9,21 8,21 L16,21 C17.1,21 18,20.1 18,19 L18,7 L6,7 L6,19 Z M8.46,11.88 L9.87,10.47 L12,12.59 L14.12,10.47 L15.53,11.88 L13.41,14 L15.53,16.12 L14.12,17.53 L12,15.41 L9.88,17.53 L8.47,16.12 L10.59,14 L8.46,11.88 Z M15.5,4 L14.5,3 L9.5,3 L8.5,4 L5,4 L5,6 L19,6 L19,4 L15.5,4 Z" id="Shape" fill="#000000" fill-rule="nonzero"></path>
                    <polygon id="Shape" points="0 0 24 0 24 24 0 24"></polygon>
                </g>
            </g>
            <g id="ic/circles_add/grey600" opacity="0.4" transform="translate(17.000000, 513.000000)">
                <g id="ic_circles_add_24px">
                    <path d="M10,1.66666667 C5.4,1.66666667 1.66666667,5.4 1.66666667,10 C1.66666667,14.6 5.4,18.3333333 10,18.3333333 C14.6,18.3333333 18.3333333,14.6 18.3333333,10 C18.3333333,5.4 14.6,1.66666667 10,1.66666667 Z M10,16.6666667 C6.31666667,16.6666667 3.33333333,13.6833333 3.33333333,10 C3.33333333,6.31666667 6.31666667,3.33333333 10,3.33333333 C13.6833333,3.33333333 16.6666667,6.31666667 16.6666667,10 C16.6666667,13.6833333 13.6833333,16.6666667 10,16.6666667 Z" id="Shape" fill="#757575" fill-rule="nonzero"></path>
                    <polygon id="Shape" points="0 0 20 0 20 20 0 20"></polygon>
                    <polygon id="Shape" fill="#757575" fill-rule="nonzero" points="10.8333333 9.16666667 10.8333333 6.66666667 9.16666667 6.66666667 9.16666667 9.16666667 6.66666667 9.16666667 6.66666667 10.8333333 9.16666667 10.8333333 9.16666667 13.3333333 10.8333333 13.3333333 10.8333333 10.8333333 13.3333333 10.8333333 13.3333333 9.16666667"></polygon>
                </g>
            </g>
            <g id="ic/remove_circle_outline/grey600" opacity="0.4" transform="translate(17.000000, 543.000000)">
                <g id="ic_remove_circle_outline_24px">
                    <polygon id="Shape" points="0 0 20 0 20 20 0 20"></polygon>
                    <path d="M5.83333333,9.16666667 L5.83333333,10.8333333 L14.1666667,10.8333333 L14.1666667,9.16666667 L5.83333333,9.16666667 Z M10,1.66666667 C5.4,1.66666667 1.66666667,5.4 1.66666667,10 C1.66666667,14.6 5.4,18.3333333 10,18.3333333 C14.6,18.3333333 18.3333333,14.6 18.3333333,10 C18.3333333,5.4 14.6,1.66666667 10,1.66666667 Z M10,16.6666667 C6.325,16.6666667 3.33333333,13.675 3.33333333,10 C3.33333333,6.325 6.325,3.33333333 10,3.33333333 C13.675,3.33333333 16.6666667,6.325 16.6666667,10 C16.6666667,13.675 13.675,16.6666667 10,16.6666667 Z" id="Shape" fill="#757575" fill-rule="nonzero"></path>
                </g>
            </g>
            <g id="Group2" transform="translate(17.000000, 573.000000)" fill="#000000" fill-rule="nonzero">
                <path d="M19.7926464,0.154775806 C18.8090705,0.154775806 17.8263505,0.407651976 16.9455133,0.916088983 C15.1851747,1.9326898 14.0933038,3.81849694 14.0917024,5.85126786 L11.816667,5.85126786 C9.31264803,5.85126786 7.25769257,7.90635315 7.25769257,10.4102423 L7.25769257,13.8294732 L4.97820533,13.8294732 C2.47418689,13.8294732 0.419230855,15.8845586 0.419230855,18.3884477 L0.419230855,51.4410126 C0.419230855,53.9449017 2.47418689,55.9999871 4.97820533,55.9999871 L36.8910266,55.9999871 C39.3950571,55.9999871 41.4500011,53.9449017 41.4500011,51.4410126 L41.4500011,48.9967971 C42.2296017,48.7944322 42.9546211,48.405008 43.5335949,47.8258883 L49.232313,42.1271702 C50.0870022,41.2724377 50.5680367,40.1125286 50.5679501,38.9038328 L50.5679501,34.3448583 L50.5679501,10.4102423 C50.5679501,7.90635315 48.5129946,5.85126786 46.0089756,5.85126786 L25.4935905,5.85126786 C25.491988,3.81849694 24.4001159,1.9326898 22.6397796,0.916088983 C21.7589857,0.407436678 20.7762213,0.154775806 19.7926464,0.154775806 Z M19.7970983,2.43648908 C20.3859275,2.43648908 20.9747498,2.58912559 21.5044878,2.89505785 C22.5626281,3.50613265 23.2102976,4.62905924 23.2118773,5.85126786 L16.3756415,5.85126786 L16.3734156,5.85126786 C16.3750158,4.62905821 17.0315241,3.5061331 18.0897088,2.89505785 C18.6194479,2.58912559 19.2082691,2.43648908 19.7970983,2.43648908 Z M11.816667,8.1307551 L14.0961543,8.1307551 L14.0961543,15.5346368 L14.0917024,15.5346368 C14.0917024,16.9581139 14.8624689,18.2820902 16.0951574,18.9939365 C17.3278472,19.7057394 18.8493445,19.7057394 20.0820342,18.9939365 C21.3146795,18.2820902 22.0765855,16.9581139 22.0765855,15.5346368 L22.0743596,15.5346368 L22.0743596,11.549986 C22.0743596,10.92046 21.5640554,10.4101131 20.934616,10.4102423 C20.3052188,10.4101131 19.7948724,10.92046 19.7948724,11.549986 L19.7948724,15.5390886 L19.7970983,15.5390886 C19.7955026,16.1502636 19.4666946,16.7116489 18.9378387,17.0171936 C18.407304,17.3234701 17.7609418,17.3234701 17.2304492,17.0171936 C16.7012059,16.7117788 16.375009,16.1502214 16.3734156,15.5390886 L16.3756415,15.5390886 L16.3756415,8.1307551 L46.0089756,8.1307551 C47.2812098,8.1307551 48.2884628,9.13805162 48.2884628,10.4102423 L48.2884628,34.3448583 L48.2884628,37.7640892 L43.7294884,37.7640892 C42.5207925,37.7640892 41.3608401,38.2429399 40.5061509,39.0975003 C39.651578,39.9522328 39.168288,41.1144978 39.168288,42.3230637 L39.168288,46.8820381 L35.751283,46.8820381 L35.7535089,49.1615254 L39.1705139,49.1615254 L39.1705139,51.4410126 C39.1705139,52.7132035 38.1632734,53.7204998 36.8910266,53.7204998 L4.97820533,53.7204998 C3.70597153,53.7204998 2.69871809,52.7132035 2.69871809,51.4410126 L2.69871809,18.3884477 C2.69871809,17.1162567 3.70597153,16.1089604 4.97820533,16.1089604 L7.25769257,16.1089604 L7.25769257,44.6025509 C7.25769257,47.10644 9.31264803,49.1615254 11.816667,49.1615254 L35.751283,49.1615254 L35.751283,46.8820381 L11.816667,46.8820381 C10.5444328,46.8820381 9.5371798,45.8747418 9.5371798,44.6025509 L9.5371798,10.4102423 C9.5371798,9.13805162 10.5444328,8.1307551 11.816667,8.1307551 Z M17.5153851,22.9474221 C16.8838771,22.9474221 16.3756415,23.4557444 16.3756415,24.0871658 C16.3756415,24.7185871 16.8838771,25.2269094 17.5153851,25.2269094 L23.2141032,25.2269094 C23.8455246,25.2269094 24.3538468,24.7185871 24.3538468,24.0871658 C24.3538468,23.4557444 23.8455246,22.9474221 23.2141032,22.9474221 L17.5153851,22.9474221 Z M27.7730777,22.9474221 C27.1416563,22.9474221 26.6333341,23.4557444 26.6333341,24.0871658 C26.6333341,24.7185871 27.1416563,25.2269094 27.7730777,25.2269094 L40.3102575,25.2269094 C40.9416789,25.2269094 41.4500011,24.7185871 41.4500011,24.0871658 C41.4500011,23.4557444 40.9416789,22.9474221 40.3102575,22.9474221 L27.7730777,22.9474221 Z M17.5153851,27.5063966 C16.8838771,27.5063966 16.3756415,28.0147188 16.3756415,28.6461402 C16.3756415,29.2775616 16.8838771,29.7858839 17.5153851,29.7858839 L30.0525649,29.7858839 C30.6839863,29.7858839 31.1923086,29.2775616 31.1923086,28.6461402 C31.1923086,28.0147188 30.6839863,27.5063966 30.0525649,27.5063966 L27.9155457,27.5063966 L17.5153851,27.5063966 Z M34.6115394,27.5063966 C33.9801169,27.5063966 33.4717958,28.0147188 33.4717958,28.6461402 C33.4717958,29.2775616 33.9801169,29.7858839 34.6115394,29.7858839 L40.3102575,29.7858839 C40.9416789,29.7858839 41.4500011,29.2775616 41.4500011,28.6461402 C41.4500011,28.0147188 40.9416789,27.5063966 40.3102575,27.5063966 L34.6115394,27.5063966 Z M17.5153851,32.0653711 C16.8838771,32.0653711 16.3756415,32.5736933 16.3756415,33.2051147 C16.3756415,33.8365361 16.8838771,34.3448583 17.5153851,34.3448583 L26.6333341,34.3448583 C27.2647555,34.3448583 27.7730777,33.8365361 27.7730777,33.2051147 C27.7730777,32.5736933 27.2647555,32.0653711 26.6333341,32.0653711 L17.5153851,32.0653711 Z M43.7294884,40.0435764 L47.9723618,40.0435764 C47.8741466,40.2128682 47.7619366,40.3721987 47.6206437,40.513275 L41.9219256,46.214219 C41.7810647,46.3555119 41.6195083,46.465496 41.4500011,46.5637112 L41.4500011,42.3208377 C41.4500011,41.7164442 41.6906637,41.1390285 42.1178202,40.7113955 C42.545574,40.2836406 43.1245113,40.0435764 43.7294884,40.0435764 Z" id="Shape"></path>
            </g>
            <g id="Group1" transform="translate(17.000000, 639.000000)" fill="#000000" fill-rule="nonzero">
                <g id="Group">
                    <path d="M8.93746563,6.18512505 C7.42589375,6.18512505 6.1875,7.39862905 6.1875,8.87986189 L6.1875,18.1535865 C5.76173125,17.2517895 4.9977125,16.2770324 4.03909688,16.0378139 C2.734875,15.6908463 1.13733125,16.713216 0.77350625,17.9009718 C0.588053125,18.5630046 0.70895,19.3163992 1.0742875,20.2378139 C2.86020625,24.4459385 5.0590375,28.4860328 7.73434063,31.5535865 C7.86225,31.6976775 8.05509375,31.7842863 8.24996563,31.7851655 L17.5311125,31.7851655 C17.6773781,31.7838181 17.82275,31.7349288 17.9392813,31.6483234 C18.9288344,30.9299806 19.7264031,29.7063512 20.3884656,28.2483234 C21.0505625,26.7902956 21.5573531,25.098944 21.8171594,23.4483234 C22.077,21.7977027 22.0759687,20.2520387 21.7097375,18.8799023 C21.3562938,17.5555975 20.4028688,16.453504 18.9812562,16.2904286 C18.6461688,16.2890813 18.2923469,16.3177802 17.9930094,16.3851486 C17.8166656,15.9720084 17.5695094,15.6196514 17.2625406,15.4062013 C16.7485312,15.0487613 16.2253438,14.9361954 15.8016375,14.9430434 C15.3948438,14.9497128 15.0239031,15.0948682 14.6952094,15.3219907 C14.5472938,15.1008067 14.3951844,14.870656 14.2010688,14.7325171 C13.691425,14.3698392 13.1492281,14.2693592 12.7186469,14.2693592 C12.3624875,14.2693592 12.0178094,14.3661507 11.6874313,14.5009381 L11.6874313,8.87984505 C11.6582125,7.07678989 10.2070719,6.18165558 8.93746563,6.18512505 Z M8.93746563,7.53249347 C9.71110938,7.53249347 10.3124313,8.12176842 10.3124313,8.87986189 L10.3124313,15.9535865 C10.3079625,16.2589272 10.5424,16.5517474 10.8461375,16.6200556 C11.149875,16.6883672 11.4911844,16.5250425 11.6229781,16.2483234 C11.7748469,15.9389305 12.34695,15.6167444 12.7186469,15.6167444 C12.8855031,15.6167444 13.19505,15.6846855 13.3954219,15.8272707 C13.5957938,15.969856 13.7498969,16.1367208 13.7498969,16.6272707 C13.7498969,16.9267604 13.9800031,17.2113011 14.2772094,17.2811015 C14.5744156,17.3509053 14.9106031,17.1992118 15.0496844,16.9325339 C15.3291875,16.3846501 15.4789594,16.2960741 15.8231219,16.2904286 C15.9183406,16.2887444 16.2520531,16.3510366 16.4676188,16.5009549 C16.6832188,16.6508733 16.8436125,16.8232185 16.8436125,17.3009549 C16.840175,17.5633314 17.0112594,17.8194223 17.2567656,17.9241229 C17.5023063,18.0288236 17.809275,17.9760472 18.0037344,17.7956918 C18.2644344,17.6697701 18.5201156,17.6315655 18.85235,17.6377971 C19.6720219,17.739968 20.0975156,18.2433179 20.3884656,19.2483234 C20.6821313,20.2625752 20.6930625,21.7122964 20.4529188,23.2377971 C20.2128094,24.7632977 19.7382281,26.3652109 19.1316469,27.7009549 C18.562775,28.9536977 17.8661656,29.9320253 17.2518156,30.4377971 L8.58299063,30.4377971 C6.16979688,27.6482223 3.86543438,23.364672 2.36331563,19.7535865 C2.05060625,18.9648876 2.02245313,18.5120101 2.09477813,18.2588497 C2.34956563,17.6072589 3.06243438,17.2394004 3.6738625,17.3325507 C4.4048125,17.602304 4.5859,18.0802392 4.8984375,18.6272707 L6.2627125,21.3114813 C6.40179375,21.5781592 6.73794688,21.7298526 7.0351875,21.6600488 C7.33239375,21.5902484 7.56184688,21.3057078 7.5625,21.0062181 L7.5625,8.87986189 C7.5625,8.12176842 8.16382188,7.53249347 8.93746563,7.53249347 Z" id="Shape"></path>
                    <path d="M3.78125,0.121997474 C3.6003,0.123681684 3.41539687,0.188631579 3.28710938,0.321957053 L0.193359375,3.35293979 C0.04324375,3.48788547 0.00721875,3.65704084 0,3.82652968 C0.00584375,4.01094063 0.0504625,4.15791832 0.193359375,4.30012295 L3.28710938,7.33110568 C3.5396625,7.60300463 4.00547812,7.59272758 4.26463125,7.34161516 C4.52385313,7.09051621 4.52595,6.63283874 4.26463125,6.38390905 L2.34179688,4.50006905 C6.73894375,4.50006905 11.1360563,4.50006905 15.5332031,4.50006905 L13.6103688,6.38390905 C13.3490156,6.63283874 13.3511125,7.09051621 13.6103688,7.34161516 C13.8694875,7.59271411 14.3366781,7.58983747 14.5878906,7.33110568 L17.6816406,4.30012295 C17.8245375,4.15791832 17.869225,4.01094063 17.875,3.82652968 C17.8677813,3.65704084 17.8317562,3.48788547 17.6816406,3.35293979 L14.5878906,0.321957053 C14.33135,0.0553094737 13.8694875,0.0603216842 13.6103688,0.311447579 C13.3512156,0.562546526 13.3490844,1.020224 13.6103688,1.26915368 L15.5332031,3.15299368 C11.1360563,3.15299368 6.73894375,3.15299368 2.34179688,3.15299368 L4.26463125,1.26913684 C4.52591562,1.02020716 4.52378437,0.562529684 4.26463125,0.311430737 C4.13507187,0.185876211 3.9622,0.120256 3.78125,0.121994105 L3.78125,0.121997474 Z" id="Shape"></path>
                </g>
            </g>
            <g id="add_orange" transform="translate(17.000000, 681.000000)">
                <circle id="Oval" fill="#FF931E" cx="30" cy="30" r="30"></circle>
                <g id="ic/close/white" transform="translate(29.970563, 29.970563) rotate(-315.000000) translate(-29.970563, -29.970563) translate(17.970563, 17.970563)">
                    <g id="ic_close_24px">
                        <polygon id="Shape" fill="#FFFFFF" fill-rule="nonzero" points="19 6.41 17.59 5 12 10.59 6.41 5 5 6.41 10.59 12 5 17.59 6.41 19 12 13.41 17.59 19 19 17.59 13.41 12"></polygon>
                        <polygon id="Shape" points="0 0 24 0 24 24 0 24"></polygon>
                    </g>
                </g>
            </g>
            <g id="add_green" transform="translate(17.000000, 751.000000)">
                <circle id="Oval" fill="#1AC6BA" cx="30" cy="30" r="30"></circle>
                <g id="ic/close/white" transform="translate(29.970563, 29.970563) rotate(-315.000000) translate(-29.970563, -29.970563) translate(17.970563, 17.970563)">
                    <g id="ic_close_24px">
                        <polygon id="Shape" fill="#FFFFFF" fill-rule="nonzero" points="19 6.41 17.59 5 12 10.59 6.41 5 5 6.41 10.59 12 5 17.59 6.41 19 12 13.41 17.59 19 19 17.59 13.41 12"></polygon>
                        <polygon id="Shape" points="0 0 24 0 24 24 0 24"></polygon>
                    </g>
                </g>
            </g>
            <g id="add_purple" transform="translate(17.000000, 821.000000)">
                <circle id="Oval" fill="#AF4396" cx="30" cy="30" r="30"></circle>
                <g id="ic/close/white" transform="translate(29.970563, 29.970563) rotate(-315.000000) translate(-29.970563, -29.970563) translate(17.970563, 17.970563)">
                    <g id="ic_close_24px">
                        <polygon id="Shape" fill="#FFFFFF" fill-rule="nonzero" points="19 6.41 17.59 5 12 10.59 6.41 5 5 6.41 10.59 12 5 17.59 6.41 19 12 13.41 17.59 19 19 17.59 13.41 12"></polygon>
                        <polygon id="Shape" points="0 0 24 0 24 24 0 24"></polygon>
                    </g>
                </g>
            </g>
        </g>
    </g>
</svg>